<svg width="25" height="26" viewBox="0 0 25 26" fill="none" xmlns="http://www.w3.org/2000/svg">
<path d="M7.25 0.127441H17.75C21.75 0.127441 25 3.37744 25 7.37744V17.8774C25 19.8003 24.2362 21.6443 22.8765 23.004C21.5169 24.3636 19.6728 25.1274 17.75 25.1274H7.25C3.25 25.1274 0 21.8774 0 17.8774V7.37744C0 5.45462 0.763837 3.61056 2.12348 2.25092C3.48311 0.891279 5.32718 0.127441 7.25 0.127441ZM7 2.62744C5.80653 2.62744 4.66193 3.10155 3.81802 3.94546C2.97411 4.78937 2.5 5.93397 2.5 7.12744V18.1274C2.5 20.6149 4.5125 22.6274 7 22.6274H18C19.1935 22.6274 20.3381 22.1533 21.182 21.3094C22.0259 20.4655 22.5 19.3209 22.5 18.1274V7.12744C22.5 4.63994 20.4875 2.62744 18 2.62744H7ZM19.0625 4.50244C19.4769 4.50244 19.8743 4.66706 20.1674 4.96009C20.4604 5.25311 20.625 5.65054 20.625 6.06494C20.625 6.47934 20.4604 6.87677 20.1674 7.1698C19.8743 7.46282 19.4769 7.62744 19.0625 7.62744C18.6481 7.62744 18.2507 7.46282 17.9576 7.1698C17.6646 6.87677 17.5 6.47934 17.5 6.06494C17.5 5.65054 17.6646 5.25311 17.9576 4.96009C18.2507 4.66706 18.6481 4.50244 19.0625 4.50244ZM12.5 6.37744C14.1576 6.37744 15.7473 7.03592 16.9194 8.20802C18.0915 9.38013 18.75 10.9698 18.75 12.6274C18.75 14.285 18.0915 15.8748 16.9194 17.0469C15.7473 18.219 14.1576 18.8774 12.5 18.8774C10.8424 18.8774 9.25268 18.219 8.08058 17.0469C6.90848 15.8748 6.25 14.285 6.25 12.6274C6.25 10.9698 6.90848 9.38013 8.08058 8.20802C9.25268 7.03592 10.8424 6.37744 12.5 6.37744ZM12.5 8.87744C11.5054 8.87744 10.5516 9.27253 9.84835 9.97579C9.14509 10.6791 8.75 11.6329 8.75 12.6274C8.75 13.622 9.14509 14.5758 9.84835 15.2791C10.5516 15.9824 11.5054 16.3774 12.5 16.3774C13.4946 16.3774 14.4484 15.9824 15.1517 15.2791C15.8549 14.5758 16.25 13.622 16.25 12.6274C16.25 11.6329 15.8549 10.6791 15.1517 9.97579C14.4484 9.27253 13.4946 8.87744 12.5 8.87744Z" fill="white"/>
</svg>
