<svg width="25" height="26" viewBox="0 0 25 26" fill="none" xmlns="http://www.w3.org/2000/svg">
<path d="M22.2222 0.127441C22.9589 0.127441 23.6655 0.420099 24.1864 0.941034C24.7073 1.46197 25 2.16851 25 2.90522V22.3497C25 23.0864 24.7073 23.7929 24.1864 24.3138C23.6655 24.8348 22.9589 25.1274 22.2222 25.1274H2.77778C2.04107 25.1274 1.33453 24.8348 0.813592 24.3138C0.292658 23.7929 0 23.0864 0 22.3497V2.90522C0 2.16851 0.292658 1.46197 0.813592 0.941034C1.33453 0.420099 2.04107 0.127441 2.77778 0.127441H22.2222ZM21.5278 21.6552V14.2941C21.5278 13.0933 21.0507 11.9416 20.2016 11.0925C19.3525 10.2434 18.2008 9.76633 17 9.76633C15.8194 9.76633 14.4444 10.4886 13.7778 11.5719V10.0302H9.90278V21.6552H13.7778V14.808C13.7778 13.7386 14.6389 12.8636 15.7083 12.8636C16.224 12.8636 16.7186 13.0684 17.0833 13.4331C17.4479 13.7977 17.6528 14.2923 17.6528 14.808V21.6552H21.5278ZM5.38889 7.84966C6.00773 7.84966 6.60122 7.60383 7.03881 7.16625C7.47639 6.72866 7.72222 6.13517 7.72222 5.51633C7.72222 4.22466 6.68056 3.16911 5.38889 3.16911C4.76637 3.16911 4.16934 3.4164 3.72915 3.85659C3.28896 4.29678 3.04167 4.89381 3.04167 5.51633C3.04167 6.808 4.09722 7.84966 5.38889 7.84966ZM7.31944 21.6552V10.0302H3.47222V21.6552H7.31944Z" fill="white"/>
</svg>
