<svg width="22" height="26" viewBox="0 0 22 26" fill="none" xmlns="http://www.w3.org/2000/svg">
<path d="M17.4541 3.95663C16.4952 2.86158 15.9667 1.45553 15.9668 0H11.6314V17.398C11.5986 18.3397 11.2014 19.2319 10.5234 19.8863C9.84541 20.5407 8.93974 20.9062 7.99745 20.9056C6.0051 20.9056 4.34949 19.2781 4.34949 17.2577C4.34949 14.8444 6.67857 13.0344 9.07781 13.7781V9.34439C4.23725 8.69898 0 12.4592 0 17.2577C0 21.9298 3.87245 25.2551 7.98342 25.2551C12.389 25.2551 15.9668 21.6773 15.9668 17.2577V8.4324C17.7249 9.69494 19.8356 10.3723 22 10.3686V6.03316C22 6.03316 19.3622 6.15944 17.4541 3.95663Z" fill="white"/>
</svg>
