<svg width="36" height="26" viewBox="0 0 36 26" fill="none" xmlns="http://www.w3.org/2000/svg">
<path d="M14.4 18.0273L23.742 12.6273L14.4 7.22734V18.0273ZM35.208 3.93334C35.442 4.77934 35.604 5.91334 35.712 7.35334C35.838 8.79334 35.892 10.0353 35.892 11.1153L36 12.6273C36 16.5693 35.712 19.4673 35.208 21.3213C34.758 22.9413 33.714 23.9853 32.094 24.4353C31.248 24.6693 29.7 24.8313 27.324 24.9393C24.984 25.0653 22.842 25.1193 20.862 25.1193L18 25.2273C10.458 25.2273 5.76 24.9393 3.906 24.4353C2.286 23.9853 1.242 22.9413 0.792 21.3213C0.558 20.4753 0.396 19.3413 0.288 17.9013C0.162 16.4613 0.108 15.2193 0.108 14.1393L0 12.6273C0 8.68534 0.288 5.78734 0.792 3.93334C1.242 2.31334 2.286 1.26934 3.906 0.819344C4.752 0.585344 6.3 0.423343 8.676 0.315343C11.016 0.189343 13.158 0.135344 15.138 0.135344L18 0.0273438C25.542 0.0273438 30.24 0.315344 32.094 0.819344C33.714 1.26934 34.758 2.31334 35.208 3.93334Z" fill="white"/>
</svg>
