<svg width="613" height="325" viewBox="0 0 613 325" fill="none" xmlns="http://www.w3.org/2000/svg">
<path d="M546 258.049L388.209 281.954L369.873 171.571C420.503 192.972 467.601 228.262 518.206 249.663C525.366 252.687 534.583 248.246 541.767 251.293C543.17 253.537 544.573 255.781 546 258.025V258.049Z" fill="#FFE600" stroke="#1F211D" stroke-width="8" stroke-miterlimit="10"/>
<path d="M351.202 153.406H60.9219V251.128H351.202V153.406Z" fill="#FFE600" stroke="#1F211D" stroke-width="8" stroke-miterlimit="10"/>
<path d="M285.161 153.406H76.5469V4H237.362L285.161 153.406Z" fill="#FFE600" stroke="#1F211D" stroke-width="8" stroke-miterlimit="10"/>
<path d="M259.977 153.406H104.58V32.1333H219.144L259.977 153.406Z" fill="#B2E1E9" stroke="#1F211D" stroke-width="8" stroke-miterlimit="10"/>
<path d="M118.397 133.847H60.9219V153.406H118.397V133.847Z" fill="#FFE600" stroke="#1F211D" stroke-width="8" stroke-miterlimit="10"/>
<path d="M60.9191 111.619H4V253.348H60.9191V111.619Z" fill="#FFE600" stroke="#1F211D" stroke-width="8" stroke-miterlimit="10"/>
<path d="M134.359 321C179.916 321 216.847 284.937 216.847 240.451C216.847 195.964 179.916 159.901 134.359 159.901C88.8022 159.901 51.8711 195.964 51.8711 240.451C51.8711 284.937 88.8022 321 134.359 321Z" fill="#231F20" stroke="#1F211D" stroke-width="8" stroke-miterlimit="10"/>
<path d="M285.161 318.591C318.146 318.591 344.886 292.479 344.886 260.269C344.886 228.059 318.146 201.948 285.161 201.948C252.175 201.948 225.436 228.059 225.436 260.269C225.436 292.479 252.175 318.591 285.161 318.591Z" fill="#231F20" stroke="#1F211D" stroke-width="8" stroke-miterlimit="10"/>
<path d="M134.119 275.127C153.223 275.127 168.711 260.004 168.711 241.349C168.711 222.693 153.223 207.57 134.119 207.57C115.015 207.57 99.5273 222.693 99.5273 241.349C99.5273 260.004 115.015 275.127 134.119 275.127Z" fill="#3D3D3D" stroke="#1F211D" stroke-width="8" stroke-miterlimit="10"/>
<path d="M287.555 283.631C300.768 283.631 311.479 273.172 311.479 260.269C311.479 247.367 300.768 236.908 287.555 236.908C274.342 236.908 263.631 247.367 263.631 260.269C263.631 273.172 274.342 283.631 287.555 283.631Z" fill="#4A494A" stroke="#1F211D" stroke-width="8" stroke-miterlimit="10"/>
<path d="M37.5762 84.3838L340.387 112.611L328.412 143.626L37.5762 117.17V84.3838Z" fill="#FFE600" stroke="#1F211D" stroke-width="8" stroke-miterlimit="10"/>
<path d="M42.5361 121.092C55.5218 121.092 66.0488 110.812 66.0488 98.1317C66.0488 85.4512 55.5218 75.1716 42.5361 75.1716C29.5504 75.1716 19.0234 85.4512 19.0234 98.1317C19.0234 110.812 29.5504 121.092 42.5361 121.092Z" fill="#FFE600" stroke="#1F211D" stroke-width="8" stroke-miterlimit="10"/>
<path d="M403.715 229.797L400.715 230.553C392.587 231.238 382.403 220.68 376.816 212.766L328.436 143.626L340.385 112.611L405.263 202.255C412.109 211.633 415.157 225.002 403.715 229.797Z" fill="#FFE600" stroke="#1F211D" stroke-width="8" stroke-miterlimit="10"/>
<path d="M476 18C495.883 18 512 30.7594 512 46.5C512 62.2405 495.883 75 476 75C456.117 75 440 62.2405 440 46.5C440 30.7594 456.117 18 476 18ZM464.563 56.0275C463.144 54.6671 461.37 54.1836 459.238 54.5769L458.698 54.6937L456.574 57.5893C456.174 58.1056 456.041 58.7246 456.204 59.3166C456.367 59.9086 456.813 60.4277 457.449 60.7651C458.085 61.1025 458.86 61.2322 459.614 61.1268C460.368 61.0215 461.041 60.6893 461.492 60.1999L461.715 59.9349L464.563 56.0275ZM480.356 36.981C478.599 38.1324 476.828 41.5324 479.312 44.9239L490.256 59.932C490.635 60.4419 491.243 60.8198 491.959 60.9901C492.674 61.1604 493.445 61.1105 494.116 60.8506C494.787 60.5907 495.31 60.1397 495.579 59.5879C495.849 59.0361 495.845 58.4242 495.57 57.8743L495.393 57.5893L492.506 53.6221H496.79C497.179 53.6229 497.565 53.5627 497.924 53.4451C498.284 53.3274 498.611 53.1547 498.886 52.9367C499.161 52.7187 499.379 52.4598 499.527 52.1749C499.675 51.89 499.751 51.5847 499.749 51.2766C499.751 50.7051 499.488 50.1529 499.011 49.7243C498.533 49.2958 497.874 49.0207 497.157 48.951L496.786 48.9339H489.082L481.184 38.1124L480.356 36.981ZM481.357 28.3056C480.735 28.0229 480.005 27.9278 479.302 28.0378C478.599 28.1478 477.969 28.4555 477.53 28.9041L477.307 29.1663L475.986 30.9704L474.693 29.1663C474.314 28.6564 473.706 28.2786 472.99 28.1083C472.275 27.938 471.504 27.9878 470.833 28.2477C470.162 28.5077 469.639 28.9586 469.37 29.5104C469.1 30.0622 469.104 30.6742 469.38 31.224L469.556 31.509L472.573 35.6614L462.907 48.9225H455.358C454.969 48.9217 454.583 48.9818 454.224 49.0993C453.865 49.2168 453.538 49.3893 453.263 49.607C452.988 49.8247 452.77 50.0832 452.622 50.3678C452.473 50.6524 452.397 50.9573 452.398 51.2652C452.398 52.465 453.522 53.4483 454.987 53.5937L455.358 53.6107H482.286C483.51 51.7867 482.07 49.1961 479.37 48.9424L478.934 48.9225H469.743L482.444 31.509C482.836 30.9701 482.942 30.3298 482.738 29.729C482.535 29.1283 482.038 28.6163 481.357 28.3056Z" fill="white"/>
<path d="M496.407 144.173C495.361 139.905 492.468 136.056 488.223 133.288C483.978 130.52 478.645 129.004 473.14 129V132.739C477.545 132.743 481.811 133.956 485.207 136.17C488.604 138.385 490.919 141.463 491.758 144.878L492.371 147.395L495.564 147.853C498.762 148.31 501.628 149.695 503.599 151.735C505.57 153.775 506.504 156.324 506.218 158.88C505.932 161.437 504.446 163.817 502.052 165.552C499.659 167.288 496.53 168.254 493.28 168.261H473.14V172H493.28C497.712 171.992 501.98 170.676 505.245 168.311C508.511 165.945 510.539 162.7 510.931 159.214C511.322 155.727 510.049 152.251 507.361 149.468C504.674 146.686 500.766 144.797 496.405 144.173M454.203 164.522H468.406V168.261H454.203V164.522ZM444.734 164.522H449.469V168.261H444.734V164.522ZM449.469 157.043H468.406V160.783H449.469V157.043ZM440 157.043H444.734V160.783H440V157.043ZM454.203 149.565H468.406V153.304H454.203V149.565ZM444.734 149.565H449.469V153.304H444.734V149.565ZM458.937 142.087H468.406V145.826H458.937V142.087ZM449.469 142.087H454.203V145.826H449.469V142.087ZM463.672 134.609H468.406V138.348H463.672V134.609Z" fill="white"/>
<path d="M600.191 100.119L583.758 113.767L567.325 100.119L573.077 95.3427L579.65 100.631V86.4717H587.866V100.631L594.44 95.3427L600.191 100.119ZM575.542 130.827H591.975V127.415H575.542V130.827ZM563.217 141.063C560.957 141.063 559.023 140.395 557.416 139.06C555.808 137.725 555.003 136.118 555 134.239V72.8239C555 70.9473 555.805 69.3414 557.416 68.0062C559.026 66.671 560.96 66.0023 563.217 66H604.3C606.559 66 608.494 66.6687 610.105 68.0062C611.715 69.3437 612.519 70.9496 612.516 72.8239V134.239C612.516 136.116 611.712 137.723 610.105 139.06C608.497 140.397 606.562 141.065 604.3 141.063H563.217ZM563.217 117.179H604.3V83.0597H563.217V117.179Z" fill="white"/>
</svg>
