<svg width="544" height="514" viewBox="0 0 544 514" fill="none" xmlns="http://www.w3.org/2000/svg">
<path d="M292.675 0C230.596 0 180.197 50.453 180.197 112.598V204.386C180.197 211.768 186.181 217.759 193.556 217.759H391.799C399.174 217.759 405.158 211.768 405.158 204.386V112.598C405.153 50.453 354.754 0 292.675 0Z" fill="#988DFF"/>
<circle cx="127.5" cy="56.5" r="43.5" fill="white"/>
<path d="M123.117 33.1444C127.628 32.446 131.416 33.0686 134.48 35.0121C137.586 36.949 139.472 40.0679 140.138 44.3687C140.752 48.3322 139.924 51.6336 137.656 54.273C135.423 56.8637 132.181 58.5097 127.929 59.2111L128.347 64.0035L118.86 65.4721L116.723 53.7572L120.518 53.1697C123.764 52.6672 126.169 51.8848 127.731 50.8226C129.336 49.7538 129.975 48.1654 129.649 46.0571C129.421 44.5814 128.84 43.4839 127.909 42.7646C126.977 42.0453 125.795 41.7966 124.361 42.0185C122.843 42.2535 121.731 42.879 121.025 43.895C120.312 44.8688 120.07 46.0936 120.298 47.5694L110.116 49.1456C109.633 46.5866 109.801 44.186 110.62 41.9437C111.481 39.6949 112.958 37.804 115.052 36.2709C117.182 34.6892 119.87 33.647 123.117 33.1444ZM126.275 81.1624C124.378 81.4561 122.733 81.1495 121.341 80.2425C119.984 79.2868 119.178 77.9867 118.924 76.3423C118.662 74.6557 119.034 73.1518 120.039 71.8306C121.085 70.5029 122.557 69.6922 124.454 69.3985C126.31 69.1113 127.916 69.4456 129.273 70.4012C130.672 71.3504 131.502 72.6683 131.763 74.3549C132.017 75.9993 131.621 77.4853 130.575 78.8131C129.564 80.0921 128.131 80.8752 126.275 81.1624Z" fill="#988DFF"/>
<path d="M267.534 210.226H318.121V289.737H267.534V210.226Z" fill="#D37DC2"/>
<path d="M215.271 122.479C215.271 79.602 249.993 44.8435 292.824 44.8435C335.656 44.8435 370.377 79.602 370.377 122.479V174.232C370.377 217.109 335.656 251.867 292.824 251.867C249.993 251.867 215.271 217.109 215.271 174.232V122.479Z" fill="#FFA1E9"/>
<path d="M447.372 99.2673C450.829 95.4685 450.174 89.4346 444.876 86.114C432.923 78.6723 418.743 73.4605 403.161 71.5316C396.28 70.6343 389.292 74.9596 388.38 80.2574C387.44 85.5606 392.029 89.5528 397.842 90.0417C411.373 91.1754 423.632 95.2805 433.868 101.314C438.285 103.899 443.889 103.093 447.372 99.2673Z" fill="#FFA1E9"/>
<path d="M135.883 109.466L108.652 95.7594L124.618 81.137L135.883 109.466Z" fill="white"/>
<path d="M435.703 144.514C419.867 144.514 407.03 131.663 407.03 115.811C407.03 99.9586 419.867 87.1079 435.703 87.1079C451.538 87.1079 464.375 99.9586 464.375 115.811C464.375 131.663 451.538 144.514 435.703 144.514Z" fill="#FFA1E9"/>
<path d="M432.987 121.067L462.35 107.516L486.391 159.722L457.028 173.273L432.987 121.067Z" fill="#FFA1E9"/>
<path d="M303.107 142.525C300.558 141.985 298.929 139.478 299.469 136.926C300.008 134.375 302.512 132.744 305.061 133.284L326.643 137.856C329.192 138.396 330.821 140.903 330.282 143.455C329.742 146.007 327.238 147.638 324.689 147.097L303.107 142.525Z" fill="#988DFF"/>
<path d="M241.75 146.691C239.181 147.129 236.745 145.399 236.307 142.828C235.87 140.256 237.598 137.817 240.167 137.379L261.914 133.674C264.482 133.236 266.919 134.966 267.356 137.537C267.794 140.108 266.066 142.548 263.497 142.985L241.75 146.691Z" fill="#988DFF"/>
<path d="M205.089 148.355H205.094C213.474 148.355 220.268 155.156 220.268 163.545V173.679C220.268 182.068 213.474 188.868 205.094 188.868H205.089C196.709 188.868 189.915 182.068 189.915 173.679V163.545C189.915 155.156 196.709 148.355 205.089 148.355Z" fill="#FFA1E9"/>
<path d="M380.999 148.355H381.004C389.384 148.355 396.178 155.156 396.178 163.545V173.679C396.178 182.068 389.384 188.868 381.004 188.868H380.999C372.619 188.868 365.826 182.068 365.826 173.679V163.545C365.826 155.156 372.619 148.355 380.999 148.355Z" fill="#FFA1E9"/>
<path d="M490.997 306.968L543.146 282.897C543.146 282.897 530.882 156.093 482.023 150.198C470.188 148.769 436.476 164.33 429.874 174.27C402.624 215.293 490.997 306.968 490.997 306.968Z" fill="#61BCD1"/>
<path d="M243.444 158.177C243.444 153.981 246.841 150.58 251.031 150.58C255.221 150.58 258.617 153.981 258.617 158.177V162.615C258.617 166.811 255.221 170.213 251.031 170.213C246.841 170.213 243.444 166.811 243.444 162.615V158.177Z" fill="#8E4673"/>
<path d="M307.29 158.177C307.29 153.981 310.686 150.58 314.876 150.58C319.066 150.58 322.463 153.981 322.463 158.177V162.615C322.463 166.811 319.066 170.213 314.876 170.213C310.686 170.213 307.29 166.811 307.29 162.615V158.177Z" fill="#8E4673"/>
<path opacity="0.5" d="M284.125 163H284.131C285.304 163 286.256 163.953 286.256 165.128V180.505C286.256 181.681 285.304 182.633 284.131 182.633H284.125C282.951 182.633 282 181.681 282 180.505V165.128C282 163.953 282.951 163 284.125 163Z" fill="#962766"/>
<path d="M280.068 210.814C277.53 211.402 274.995 209.819 274.406 207.278C273.817 204.736 275.398 202.2 277.936 201.612L299.427 196.632C301.965 196.044 304.5 197.627 305.089 200.168C305.678 202.709 304.097 205.246 301.559 205.834L280.068 210.814Z" fill="#D37DC2"/>
<path d="M7.69518 223.409L52.0842 213.24C56.0257 212.337 59.952 214.804 60.854 218.749L82.2925 312.53C83.1945 316.475 80.7305 320.406 76.7891 321.309L32.4 331.478C28.4586 332.381 24.5323 329.914 23.6303 325.969L2.19181 232.188C1.28983 228.243 3.75376 224.312 7.69518 223.409Z" fill="#144162"/>
<path d="M293.391 305.781L293.388 305.777C286.929 298.339 287.716 287.069 295.146 280.603L317.697 260.979C325.127 254.514 336.385 255.302 342.844 262.74L342.847 262.744C349.306 270.181 348.519 281.452 341.089 287.917L318.538 307.541C311.108 314.007 299.85 313.219 293.391 305.781Z" fill="#61BCD1"/>
<path d="M238.804 262.774L238.808 262.77C245.266 255.333 256.525 254.544 263.955 261.01L286.505 280.634C293.935 287.099 294.722 298.37 288.264 305.807L288.26 305.811C281.802 313.249 270.543 314.037 263.114 307.572L240.563 287.948C233.133 281.482 232.346 270.212 238.804 262.774Z" fill="#61BCD1"/>
<path d="M335.007 291.467L344.641 348.136L520.47 318.187C535.859 315.565 546.212 300.95 543.593 285.546L538.703 256.773L335.007 291.472V291.467Z" fill="#61BCD1"/>
<path d="M30.6774 332.936C14.8421 332.936 2.00502 320.085 2.00502 304.233C2.00502 288.381 14.8421 275.53 30.6774 275.53C46.5127 275.53 59.3497 288.381 59.3497 304.233C59.3497 320.085 46.5127 332.936 30.6774 332.936Z" fill="#FFA1E9"/>
<path d="M341.819 291.939H239.581C210.995 291.939 187.792 315.173 187.792 343.784V366.55H393.613V343.784C393.613 315.167 370.405 291.939 341.824 291.939H341.819Z" fill="#61BCD1"/>
<path d="M226.188 305.963L258.617 325.919L177.522 457.988C170.426 469.551 153.89 472.286 140.589 464.103L115.749 448.817L199.56 312.325C205.159 303.207 217.085 300.359 226.193 305.963H226.188Z" fill="#61BCD1"/>
<path d="M76.0078 345.523L52.4845 367.729L13.0866 325.906L36.6099 303.7L76.0078 345.523Z" fill="#FFA1E9"/>
<path d="M187.184 426.954L145.41 466.397C145.41 466.397 32.4753 407.67 45.255 360.091C48.3519 348.566 75.355 323.071 87.029 320.648C135.217 310.659 187.184 426.954 187.184 426.954Z" fill="#61BCD1"/>
<path d="M394 361H188V496.159C188 506.007 198.486 514 211.395 514H370.605C383.519 514 394 506.003 394 496.159V361Z" fill="#61BCD1"/>
<path d="M314.873 100.32C293.823 100.32 276.759 83.2382 276.759 62.1663C276.759 41.0944 293.823 24.0122 314.873 24.0122C335.922 24.0122 352.986 41.0944 352.986 62.1663C352.986 83.2382 335.922 100.32 314.873 100.32Z" fill="#988DFF"/>
<path d="M259.408 119.271C234.016 119.271 213.432 98.6648 213.432 73.2456C213.432 47.8263 234.016 27.22 259.408 27.22C284.8 27.22 305.385 47.8263 305.385 73.2456C305.385 98.6648 284.8 119.271 259.408 119.271Z" fill="#988DFF"/>
</svg>
