<svg width="131" height="125" viewBox="0 0 131 125" fill="none" xmlns="http://www.w3.org/2000/svg">
<path d="M81.3571 36.2633C78.1287 35.4868 74.7725 35.3723 71.4972 35.9268C68.2218 36.4812 65.0974 37.6929 62.318 39.4865C62.113 39.6204 61.9401 39.7969 61.8115 40.0035C61.683 40.2101 61.6018 40.4418 61.5737 40.6825C61.5457 40.9232 61.5714 41.167 61.649 41.3969C61.7267 41.6268 61.8544 41.8372 62.0233 42.0134C62.3792 42.4052 62.8645 42.6602 63.3932 42.7334C63.9219 42.8065 64.4598 42.6931 64.9116 42.4131C67.1964 40.9379 69.7652 39.9414 72.4581 39.4856C75.151 39.0298 77.9105 39.1244 80.5647 39.7637C85.2269 40.5516 89.3845 43.1195 92.1331 46.9089C94.8817 50.6983 95.9989 55.4027 95.2419 59.9986L95.065 60.7658C94.853 61.6775 94.5638 62.5702 94.2005 63.4345C94.0132 63.9417 94.0226 64.499 94.2268 64.9997C94.4311 65.5005 94.8158 65.9095 95.3074 66.1484C95.5309 66.276 95.779 66.3563 96.0359 66.3843C96.2927 66.4122 96.5527 66.3872 96.7992 66.3108C97.0457 66.2344 97.2733 66.1082 97.4675 65.9404C97.6617 65.7726 97.8182 65.5668 97.9271 65.3362C98.5083 63.9995 98.9346 62.6026 99.1977 61.1719L99.2566 60.9205C100.177 55.3182 98.8125 49.585 95.4605 44.9675C92.1086 40.3501 87.04 37.222 81.3571 36.2633ZM101.005 120.646H94.9733L101.935 113.174C102.701 112.228 103.122 111.057 103.133 109.848C103.144 108.639 102.743 107.461 101.994 106.502C101.193 105.516 100.17 104.726 99.0066 104.194C97.8431 103.662 96.5703 103.402 95.2877 103.434C93.2773 103.239 91.2689 103.823 89.6897 105.063C88.1106 106.303 87.0854 108.101 86.8324 110.074C86.9727 110.686 87.3205 111.233 87.8186 111.625C88.3167 112.017 88.9355 112.231 89.5734 112.231C90.2112 112.231 90.83 112.017 91.3281 111.625C91.8263 111.233 92.174 110.686 92.3143 110.074C92.4092 109.374 92.778 108.739 93.342 108.303C93.9059 107.867 94.6206 107.665 95.3336 107.74C95.7062 107.734 96.075 107.815 96.4097 107.976C96.7444 108.138 97.0355 108.375 97.2591 108.668C97.4918 108.966 97.6282 109.325 97.6504 109.7C97.6726 110.075 97.5796 110.448 97.3835 110.77L87.3564 121.529C87.0651 121.821 86.8838 122.203 86.8421 122.611C86.8005 123.018 86.901 123.428 87.1272 123.772C87.4049 124.15 87.7731 124.455 88.1992 124.66C88.6254 124.865 89.0963 124.963 89.5701 124.945H100.999C101.327 125.019 101.667 125.018 101.995 124.944C102.323 124.87 102.63 124.725 102.892 124.518C103.155 124.312 103.368 124.05 103.513 123.751C103.659 123.453 103.735 123.126 103.735 122.795C103.735 122.464 103.659 122.138 103.513 121.839C103.368 121.541 103.155 121.279 102.892 121.072C102.63 120.866 102.323 120.72 101.995 120.646C101.667 120.572 101.333 120.572 101.005 120.646ZM44.9621 109.597C43.3801 110.196 41.6993 110.501 40.0042 110.499C37.3381 110.76 34.6736 109.987 32.5782 108.343C30.4827 106.7 29.1218 104.316 28.7851 101.7C29.1218 99.0835 30.4827 96.7 32.5782 95.0565C34.6736 93.413 37.3381 92.6395 40.0042 92.9006C41.6804 92.8983 43.3429 93.1976 44.9097 93.7838C45.5449 94.045 46.2507 94.0892 46.9144 93.9093C47.578 93.7293 48.1613 93.3356 48.5709 92.791C48.7195 92.5262 48.8045 92.2314 48.8193 91.9292C48.8341 91.6271 48.7784 91.3255 48.6563 91.0479C48.5342 90.7703 48.3491 90.5239 48.1152 90.3276C47.8812 90.1314 47.6047 89.9906 47.3068 89.916C44.9737 89.0484 42.4982 88.6113 40.0042 88.6267C36.0362 88.2428 32.0724 89.3961 28.9542 91.8418C25.836 94.2875 23.809 97.8329 23.3033 101.726C23.8074 105.619 25.8338 109.167 28.9522 111.614C32.0706 114.061 36.0352 115.215 40.0042 114.831C42.531 114.836 45.0364 114.377 47.392 113.477C47.6898 113.402 47.966 113.26 48.1991 113.062C48.4323 112.865 48.6161 112.617 48.7364 112.339C48.8568 112.06 48.9103 111.758 48.893 111.456C48.8756 111.153 48.7878 110.859 48.6364 110.596C48.227 110.047 47.6418 109.65 46.9753 109.469C46.3087 109.288 45.5996 109.333 44.9621 109.597ZM66.9092 88.5816C62.9412 88.1945 58.9764 89.3467 55.8585 91.7931C52.7406 94.2395 50.7157 97.7869 50.2148 101.68C50.7189 105.573 52.7444 109.119 55.8613 111.566C58.9782 114.013 62.9412 115.168 66.9092 114.786C70.8782 115.17 74.8429 114.015 77.9612 111.568C81.0796 109.121 83.106 105.574 83.6101 101.68C83.1045 97.7878 81.0774 94.2423 77.9592 91.7967C74.841 89.351 70.8772 88.1977 66.9092 88.5816ZM66.9092 110.499C64.2379 110.763 61.5674 109.989 59.4686 108.341C57.3697 106.693 56.0089 104.303 55.677 101.68C56.0137 99.0654 57.3736 96.6829 59.4676 95.0396C61.5616 93.3963 64.2244 92.6219 66.8895 92.8813C69.5557 92.6202 72.2201 93.3937 74.3156 95.0371C76.411 96.6806 77.772 99.0642 78.1086 101.68C77.7719 104.293 76.4138 106.674 74.3227 108.317C72.2316 109.959 69.5722 110.735 66.9092 110.48V110.499ZM40.5347 82.7025C41.0934 82.6724 41.619 82.4328 42.0036 82.0329C42.3883 81.6331 42.6026 81.1033 42.6026 80.5527C42.6026 80.0021 42.3883 79.4723 42.0036 79.0725C41.619 78.6726 41.0934 78.433 40.5347 78.4029H24.4101C19.7005 78.4081 15.1397 76.779 11.5297 73.802C7.91957 70.8251 5.49126 66.6908 4.67163 62.126C3.85201 57.5613 4.69353 52.8582 7.04826 48.8437C9.40299 44.8292 13.1202 41.7602 17.5464 40.1762C18.0684 39.9825 18.4952 39.5991 18.7388 39.1051C18.9825 38.6111 19.0245 38.0439 18.8562 37.5204C17.7614 34.2807 17.3348 30.8585 17.6016 27.4545C17.8683 24.0504 18.823 20.7331 20.4096 17.697C21.9962 14.661 24.1828 11.9673 26.8412 9.77406C29.4995 7.58081 32.5761 5.93213 35.8904 4.92473C39.2047 3.91733 42.69 3.57149 46.142 3.90749C49.5939 4.24349 52.9429 5.25457 55.9925 6.88143C59.0421 8.50828 61.731 10.7182 63.9014 13.3814C66.0718 16.0447 67.68 19.1077 68.6317 22.3909C68.7562 22.772 68.9844 23.1123 69.2915 23.3748C69.5986 23.6373 69.9729 23.812 70.3738 23.88C70.7749 23.9461 71.1867 23.8995 71.5621 23.7456C71.9375 23.5916 72.2611 23.3366 72.4958 23.0097C74.523 20.2376 77.1893 17.9782 80.2758 16.4173C83.3624 14.8563 86.7811 14.0381 90.2512 14.03H90.3953C93.3193 14.0235 96.2137 14.6064 98.9002 15.7427C101.587 16.8791 104.008 18.5449 106.016 20.6375C108.065 22.7279 109.663 25.2061 110.711 27.9219C111.759 30.6378 112.236 33.5347 112.113 36.4374C112.101 36.9984 112.312 37.542 112.701 37.9524C113.089 38.3628 113.626 38.6074 114.195 38.6343C114.765 38.6612 115.322 38.4682 115.75 38.0964C116.177 37.7245 116.439 37.2033 116.482 36.6437C116.632 33.1571 116.062 29.6769 114.805 26.4137C113.549 23.1504 111.633 20.1722 109.172 17.6593C106.763 15.1531 103.86 13.1563 100.641 11.7909C97.4215 10.4254 93.9532 9.71994 90.4477 9.71742C86.9147 9.70951 83.416 10.3998 80.1591 11.7474C76.9022 13.095 73.9533 15.0725 71.4872 17.5626C68.6119 11.3327 63.6558 6.25966 57.4437 3.18776C51.2316 0.115859 44.1381 -0.769706 37.3435 0.678425C30.549 2.12656 24.4631 5.82106 20.0986 11.1472C15.734 16.4733 13.3541 23.1098 13.3547 29.9524C13.3568 32.2902 13.6337 34.6199 14.18 36.8951C9.12841 39.1869 5.02452 43.1094 2.54887 48.0121C0.0732243 52.9148 -0.625442 58.5031 0.568741 63.8503C1.76292 69.1975 4.77821 73.9823 9.11454 77.4112C13.4509 80.8401 18.8477 82.7071 24.4101 82.7025H40.5347ZM122.068 40.1182C121.616 39.7865 121.052 39.6393 120.493 39.7072C119.933 39.775 119.422 40.0528 119.066 40.4826C118.709 40.9123 118.535 41.4609 118.58 42.0139C118.624 42.567 118.884 43.0817 119.304 43.451C122.495 46.0275 124.798 49.5112 125.9 53.4255C127.003 57.3398 126.849 61.4936 125.462 65.3189C124.074 69.1442 121.519 72.4541 118.148 74.7961C114.776 77.1381 110.751 78.3978 106.625 78.4029H49.4878C48.9292 78.433 48.4035 78.6726 48.0189 79.0725C47.6343 79.4723 47.4199 80.0021 47.4199 80.5527C47.4199 81.1033 47.6343 81.6331 48.0189 82.0329C48.4035 82.4328 48.9292 82.6724 49.4878 82.7025H106.625C111.654 82.6982 116.558 81.1644 120.667 78.311C124.777 75.4576 127.89 71.4241 129.58 66.7624C131.271 62.1008 131.456 57.0388 130.112 52.2693C128.767 47.4998 125.958 43.2558 122.068 40.1182Z" fill="white"/>
</svg>
