<svg width="159" height="113" viewBox="0 0 159 113" fill="none" xmlns="http://www.w3.org/2000/svg">
<path d="M108.409 48.4286C120.406 48.4286 130.019 37.6129 130.019 24.2143C130.019 10.8157 120.406 0 108.409 0C96.4118 0 86.7273 10.8157 86.7273 24.2143C86.7273 37.6129 96.4118 48.4286 108.409 48.4286ZM50.5909 48.4286C62.5882 48.4286 72.2004 37.6129 72.2004 24.2143C72.2004 10.8157 62.5882 0 50.5909 0C38.5936 0 28.9091 10.8157 28.9091 24.2143C28.9091 37.6129 38.5936 48.4286 50.5909 48.4286ZM50.5909 64.5714C33.7514 64.5714 0 74.015 0 92.8214V104.929C0 109.368 3.25227 113 7.22727 113H93.9545C97.9295 113 101.182 109.368 101.182 104.929V92.8214C101.182 74.015 67.4305 64.5714 50.5909 64.5714ZM108.409 64.5714C106.313 64.5714 103.928 64.7329 101.399 64.975C101.543 65.0557 101.615 65.2171 101.688 65.2979C109.927 71.9971 115.636 80.9564 115.636 92.8214V104.929C115.636 107.754 115.13 110.498 114.335 113H151.773C155.748 113 159 109.368 159 104.929V92.8214C159 74.015 125.249 64.5714 108.409 64.5714Z" fill="white"/>
</svg>
