<svg width="972" height="725" viewBox="0 0 972 725" fill="none" xmlns="http://www.w3.org/2000/svg">
<g clip-path="url(#clip0_333_977)">
<path d="M782.209 80.9716C850.714 152.423 805.34 200.443 820.297 256.107C835.254 311.77 850.954 303.159 855.664 333.49C867.074 406.939 835.074 423.121 820.105 447.556C805.136 471.991 795.333 521.495 828.459 547.999C846.999 562.83 884.427 659.326 778.902 679.694C673.376 700.063 519.12 626.196 455.697 651.181C355.336 690.734 349.344 609.092 269.322 657.974C186.986 708.256 107.108 608.494 123.755 546.647C137.885 494.165 165.929 516.783 137.357 443.466C108.786 370.149 176.811 405.456 172.724 345.714C168.638 285.972 112.861 222.163 129.196 178.723C145.519 135.283 181.809 139.326 197.892 128.358C222.677 111.435 199.942 85.05 232.588 63.3301C265.235 41.6101 325.099 85.05 361.832 55.1851C398.565 25.3201 431.212 -22.1984 473.386 11.7451C515.561 45.6885 527.809 90.492 563.176 83.6985C598.543 76.905 734.031 30.7262 782.209 80.9835V80.9716Z" fill="#A7E4CB"/>
<path d="M837.196 600.553C860.83 600.84 888.371 590.793 911.621 595.41C924.349 597.933 943.213 606.353 954.886 612.429C961.598 615.922 978.149 621.435 969.604 629.652C963.455 635.573 929.838 656.3 921.485 659.41C900.416 667.255 867.074 661.67 848.162 649.841C834.739 641.445 828.675 632.487 811.405 629.712C773.761 623.672 755.064 675.568 732.257 696.75C728.674 700.075 724.527 701.677 721.243 697.12C716.833 690.997 725.438 687.373 728.422 683.737C747.142 660.893 771.064 624.844 767.936 593.819C766.917 583.701 760.745 571.645 758.648 561.179C751.589 525.98 765.539 502.023 782.785 472.589C786.548 466.166 812.555 422.87 815.396 421.853C817.936 420.944 817.924 422.14 819.147 423.695C823.018 428.623 834.2 454.541 836.872 461.657C851.026 499.428 827.141 518.397 810.566 549.35L801.757 572.661C813.418 563.416 824.936 553.501 835.482 542.964C846.268 532.187 853.939 519.45 867.098 510.013C886.669 495.995 926.039 491.726 949.865 492.934C951.842 493.029 952.789 491.953 953.604 494.823C954.347 497.466 933.41 539.292 930.126 544.459C909.74 576.512 867.937 582.792 837.148 600.541L837.196 600.553ZM792.253 608.112C803.003 595.804 818.452 591.14 830.892 581.308C844.231 570.747 854.107 557.22 868.105 547.21C885.974 534.424 908.781 527.236 925.272 512.465C923.139 511.305 921.005 512.859 919.136 513.768C899.816 523.205 866.667 543.322 850.978 557.495C845.226 562.698 839.905 569.922 833.613 575.376C819.578 587.54 801.218 593.209 788.694 607.382C788.634 594.632 784.104 582.313 783.612 569.683C782.042 529.448 820.154 496.725 813.035 454.756C809.583 462.148 810.686 471.429 809.02 479.801C802.967 510.204 779.693 537.522 779.981 567.817C780.077 577.362 783.372 586.846 784.583 595.864C785.074 599.572 783.72 610.91 785.578 612.967C787.987 615.611 791.57 612.023 793.847 612.118C822.898 613.362 853.807 628.767 882.438 629.736C897.048 630.226 910.255 625.538 924.289 625.179C933.637 624.94 943.285 628.073 952.441 625.921C927.333 616.436 901.878 628.612 876.278 626.076C860.243 624.485 847.779 619.055 832.654 615.706C819.183 612.716 805.472 611.891 792.241 608.124L792.253 608.112Z" fill="#358561"/>
<path d="M476.189 725.012C670.92 725.012 828.781 704.707 828.781 679.658C828.781 654.61 670.92 634.305 476.189 634.305C281.458 634.305 123.598 654.61 123.598 679.658C123.598 704.707 281.458 725.012 476.189 725.012Z" fill="#358561"/>
<path d="M231.085 424.437C233.122 422.404 235.076 413.684 235.076 413.684C235.076 413.684 237.029 422.415 239.067 424.437C241.104 426.458 249.841 428.42 249.841 428.42C249.841 428.42 241.092 430.369 239.067 432.402C237.041 434.436 235.076 443.155 235.076 443.155C235.076 443.155 233.122 434.424 231.085 432.402C229.047 430.381 220.311 428.42 220.311 428.42C220.311 428.42 229.059 426.47 231.085 424.437Z" fill="white"/>
<path d="M782.421 397.478C784.458 395.445 786.412 386.726 786.412 386.726C786.412 386.726 788.365 395.457 790.403 397.478C792.44 399.499 801.177 401.461 801.177 401.461C801.177 401.461 792.428 403.41 790.403 405.444C788.377 407.477 786.412 416.196 786.412 416.196C786.412 416.196 784.458 407.465 782.421 405.444C780.383 403.422 771.646 401.461 771.646 401.461C771.646 401.461 780.395 399.511 782.421 397.478Z" fill="white"/>
<path d="M188.613 451.012C191.609 448.022 194.497 423.695 194.497 423.695C194.497 423.695 197.386 448.022 200.382 451.012C203.378 454.003 226.844 456.885 226.844 456.885C226.844 456.885 203.378 459.767 200.382 462.758C197.386 465.748 194.497 490.099 194.497 490.099C194.497 490.099 191.609 465.748 188.613 462.758C185.617 459.767 160.305 456.885 160.305 456.885C160.305 456.885 185.617 454.003 188.613 451.012Z" fill="white"/>
<path d="M223.885 374.048C239.669 396.545 260.271 380.626 279.614 391.211C275.48 393.005 270.746 391.785 266.491 393.22C251.486 398.303 245.182 415.921 265.508 413.158C273.394 412.082 285.02 403.123 287.548 395.636L302.278 405.874C288.363 407.094 279.111 408.613 273.358 423.265C286.757 434.627 302.038 422.427 310.223 410.288L327.17 424.771L313.124 423.229C301.379 423.767 290.101 434.734 289.646 446.599C307.215 452.496 319.608 442.856 332.108 431.601L350.085 451.431L336.494 447.221C326.786 446.085 317.223 449.027 310.523 456.407C303.44 464.205 300.696 469.718 311.937 473.319C323.227 476.943 343.973 465.903 351.859 457.662C360.727 464.013 362.249 475.926 369.069 484.071L350.181 476.787C333.714 473.893 323.443 483.281 314.31 495.888C329.974 512.058 355.011 500.409 370.854 490.254L379.783 515.443C381.82 507.609 377.122 497.024 373.563 490.003C385.584 480.339 400.888 473.366 406.209 457.806C409.937 446.898 409.194 441.361 396.945 443.442C380.119 446.312 368.829 459.851 370.423 477.002C367.666 476.01 357.06 456.61 357.192 455.211C365.15 448.549 389.239 423.91 381.569 412.871C377.35 406.795 362.058 415.825 358.342 419.7C349.653 428.778 351.056 436.182 351.08 447.532L334.409 428.623C346.525 416.184 359.637 403.47 351.894 384.956C339.61 388.783 329.926 395.708 328.692 409.498C328.225 414.749 330.418 418.11 330.166 422.631L312.525 407.596C323.503 397.167 332.707 381.834 319.691 369.156C311.398 374.753 305.442 381.798 305.909 392.323C306.101 396.784 309.456 400.36 308.486 404.104L289.993 392.957C297.004 379.131 300.708 364.025 285.607 354.098C278.2 360.832 275.36 371.177 279.279 380.494C280.921 384.405 285.247 387.599 284.66 390.792C281.184 386.463 274.461 386.295 270.686 383.508C263.89 378.497 260.882 369.216 250.432 365.699C243.564 363.391 228.487 368.115 223.873 374.06L223.885 374.048Z" fill="#249A81"/>
<path d="M591.529 480.052L609.17 448.752C594.573 444.458 576.727 435.428 571.166 420.179C562.477 396.33 592.296 386.14 605.131 414.378C609.398 423.755 608.882 430.536 610.644 439.638C611.136 442.174 609.781 444.458 613.664 442.533L637.814 410.933C626.248 406.066 614.443 402.777 606.21 392.383C587.466 368.69 611.363 347.137 630.012 369.981C639.719 381.87 639.875 392.251 642.056 406.676L667.368 386.881C651.584 381.14 622.845 345.821 643.135 333.43C668.818 317.738 677.735 366.955 670.185 384.059C689.144 378.114 685.441 358.535 697.126 346.096C716.098 325.919 740.391 337.437 727.987 359.97C716.566 380.71 690.666 375.555 673.037 386.893L699.871 393.782C712.443 398.997 728.167 415.718 714.612 427.857C695.52 444.961 670.748 406.568 670.185 389.716C661.987 397.036 651.632 402.346 645.736 412.046C661.004 413.003 696.923 429.328 689.216 449.039C682.002 467.494 654.041 453.405 649.774 440.751L641.517 416.28C630.791 424.891 620.867 437.127 615.103 449.577C630.323 443.932 676.453 458.296 663.689 479.969C649.954 503.303 615.198 470.472 612.286 452.424L594.669 483.724C607.456 486.08 620.364 483.21 632.456 489.824C662.382 506.198 641.169 536.78 613.569 516.507C604.316 509.714 598.132 499.38 594.357 488.52C588.58 493.221 589.251 510.587 586.303 514.761C585.189 516.34 582.612 514.725 582.312 514.151C580.239 510.097 590.845 485.757 589.299 484.633C575.265 482.983 559.733 478.916 550.613 467.482C535.44 448.465 553.609 429.424 572.425 443.394C574.211 444.721 582.312 452.807 582.696 453.919L591.529 480.088V480.052Z" fill="#2CAB8E"/>
<path d="M807.937 473.725C808.249 475.352 796.575 490.661 794.646 494.01C782.745 514.773 776.872 532.977 756.882 548.98C741.062 561.646 720.244 560.749 702.723 568.463C695.556 571.609 689.216 576.991 681.797 580.053C674.379 583.114 665.007 582.397 659.038 587.982C665.342 587.851 673.492 589.92 679.34 589.8C716.517 589.035 735.633 572.829 770.449 598.794C774.212 601.605 790.307 611.963 785.298 616.448C782.529 618.912 741.182 630.98 734.758 632.355C705.611 638.575 682.552 613.29 658.415 600.84C641.469 592.097 637.238 602.933 623.348 611.329C636.159 612.178 649.367 614.618 659.661 623.026C665.534 627.822 687.562 653.525 687.934 659.864C688.329 666.729 684.027 661.945 679.388 662.196C660.141 663.237 649.343 672.674 632.037 655.893C620.028 644.244 608.702 609.702 591.312 634.054C586.638 640.596 585.632 655.259 580.994 658.62C568.685 654.027 567.475 649.817 573.635 638.957C581.305 625.454 599.953 612.274 602.434 595.972C603.034 592.049 597.58 577.074 595.591 572.613C590.473 561.119 578.956 547.114 579.915 534.173C580.97 520.024 600.996 482.994 611.495 473.402C613.82 471.273 622.784 464.576 625.121 468.176C618.074 494.823 639.024 515.527 639.995 540.679C640.762 560.497 625.493 577.673 617.535 594.74C616.72 596.486 614.563 599.082 618.398 599.022C620.064 598.998 643.206 582.516 645.819 580.065C673.384 554.087 654.472 504.427 679.352 474.347C686.687 465.485 707.385 446.85 717.464 441.648C719.118 440.786 721.251 440.667 722.366 442.401C723.636 444.375 725.254 484.537 724.655 489.106C720.197 522.882 687.238 538.73 671.479 566.502C670.568 568.116 668.039 570.52 670.112 571.991C674.714 567.985 680.934 565.449 685.501 561.538C707.121 543.023 721.874 509.259 747.042 493.424C761.927 484.047 786.628 480.22 802.424 470.771C804.401 469.85 807.733 472.649 807.949 473.761L807.937 473.725Z" fill="#298089"/>
<path d="M288.313 541.827C287.415 543.633 290.878 545.667 292.065 546.36C301.485 551.814 310.437 553.525 320.612 560.832C354.254 585.028 351.833 603.375 368.599 634.747C372.974 642.916 377.816 648.657 384.156 655.355C359.371 656.168 341.142 637.403 318.587 630.346C307.249 626.806 292.916 626.889 282.105 622.799C268.035 617.465 256.973 607.191 244.102 599.931C242.987 599.309 233.927 594.453 236.012 598.639C248.632 603.22 259.083 613.291 270.348 619.63C286.396 628.66 305.5 627.069 322.362 633.587C341.07 640.811 357.681 654.47 378.031 656.994C378.93 659.254 370.289 659.23 368.671 659.685C361.516 661.658 354.134 665.294 347.003 666.933C338.086 668.978 331.327 668.44 322.518 668.499C320.948 668.499 318.12 668.655 321.307 670.234C329.265 670.772 337.247 670.664 345.097 669.253C355.8 667.339 371.907 659.17 382.058 659.625C388.794 659.924 378.822 669.719 376.294 671.705C358.232 685.866 333.316 676.943 313.218 678.02C301.724 678.642 277.287 687.827 272.541 671.501C269.425 660.785 283.136 656.228 291.549 656.121C298.74 656.025 321.283 661.407 325.43 659.936C332.957 657.257 326.796 647.09 321.907 644.136C307.861 635.644 284.478 642.27 271.906 637.678C262.342 634.185 264.32 625 260.329 624.162C254.84 623.026 238.061 635.967 229.972 637.702C220.815 639.663 197.601 636.183 206.434 623.684C213.181 614.14 233.267 616.113 235.257 613.578C238.301 609.714 227.275 608.267 225.31 607.956C212.69 605.971 196.354 608.028 184.573 603.662C179.072 601.617 166.572 596.08 168.825 588.616C173.739 572.374 206.146 587.36 216.489 589.693C219.653 590.41 229.205 591.75 224.914 586.75C219.952 580.95 191.237 568.08 200.345 557.89C210.281 546.779 242.172 570.006 249.639 578.438C254.996 584.478 266.489 606.497 275.058 605.803C282.129 605.241 267.376 580.603 277.431 579.012C295.636 576.13 303.33 611.664 314.62 619.893C321.811 625.143 344.45 637.929 342.532 619.414C340.603 600.792 310.389 594.585 307.046 585.423C306.758 584.634 307.058 576.823 307.489 575.962C308.855 573.247 316.765 571.047 309.982 566.083C305.14 562.543 277.323 559.433 268.85 556.897C259.862 554.206 250.861 551.288 244.857 543.466C238.852 535.644 241.573 528.217 251.34 526.136C255.667 525.215 274.159 528.193 262.043 520.753C247.757 511.974 227.047 509.08 218.334 493.544C210.796 480.1 220.132 475.161 232.752 476.237C253.102 477.983 276.868 494.225 289.883 509.606C295.888 516.699 307.01 537.653 315.051 540.392C321.559 542.605 318.024 528.587 318.767 524.856C320.421 516.507 328.211 512.931 335.054 518.469C346.643 527.834 340.567 557.675 350.682 567.626C367.485 584.179 355.644 541.804 372.578 546.372C385.546 549.865 388.614 583.916 389.633 595.553C390.268 602.849 392.065 650.14 387.14 652.102C384.887 651.564 385.174 649.698 384.455 648.107C376.905 631.398 381.387 613.661 378.738 596.534C378.283 593.568 376.162 583.725 374.628 581.859C374.268 581.416 373.01 580.711 372.782 581.596C382.262 603.806 373.309 627.559 382.861 649.973C363.901 632.427 362.667 604.667 347.099 583.988C342.005 577.218 324.843 559.852 317.832 556.383L288.349 541.78L288.313 541.827Z" fill="#68B0BC"/>
<path d="M543.783 314.724H428.813C408.573 314.724 392.164 331.1 392.164 351.299V658.572C392.164 678.772 408.573 695.147 428.813 695.147H543.783C564.024 695.147 580.433 678.772 580.433 658.572V351.299C580.433 331.1 564.024 314.724 543.783 314.724Z" fill="#095E58"/>
<path d="M530.348 318.456H415.378C397.123 318.456 382.324 333.225 382.324 351.443V658.716C382.324 676.934 397.123 691.702 415.378 691.702H530.348C548.603 691.702 563.402 676.934 563.402 658.716V351.443C563.402 333.225 548.603 318.456 530.348 318.456Z" fill="#A7D4DF"/>
<path d="M530.348 322.044C546.587 322.044 559.806 335.236 559.806 351.443V658.716C559.806 674.922 546.587 688.114 530.348 688.114H415.378C399.139 688.114 385.919 674.922 385.919 658.716V351.443C385.919 335.236 399.139 322.044 415.378 322.044H530.348ZM530.348 314.868H415.378C395.136 314.868 378.729 331.242 378.729 351.443V658.716C378.729 678.917 395.136 695.291 415.378 695.291H530.348C550.59 695.291 566.997 678.917 566.997 658.716V351.443C566.997 331.242 550.59 314.868 530.348 314.868Z" fill="#297571"/>
<path d="M491.577 336.564H454.149C450.058 336.564 446.742 339.871 446.742 343.95C446.742 348.028 450.058 351.335 454.149 351.335H491.577C495.668 351.335 498.984 348.028 498.984 343.95C498.984 339.871 495.668 336.564 491.577 336.564Z" fill="#297571"/>
<path d="M519.646 671.047H426.069C425.076 671.047 424.272 671.85 424.272 672.841C424.272 673.832 425.076 674.635 426.069 674.635H519.646C520.639 674.635 521.444 673.832 521.444 672.841C521.444 671.85 520.639 671.047 519.646 671.047Z" fill="#297571"/>
<path d="M511.214 500.934L446.359 479.178C444.332 478.498 442.137 479.586 441.456 481.609L438.81 489.465C438.128 491.488 439.219 493.678 441.246 494.358L506.1 516.115C508.127 516.794 510.322 515.706 511.003 513.684L513.65 505.827C514.331 503.805 513.24 501.614 511.214 500.934Z" fill="#298089"/>
<path d="M467.842 497.207L482.873 452.584C484.282 448.401 488.836 446.143 493.027 447.549C497.231 448.96 499.482 453.5 498.073 457.683L483.042 502.306C482.363 504.324 480.162 505.415 478.14 504.737L470.267 502.096C468.245 501.417 467.151 499.221 467.831 497.203L467.842 497.207Z" fill="#298089"/>
<path d="M443.373 497.526C444.02 510.288 430.801 519.246 420.41 540.583C419.391 542.677 429.243 543.55 429.243 543.55L436.122 531.386L438.974 532.343L432.095 544.506L443.121 548.202L448.478 540.524L451.33 541.481L445.973 549.159L454.291 551.946L461.17 539.782L464.022 540.739L457.143 552.903L465.461 555.689L470.818 548.011L473.67 548.968L468.313 556.646C468.313 556.646 477.05 562.076 479.447 560.378C496.573 548.238 501.091 526.219 502.41 517.321L443.361 497.502L443.373 497.526Z" fill="#298089"/>
<g style="mix-blend-mode:multiply">
<mask id="mask0_333_977" style="mask-type:luminance" maskUnits="userSpaceOnUse" x="379" y="314" width="189" height="382">
<path d="M531.281 314.724H416.311C396.071 314.724 379.662 331.099 379.662 351.299V658.572C379.662 678.772 396.071 695.147 416.311 695.147H531.281C551.522 695.147 567.931 678.772 567.931 658.572V351.299C567.931 331.099 551.522 314.724 531.281 314.724Z" fill="white"/>
</mask>
<g mask="url(#mask0_333_977)">
<path d="M566.579 309.43L341.268 534.283L363.394 556.365L588.706 331.512L566.579 309.43Z" fill="#E1FBFF"/>
<path d="M573.379 371.551L312.779 631.62L375.847 694.559L636.446 434.49L573.379 371.551Z" fill="#E1FBFF"/>
</g>
</g>
<path d="M479.051 585.112C480.214 583.952 481.34 578.94 481.34 578.94C481.34 578.94 482.467 583.952 483.63 585.112C484.792 586.272 489.814 587.396 489.814 587.396C489.814 587.396 484.792 588.521 483.63 589.681C482.467 590.841 481.34 595.852 481.34 595.852C481.34 595.852 480.214 590.841 479.051 589.681C477.889 588.521 472.867 587.396 472.867 587.396C472.867 587.396 477.889 586.272 479.051 585.112Z" fill="#68B0BC"/>
<path d="M503.046 557.591C504.652 555.988 506.198 549.111 506.198 549.111C506.198 549.111 507.744 556 509.35 557.591C510.956 559.182 517.847 560.737 517.847 560.737C517.847 560.737 510.944 562.28 509.35 563.882C507.756 565.485 506.198 572.362 506.198 572.362C506.198 572.362 504.652 565.473 503.046 563.882C501.44 562.292 494.549 560.737 494.549 560.737C494.549 560.737 501.452 559.194 503.046 557.591Z" fill="#68B0BC"/>
<path d="M415.702 447.257C418.063 444.901 420.328 434.771 420.328 434.771C420.328 434.771 422.605 444.901 424.954 447.257C427.303 449.613 437.466 451.874 437.466 451.874C437.466 451.874 427.315 454.146 424.954 456.49C422.593 458.835 420.328 468.977 420.328 468.977C420.328 468.977 418.051 458.847 415.702 456.49C413.352 454.134 403.189 451.874 403.189 451.874C403.189 451.874 413.341 449.601 415.702 447.257Z" fill="#68B0BC"/>
<path d="M532.948 320.908C537.514 316.351 541.9 279.274 541.9 279.274C541.9 279.274 546.299 316.351 550.853 320.908C555.407 325.465 591.182 329.842 591.182 329.842C591.182 329.842 555.419 334.232 550.853 338.777C546.287 343.334 541.9 380.447 541.9 380.447C541.9 380.447 537.502 343.334 532.948 338.777C528.394 334.22 489.803 329.842 489.803 329.842C489.803 329.842 528.382 325.453 532.948 320.908Z" fill="white"/>
<path d="M341.764 329.866C345.915 329.866 349.279 326.509 349.279 322.367C349.279 318.225 345.915 314.868 341.764 314.868C337.614 314.868 334.25 318.225 334.25 322.367C334.25 326.509 337.614 329.866 341.764 329.866Z" fill="white"/>
<path d="M279.493 707.43C283.643 707.43 287.007 704.073 287.007 699.931C287.007 695.79 283.643 692.432 279.493 692.432C275.343 692.432 271.979 695.79 271.979 699.931C271.979 704.073 275.343 707.43 279.493 707.43Z" fill="white"/>
<path d="M757.889 431.194C762.04 431.194 765.404 427.837 765.404 423.695C765.404 419.554 762.04 416.196 757.889 416.196C753.739 416.196 750.375 419.554 750.375 423.695C750.375 427.837 753.739 431.194 757.889 431.194Z" fill="white"/>
<path d="M793.927 455.079C798.077 455.079 801.441 451.722 801.441 447.58C801.441 443.438 798.077 440.081 793.927 440.081C789.776 440.081 786.412 443.438 786.412 447.58C786.412 451.722 789.776 455.079 793.927 455.079Z" fill="white"/>
<path d="M365.975 530.393C368.013 528.36 369.966 519.641 369.966 519.641C369.966 519.641 371.92 528.372 373.957 530.393C375.995 532.415 384.732 534.376 384.732 534.376C384.732 534.376 375.983 536.326 373.957 538.359C371.932 540.392 369.966 549.111 369.966 549.111C369.966 549.111 368.013 540.38 365.975 538.359C363.938 536.338 355.201 534.376 355.201 534.376C355.201 534.376 363.95 532.427 365.975 530.393Z" fill="white"/>
<path d="M677.518 314.725C681.424 314.725 684.589 311.565 684.589 307.668C684.589 303.771 681.424 300.611 677.518 300.611C673.613 300.611 670.447 303.771 670.447 307.668C670.447 311.565 673.613 314.725 677.518 314.725Z" stroke="white" stroke-width="2.3642" stroke-miterlimit="10"/>
<path d="M249.123 670.473C246.714 672.877 244.389 683.258 244.389 683.258C244.389 683.258 242.064 672.889 239.655 670.473C237.247 668.069 226.844 665.748 226.844 665.748C226.844 665.748 237.235 663.428 239.655 661.024C242.076 658.62 244.389 648.239 244.389 648.239C244.389 648.239 246.714 658.608 249.123 661.024C251.532 663.44 261.935 665.748 261.935 665.748C261.935 665.748 251.544 668.069 249.123 670.473Z" fill="white"/>
<path d="M149.485 535.393C159.384 512.68 166.791 494.345 188.771 480.148C207.287 468.188 213.687 469.312 226.451 488.413C197.124 502.023 162.931 528.791 163.722 563.751C174.149 556.012 182.143 545.272 194.032 539.34C216.983 527.882 255.646 527.93 262.633 558.333C254.183 558.345 246.214 555.032 237.608 554.577C215.401 553.429 202.038 558.835 185.151 572.613C184.408 573.211 184.756 575.34 184.444 575.615C181.807 578.031 177.313 579.144 173.682 584.035C163.075 598.328 168.193 638.575 172.124 655.451C173.67 662.089 183.641 683.45 178.979 687.875C175.923 690.77 166.563 693.76 163.243 690.279C159.252 686.093 154.602 664.134 151.678 656.742C144.906 639.567 131.088 616.269 111.445 612.489C80.0568 606.437 61.8759 635.776 36.3724 648.514C27.3838 651.623 33.1485 632.08 34.9702 628.014C45.0613 605.516 74.2802 595.075 96.1883 588.568C101.821 586.894 107.31 587.994 112.703 583.402C92.6289 553.297 64.8362 563.272 36.2405 574.814C26.9164 578.582 12.9302 589.083 4.62475 591.403C2.6952 591.941 1.88024 591.666 0.442067 590.303C-3.27321 572.793 17.041 559.409 31.171 553.812C58.724 542.892 80.4523 544.124 107.322 555.689C90.3398 521.961 54.7211 517.596 21.1158 513.78C16.5855 510.408 35.3297 499.452 38.0383 498.244C64.4167 486.463 89.6806 500.648 108.7 518.828C113.866 523.767 117.689 532.259 124.892 534.544C121.153 514.355 120.601 454.003 142.306 444.243C144.894 443.071 162.272 440.954 164.693 441.396C167.845 441.982 166.143 442.951 165.688 444.578C164.418 449.087 159.755 455.115 157.79 460.21C148.382 484.597 142.797 509.403 149.509 535.393H149.485Z" fill="#358561"/>
<mask id="mask1_333_977" style="mask-type:luminance" maskUnits="userSpaceOnUse" x="261" y="36" width="102" height="94">
<path d="M360.272 83.7634L296.929 37.6329C294.282 35.7054 290.571 36.2841 288.64 38.9253L263.072 73.8898C261.141 76.5311 261.721 80.2347 264.367 82.1621L327.711 128.293C330.357 130.22 334.069 129.641 336 127L361.567 92.0357C363.499 89.3945 362.919 85.6908 360.272 83.7634Z" fill="white"/>
</mask>
<g mask="url(#mask1_333_977)">
<path d="M360.272 83.7634L296.929 37.6329C294.282 35.7054 290.571 36.2841 288.64 38.9253L263.072 73.8898C261.141 76.5311 261.721 80.2347 264.367 82.1621L327.711 128.293C330.357 130.22 334.069 129.641 336 127L361.567 92.0357C363.499 89.3945 362.919 85.6908 360.272 83.7634Z" fill="#68B0BC"/>
<path d="M363.076 83.7942L312.32 82.957" stroke="#298089" stroke-width="2.51787" stroke-miterlimit="10" stroke-linecap="round"/>
<path d="M296.141 35.295L312.32 82.9569" stroke="#298089" stroke-width="2.51787" stroke-miterlimit="10" stroke-linecap="round"/>
<path d="M323.023 83.2559L328.033 131.253" stroke="#298089" stroke-width="2.51787" stroke-miterlimit="10" stroke-linecap="round"/>
<path d="M308.078 73.4484L259.863 83.0047" stroke="#298089" stroke-width="2.57698" stroke-miterlimit="10" stroke-linecap="round"/>
</g>
<path d="M696.937 181.456L636.85 209.981C632.475 212.058 630.615 217.281 632.696 221.648L655.122 268.695C657.203 273.062 662.437 274.918 666.813 272.841L726.9 244.316C731.275 242.239 733.135 237.015 731.054 232.649L708.628 185.601C706.547 181.235 701.313 179.379 696.937 181.456Z" fill="#68B0BC"/>
<path d="M708.619 210.645L719.657 186.904C721.227 183.531 726.021 183.507 727.627 186.868L742.008 217.032C743.614 220.393 740.57 224.089 736.951 223.18L711.531 216.745C708.859 216.064 707.456 213.133 708.619 210.645Z" fill="#68B0BC"/>
<mask id="mask2_333_977" style="mask-type:luminance" maskUnits="userSpaceOnUse" x="501" y="36" width="101" height="94">
<path d="M573.932 36.6367L501.435 69.2728L528.565 129.291L601.061 96.6544L573.932 36.6367Z" fill="white"/>
</mask>
<g mask="url(#mask2_333_977)">
<path d="M573.298 38.2711L503.074 69.8843L529.178 127.634L599.402 96.0212L573.298 38.2711Z" fill="#68B0BC"/>
<path d="M572.689 39.9114L597.773 95.3954L529.819 125.99L504.735 70.506L572.689 39.9114ZM573.935 36.6343L501.439 69.274L528.561 129.291L601.057 96.6513L573.935 36.6343Z" fill="#298089"/>
<path d="M556.94 61.6915L542.93 120.608L610.464 90.2049L556.94 61.6915Z" fill="#298089"/>
<path d="M531.713 99.3545L524.666 128.992L558.643 113.695L531.713 99.3545Z" fill="#298089"/>
<path d="M529.521 86.0427C533.155 86.0427 536.101 83.1029 536.101 79.4764C536.101 75.85 533.155 72.9102 529.521 72.9102C525.887 72.9102 522.941 75.85 522.941 79.4764C522.941 83.1029 525.887 86.0427 529.521 86.0427Z" fill="#298089"/>
</g>
<path d="M451.876 183.141L420.999 194.847C403.228 201.583 394.295 221.421 401.045 239.156C407.796 256.89 427.674 265.806 445.445 259.069L476.322 247.364C494.093 240.627 503.027 220.789 496.276 203.055C489.526 185.32 469.647 176.404 451.876 183.141Z" fill="#68B0BC"/>
<path d="M455.529 273.33L477.473 235.882L446.553 230.882L455.529 273.33Z" fill="#68B0BC"/>
<path d="M419.683 219.795L471.985 199.965" stroke="#298089" stroke-width="2.73065" stroke-miterlimit="10" stroke-linecap="round"/>
<path d="M423.756 230.512L476.069 210.681" stroke="#298089" stroke-width="2.73065" stroke-miterlimit="10" stroke-linecap="round"/>
<path d="M427.846 241.228L468.438 225.835" stroke="#298089" stroke-width="2.73065" stroke-miterlimit="10" stroke-linecap="round"/>
<path d="M299.043 286.139C298.779 286.139 298.515 286.103 298.264 286.044L243.134 272.983C242.259 272.78 241.516 272.241 241.036 271.476C240.557 270.71 240.413 269.801 240.629 268.928L257.312 198.757C257.671 197.226 259.026 196.162 260.596 196.162C260.859 196.162 261.123 196.197 261.375 196.257L316.636 209.342C318.338 209.749 319.393 211.459 318.997 213.157L302.327 283.544C301.967 285.075 300.613 286.139 299.043 286.139Z" fill="#68B0BC"/>
<path d="M260.595 196.843C260.799 196.843 261.015 196.867 261.218 196.915L316.48 210C317.822 210.323 318.649 211.662 318.338 213.002L301.667 283.388C301.379 284.608 300.301 285.469 299.042 285.469C298.827 285.469 298.623 285.445 298.419 285.398L243.289 272.337C242.582 272.17 241.995 271.739 241.611 271.129C241.228 270.519 241.12 269.789 241.288 269.096L257.971 198.924C258.258 197.704 259.337 196.843 260.595 196.843ZM260.595 195.492C258.762 195.492 257.096 196.748 256.652 198.601L239.969 268.773C239.454 270.95 240.796 273.126 242.978 273.641L298.108 286.701C298.419 286.773 298.743 286.809 299.042 286.809C300.876 286.809 302.542 285.553 302.985 283.699L319.656 213.313C320.148 211.244 318.865 209.186 316.804 208.696L261.542 195.611C261.23 195.54 260.907 195.504 260.607 195.504L260.595 195.492Z" fill="#298089"/>
<path d="M291.586 275.124C291.322 275.124 291.058 275.088 290.807 275.028L235.677 261.967C234.802 261.764 234.059 261.226 233.579 260.46C233.1 259.695 232.956 258.786 233.172 257.913L249.855 187.742C250.214 186.211 251.569 185.146 253.139 185.146C253.402 185.146 253.666 185.182 253.918 185.242L309.179 198.326C310.881 198.733 311.936 200.443 311.54 202.142L294.869 272.528C294.51 274.059 293.156 275.124 291.586 275.124Z" fill="#68B0BC"/>
<path d="M253.138 185.816C253.342 185.816 253.558 185.84 253.761 185.888L309.023 198.972C310.365 199.295 311.192 200.635 310.881 201.974L294.21 272.361C293.922 273.581 292.844 274.442 291.585 274.442C291.37 274.442 291.166 274.418 290.962 274.37L235.832 261.31C234.382 260.963 233.483 259.504 233.831 258.056L250.514 187.885C250.801 186.665 251.88 185.804 253.138 185.804M253.138 184.476C251.305 184.476 249.639 185.732 249.195 187.586L232.512 257.757C231.997 259.934 233.339 262.111 235.521 262.625L290.651 275.686C290.962 275.758 291.286 275.794 291.585 275.794C293.419 275.794 295.085 274.538 295.528 272.684L312.199 202.297C312.69 200.228 311.408 198.171 309.347 197.681L254.085 184.596C253.773 184.524 253.45 184.488 253.15 184.488L253.138 184.476Z" fill="#298089"/>
<path d="M284.875 264.67C284.611 264.67 284.348 264.635 284.096 264.575L228.966 251.514C227.156 251.084 226.03 249.266 226.461 247.46L243.144 177.288C243.504 175.757 244.858 174.693 246.428 174.693C246.691 174.693 246.955 174.729 247.207 174.788L295.625 186.258L303.248 198.59L288.147 262.075C287.787 263.606 286.433 264.67 284.863 264.67H284.875Z" fill="#68B0BC"/>
<path d="M246.416 175.375C246.619 175.375 246.835 175.398 247.039 175.446L295.194 186.856L302.528 198.721L287.499 261.932C287.212 263.151 286.133 264.013 284.875 264.013C284.659 264.013 284.455 263.989 284.251 263.941L229.122 250.88C228.414 250.713 227.827 250.282 227.444 249.672C227.06 249.062 226.952 248.333 227.12 247.639L243.803 177.468C244.091 176.248 245.169 175.386 246.428 175.386M246.416 174.023C244.582 174.023 242.916 175.279 242.473 177.133L225.79 247.304C225.274 249.481 226.617 251.658 228.798 252.172L283.928 265.233C284.239 265.304 284.563 265.34 284.863 265.34C286.696 265.34 288.362 264.084 288.806 262.231L303.966 198.47L296.044 185.66L247.35 174.131C247.039 174.059 246.715 174.023 246.416 174.023Z" fill="#298089"/>
<path d="M293.217 196.245L303.955 198.47L296.057 185.672L293.217 196.245Z" fill="#298089"/>
<path d="M252.063 188.328L291.912 197.764" stroke="#298089" stroke-width="1.99775" stroke-miterlimit="10" stroke-linecap="round"/>
<path d="M250.121 196.484L289.97 205.933" stroke="#298089" stroke-width="1.99775" stroke-miterlimit="10" stroke-linecap="round"/>
<path d="M248.178 204.653L288.027 214.09" stroke="#298089" stroke-width="1.99775" stroke-miterlimit="10" stroke-linecap="round"/>
<path d="M246.224 212.822L286.074 222.259" stroke="#298089" stroke-width="1.99775" stroke-miterlimit="10" stroke-linecap="round"/>
<path d="M244.283 220.991L284.133 230.428" stroke="#298089" stroke-width="1.99775" stroke-miterlimit="10" stroke-linecap="round"/>
<path d="M242.342 229.148L282.191 238.597" stroke="#298089" stroke-width="1.99775" stroke-miterlimit="10" stroke-linecap="round"/>
<path d="M240.4 237.317L280.25 246.754" stroke="#298089" stroke-width="1.99775" stroke-miterlimit="10" stroke-linecap="round"/>
<path d="M238.457 245.486L269.39 252.818" stroke="#298089" stroke-width="1.99775" stroke-miterlimit="10" stroke-linecap="round"/>
</g>
<defs>
<clipPath id="clip0_333_977">
<rect width="972" height="725" fill="white"/>
</clipPath>
</defs>
</svg>
