<svg width="103" height="89" viewBox="0 0 103 89" fill="none" xmlns="http://www.w3.org/2000/svg">
<g clip-path="url(#clip0_333_961)">
<path d="M52.5626 28.8385L9.95548 40.2551C7.53882 40.9026 6.25025 43.9314 7.07572 47.0121L10.4739 59.694C11.2993 62.7747 13.9296 64.7535 16.3463 64.1059L58.9534 52.6894L52.5626 28.8385Z" fill="#28948C"/>
<path d="M60.7545 39.4196C61.6163 42.636 64.9224 44.5448 68.1389 43.683C71.3554 42.8211 73.2642 39.515 72.4023 36.2985C71.5405 33.0821 68.2343 31.1733 65.0179 32.0351C61.8014 32.897 59.8926 36.2031 60.7545 39.4196Z" fill="#28948C"/>
<path d="M12.3117 55.7484C38.7654 49.0568 65.4653 69.671 65.4653 69.671C69.6554 70.7651 74.5233 67.4656 73.6308 64.1345L59.5482 11.5778C58.6557 8.24669 52.7902 7.82322 49.7085 10.8658C49.7085 10.8658 36.7805 42.2149 10.6374 49.4999C7.07559 50.4893 8.72653 56.6507 12.3117 55.7484Z" fill="#28948C"/>
<path d="M26.7468 58.5428L22.1857 59.765C20.382 60.2482 19.3117 62.1021 19.795 63.9058L24.9315 83.0757C25.4148 84.8793 27.2687 85.9497 29.0724 85.4664L33.6335 84.2442C35.4371 83.761 36.5075 81.9071 36.0242 80.1034L30.8876 60.9335C30.4044 59.1299 28.5505 58.0595 26.7468 58.5428Z" fill="#28948C"/>
<path d="M73.1861 25.0279L79.0273 14.9105" stroke="#28948C" stroke-width="2.25522" stroke-miterlimit="10" stroke-linecap="round"/>
<path d="M79.8981 34.103L91.1758 31.0812" stroke="#28948C" stroke-width="2.25522" stroke-miterlimit="10" stroke-linecap="round"/>
<path d="M78.6242 45.3299L88.7416 51.1712" stroke="#28948C" stroke-width="2.25522" stroke-miterlimit="10" stroke-linecap="round"/>
</g>
<defs>
<clipPath id="clip0_333_961">
<rect width="67.619" height="87.4089" fill="white" transform="translate(85.1035 0.44812) rotate(75)"/>
</clipPath>
</defs>
</svg>
