<svg width="140" height="140" viewBox="0 0 140 140" fill="none" xmlns="http://www.w3.org/2000/svg">
<path d="M70.0002 5.8125C70.0002 4.50299 70.5204 3.24712 71.4464 2.32116C72.3723 1.3952 73.6282 0.875 74.9377 0.875C83.3669 0.875 91.7136 2.53526 99.5012 5.76098C107.289 8.98671 114.365 13.7147 120.325 19.6751C126.285 25.6354 131.013 32.7114 134.239 40.499C137.465 48.2866 139.125 56.6333 139.125 65.0625C139.125 66.372 138.605 67.6279 137.679 68.5538C136.753 69.4798 135.497 70 134.188 70H74.9377C73.6282 70 72.3723 69.4798 71.4464 68.5538C70.5204 67.6279 70.0002 66.372 70.0002 65.0625V5.8125ZM60.1252 25.7798C60.1252 25.0939 59.9824 24.4155 59.7057 23.7879C59.429 23.1603 59.0247 22.5972 58.5183 22.1345C58.012 21.6718 57.4148 21.3197 56.7649 21.1006C56.1149 20.8815 55.4264 20.8003 54.7433 20.862C43.5297 21.8844 32.8396 26.081 23.9252 32.9602C15.0108 39.8393 8.24116 49.1163 4.40932 59.7044C0.577481 70.2925 -0.157917 81.7532 2.28926 92.7442C4.73645 103.735 10.2649 113.801 18.227 121.763C26.1891 129.725 36.2552 135.254 47.2461 137.701C58.2371 140.148 69.6979 139.413 80.2859 135.581C90.874 131.749 100.151 124.98 107.03 116.065C113.909 107.151 118.106 96.4606 119.128 85.247C119.189 84.5655 119.106 83.8789 118.887 83.2308C118.668 82.5827 118.317 81.9873 117.855 81.4822C117.394 80.9771 116.832 80.5734 116.207 80.2967C115.581 80.0201 114.905 79.8765 114.22 79.875H60.1252V25.7798Z" fill="white"/>
</svg>
