<svg width="250" height="237" viewBox="0 0 250 237" fill="none" xmlns="http://www.w3.org/2000/svg">
<path d="M249.099 118.5C249.099 131.062 232.653 140.888 228.952 152.235C225.25 163.583 232.48 181.517 225.312 191.307C218.144 201.096 198.983 199.612 189.051 206.801C179.119 213.989 174.863 232.501 163.043 236.316C151.643 239.996 137.183 227.631 124.55 227.631C111.916 227.631 97.4558 239.996 86.0558 236.316C74.6557 232.636 69.881 213.916 60.0478 206.801C50.2146 199.685 31.0171 201.182 23.7872 191.307C16.5573 181.432 23.9846 163.987 20.1475 152.235C16.3105 140.483 0 131.074 0 118.5C0 105.926 16.4462 96.112 20.1475 84.7647C23.8489 73.4174 16.6189 55.4825 23.7872 45.6932C30.9554 35.9038 50.1159 37.3882 60.0478 30.1995C69.881 23.0844 74.2362 4.49934 86.0558 0.684192C97.4558 -2.99602 111.916 9.36949 124.55 9.36949C137.183 9.36949 151.643 -2.99602 163.043 0.684192C174.443 4.3644 179.218 23.0844 189.051 30.1995C198.884 37.3146 218.082 35.8179 225.312 45.6932C232.542 55.5684 225.115 73.0126 228.952 84.7647C232.789 96.5169 249.099 105.926 249.099 118.5Z" fill="#A7E4CB"/>
</svg>
