<svg width="570" height="390" viewBox="0 0 570 390" fill="none" xmlns="http://www.w3.org/2000/svg">
<g clip-path="url(#clip0_333_1102)">
<path d="M285 390C442.401 390 570 372.865 570 351.727C570 330.59 442.401 313.455 285 313.455C127.599 313.455 0 330.59 0 351.727C0 372.865 127.599 390 285 390Z" fill="#7AB5B1"/>
<mask id="mask0_333_1102" style="mask-type:luminance" maskUnits="userSpaceOnUse" x="52" y="125" width="67" height="50">
<path d="M106.058 126.093L55.7204 138.88C53.6171 139.415 52.3439 141.558 52.8765 143.668L59.9271 171.601C60.4597 173.711 62.5965 174.988 64.6997 174.454L115.038 161.666C117.141 161.132 118.414 158.988 117.882 156.878L110.831 128.946C110.298 126.836 108.162 125.559 106.058 126.093Z" fill="white"/>
</mask>
<g mask="url(#mask0_333_1102)">
<path d="M106.058 126.093L55.7204 138.88C53.6171 139.415 52.3439 141.558 52.8765 143.668L59.9271 171.601C60.4597 173.711 62.5965 174.988 64.6997 174.454L115.038 161.666C117.141 161.132 118.414 158.988 117.882 156.878L110.831 128.946C110.298 126.836 108.162 125.559 106.058 126.093Z" fill="#68B0BC"/>
<path d="M107.274 124.68L85.3906 150.269" stroke="#298089" stroke-width="1.89" stroke-miterlimit="10" stroke-linecap="round"/>
<path d="M54.2051 138.294L85.3916 150.27" stroke="#298089" stroke-width="1.89" stroke-miterlimit="10" stroke-linecap="round"/>
<path d="M90.0684 144.931L116.701 162.764" stroke="#298089" stroke-width="1.89" stroke-miterlimit="10" stroke-linecap="round"/>
<path d="M78.7397 148.406L63.2402 177.113" stroke="#298089" stroke-width="1.94" stroke-miterlimit="10" stroke-linecap="round"/>
<path d="M85.6497 151.3L115.318 123.739L46.4902 141.223L85.6497 151.3Z" fill="#298089"/>
</g>
<path d="M78.3547 115.266L108.22 126.131L53.918 139.933L75.0245 116.117C75.8548 115.176 77.1851 114.836 78.3636 115.266H78.3547Z" fill="#298089"/>
<mask id="mask1_333_1102" style="mask-type:luminance" maskUnits="userSpaceOnUse" x="43" y="93" width="72" height="57">
<path d="M85.2035 149.517L114.863 121.948L101.899 93.5187L43.0352 108.477L46.0351 139.441L85.2035 149.517Z" fill="white"/>
</mask>
<g mask="url(#mask1_333_1102)">
<path d="M69.158 165.702C68.1491 165.702 67.2652 165.012 67.0152 164.027L55.4084 118.06C55.2656 117.487 55.3459 116.887 55.6495 116.376C55.953 115.866 56.4352 115.508 57.0066 115.364L88.5592 107.348L96.7196 112.22L107.219 153.807C107.362 154.38 107.282 154.981 106.978 155.482C106.675 155.993 106.193 156.351 105.621 156.494L69.6937 165.621C69.5151 165.666 69.3276 165.693 69.1491 165.693L69.158 165.702Z" fill="#68B0BC"/>
<path d="M88.4971 107.832L96.345 112.516L106.8 153.924C107.041 154.873 106.461 155.84 105.523 156.082L69.5959 165.209C69.453 165.245 69.3102 165.263 69.1584 165.263C68.3459 165.263 67.6495 164.717 67.4442 163.929L55.8374 117.962C55.7213 117.505 55.7927 117.021 56.0338 116.618C56.2749 116.215 56.6588 115.92 57.123 115.803L88.4971 107.832ZM88.6399 106.873L56.9088 114.934C55.4892 115.293 54.6321 116.744 54.9892 118.168L66.596 164.135C66.8995 165.344 67.9799 166.141 69.1673 166.141C69.3816 166.141 69.6048 166.114 69.8191 166.06L105.747 156.933C107.166 156.575 108.023 155.124 107.666 153.7L97.1218 111.934L88.6399 106.873Z" fill="#298089"/>
<path d="M90.2031 113.905L97.1046 111.943L88.6406 106.882L90.2031 113.905Z" fill="#298089"/>
<path d="M77.5527 140.783C76.6743 141.006 75.8621 141.085 75.116 141.02C74.3706 140.957 73.703 140.756 73.1133 140.416C72.5243 140.079 72.0225 139.611 71.6078 139.013C71.1931 138.415 70.8794 137.695 70.6666 136.852C70.4567 136.02 70.3901 135.234 70.4668 134.493C70.5464 133.752 70.7645 133.078 71.1212 132.472C71.4773 131.862 71.9678 131.339 72.5929 130.902C73.2207 130.464 73.9779 130.132 74.8645 129.907C75.685 129.699 76.4477 129.632 77.1525 129.708C77.8601 129.784 78.4942 129.986 79.055 130.315C79.6178 130.641 80.093 131.079 80.4807 131.628C80.8705 132.174 81.1568 132.815 81.3397 133.551C81.4704 134.057 81.5438 134.534 81.56 134.981C81.5763 135.429 81.5266 135.836 81.4111 136.202C81.2976 136.565 81.1072 136.879 80.8399 137.143C80.5719 137.404 80.218 137.604 79.7782 137.742C79.465 137.848 79.2003 137.891 78.984 137.869C78.7676 137.848 78.5894 137.781 78.4493 137.667C78.3113 137.549 78.2032 137.399 78.1249 137.217L78.0753 137.23C78.051 137.412 77.9594 137.595 77.8008 137.779C77.6414 137.96 77.4321 138.123 77.1727 138.268C76.9155 138.41 76.6288 138.51 76.3128 138.57C75.983 138.633 75.6555 138.636 75.3303 138.578C75.0078 138.519 74.702 138.393 74.413 138.2C74.1267 138.006 73.8722 137.741 73.6497 137.404C73.4298 137.067 73.2574 136.657 73.1322 136.173C73.014 135.693 72.9761 135.258 73.0186 134.869C73.0638 134.48 73.166 134.136 73.3251 133.837C73.4869 133.538 73.6868 133.285 73.9246 133.078C74.1624 132.871 74.4141 132.714 74.6798 132.605C74.9791 132.479 75.2737 132.404 75.5636 132.381C75.8535 132.357 76.1067 132.373 76.3231 132.43C76.5423 132.485 76.6905 132.568 76.7679 132.677L76.8258 132.662L76.709 132.2L78.0017 131.871L79.0196 135.904C79.0703 136.093 79.1502 136.23 79.2592 136.313C79.3683 136.397 79.493 136.421 79.6334 136.385C79.8234 136.337 79.9605 136.213 80.0448 136.013C80.1318 135.812 80.1631 135.53 80.1388 135.167C80.1173 134.803 80.0388 134.352 79.9032 133.815C79.7725 133.297 79.5889 132.86 79.3525 132.504C79.1182 132.145 78.8437 131.858 78.5291 131.645C78.2166 131.428 77.8774 131.274 77.5114 131.182C77.1454 131.091 76.7638 131.053 76.3664 131.069C75.9717 131.084 75.5762 131.142 75.1797 131.243C74.4941 131.417 73.9216 131.674 73.4623 132.013C73.0023 132.35 72.6489 132.749 72.402 133.21C72.1552 133.672 72.01 134.176 71.9665 134.723C71.9251 135.267 71.9777 135.836 72.1245 136.429C72.292 137.081 72.5289 137.636 72.8351 138.095C73.1434 138.55 73.5168 138.904 73.9555 139.156C74.3941 139.408 74.8945 139.556 75.4567 139.601C76.0188 139.646 76.6358 139.583 77.3077 139.412C77.6243 139.332 77.9282 139.229 78.2192 139.106C78.511 138.985 78.7711 138.86 78.9994 138.732C79.2285 138.606 79.4097 138.494 79.5431 138.396L80.2544 139.49C80.106 139.633 79.8939 139.785 79.6181 139.946C79.3457 140.109 79.0303 140.264 78.6717 140.411C78.3167 140.56 77.9437 140.684 77.5527 140.783ZM76.4199 137.096C76.7558 137.011 77.0065 136.878 77.1721 136.699C77.3404 136.518 77.4353 136.29 77.4567 136.015C77.4801 135.737 77.4418 135.411 77.3418 135.037C77.2556 134.708 77.1423 134.439 77.002 134.231C76.8638 134.02 76.6806 133.881 76.4524 133.812C76.2263 133.741 75.9384 133.75 75.5888 133.838C75.2831 133.916 75.0393 134.047 74.8572 134.231C74.6778 134.414 74.5613 134.637 74.5075 134.9C74.4557 135.159 74.4681 135.446 74.5446 135.761C74.6211 136.052 74.7378 136.317 74.8947 136.556C75.0509 136.792 75.2542 136.964 75.5044 137.074C75.754 137.18 76.0592 137.188 76.4199 137.096Z" fill="#298089"/>
</g>
<mask id="mask2_333_1102" style="mask-type:luminance" maskUnits="userSpaceOnUse" x="441" y="94" width="91" height="86">
<path d="M531.773 126.566L468.084 94.6682L441.708 147.671L505.397 179.569L531.773 126.566Z" fill="white"/>
</mask>
<g mask="url(#mask2_333_1102)">
<path d="M468.624 96.1816L443.244 147.181L504.937 178.079L530.316 127.079L468.624 96.1816Z" fill="#68B0BC"/>
<path d="M469.103 97.6567L528.806 127.555L504.423 176.558L444.719 146.66L469.103 97.6567ZM468.103 94.6561L441.729 147.663L505.423 179.558L531.797 126.552L468.103 94.6561Z" fill="#298089"/>
<path d="M504.761 128.97L455.879 152.724L515.216 182.442L504.761 128.97Z" fill="#298089"/>
<path d="M464.307 132.83L439.719 144.779L469.566 159.728L464.307 132.83Z" fill="#298089"/>
<path d="M476.887 125.916C480.141 125.916 482.779 123.269 482.779 120.004C482.779 116.739 480.141 114.093 476.887 114.093C473.632 114.093 470.994 116.739 470.994 120.004C470.994 123.269 473.632 125.916 476.887 125.916Z" fill="#298089"/>
</g>
<path d="M320.74 2.63301L302.405 57.9272C301.736 59.9456 302.824 62.1261 304.836 62.7975L386.149 89.9332C388.161 90.6046 390.334 89.5127 391.004 87.4944L409.339 32.2001C410.008 30.1818 408.92 28.0013 406.908 27.3299L325.595 0.194169C323.583 -0.477247 321.41 0.614654 320.74 2.63301Z" fill="#68B0BC"/>
<path d="M402.677 33.5785L325.296 7.75459C323.822 7.26274 322.23 8.06262 321.739 9.54119L306.104 56.6934C305.614 58.172 306.411 59.7693 307.885 60.2612L385.266 86.085C386.74 86.5769 388.333 85.777 388.823 84.2984L404.458 37.1462C404.949 35.6677 404.151 34.0703 402.677 33.5785Z" fill="#9ECDD6"/>
<path d="M329.527 7.47899C330.553 7.47899 331.384 6.64488 331.384 5.61596C331.384 4.58704 330.553 3.75293 329.527 3.75293C328.501 3.75293 327.67 4.58704 327.67 5.61596C327.67 6.64488 328.501 7.47899 329.527 7.47899Z" fill="#9ECDD6"/>
<path d="M334.857 9.26146C335.883 9.26146 336.714 8.42735 336.714 7.39843C336.714 6.36951 335.883 5.5354 334.857 5.5354C333.831 5.5354 333 6.36951 333 7.39843C333 8.42735 333.831 9.26146 334.857 9.26146Z" fill="#9ECDD6"/>
<path d="M340.187 11.0438C341.213 11.0438 342.044 10.2097 342.044 9.18078C342.044 8.15186 341.213 7.31775 340.187 7.31775C339.162 7.31775 338.33 8.15186 338.33 9.18078C338.33 10.2097 339.162 11.0438 340.187 11.0438Z" fill="#9ECDD6"/>
<path d="M382.073 49.0929L332.522 32.5564C329.167 31.4369 325.543 33.2576 324.427 36.6231C323.311 39.9885 325.126 43.6244 328.48 44.7439L378.032 61.2804C381.387 62.3999 385.011 60.5792 386.127 57.2137C387.243 53.8483 385.428 50.2124 382.073 49.0929Z" fill="#68B0BC"/>
<path d="M331.418 43.2639L331.789 36.4872L333.531 37.0686L333.109 41.5639L333.165 41.5828L335.552 37.7431L337.262 38.3137L336.904 42.8036L336.957 42.8212L339.279 38.9869L341.017 39.5669L337.271 45.2172L335.448 44.6088L335.677 40.3454L335.6 40.3198L333.237 43.8709L331.418 43.2639ZM341.1 46.495L341.471 39.7184L343.213 40.2998L342.791 44.795L342.848 44.8139L345.234 40.9743L346.944 41.5449L346.587 46.0348L346.639 46.0523L348.961 42.218L350.699 42.7981L346.954 48.4483L345.13 47.84L345.359 43.5766L345.282 43.5509L342.919 47.1021L341.1 46.495ZM350.782 49.7261L351.153 42.9495L352.895 43.5309L352.473 48.0262L352.53 48.0451L354.916 44.2054L356.626 44.776L356.269 49.2659L356.321 49.2834L358.643 45.4491L360.381 46.0292L356.636 51.6795L354.813 51.0711L355.041 46.8077L354.964 46.782L352.601 50.3332L350.782 49.7261ZM326.444 57.5339C326.177 57.4449 325.979 57.274 325.851 57.0214C325.726 56.767 325.707 56.5063 325.796 56.2394C325.883 55.9751 326.053 55.7801 326.304 55.6543C326.558 55.5294 326.818 55.5114 327.085 55.6005C327.344 55.6868 327.539 55.8567 327.67 56.1102C327.802 56.3637 327.824 56.6226 327.736 56.8869C327.677 57.0649 327.577 57.2127 327.436 57.3304C327.299 57.4464 327.143 57.5246 326.968 57.565C326.794 57.6027 326.619 57.5923 326.444 57.5339ZM329.834 58.6653C329.568 58.5763 329.37 58.4055 329.241 58.1529C329.116 57.8985 329.098 57.6378 329.186 57.3708C329.274 57.1066 329.443 56.9115 329.694 56.7857C329.948 56.6608 330.209 56.6429 330.476 56.7319C330.734 56.8183 330.929 56.9882 331.061 57.2417C331.192 57.4952 331.214 57.7541 331.126 58.0183C331.067 58.1963 330.968 58.3442 330.827 58.4619C330.689 58.5778 330.533 58.656 330.358 58.6964C330.184 58.7342 330.01 58.7238 329.834 58.6653ZM333.225 59.7968C332.958 59.7078 332.76 59.5369 332.632 59.2843C332.506 59.0299 332.488 58.7692 332.577 58.5023C332.664 58.238 332.834 58.043 333.085 57.9172C333.339 57.7923 333.599 57.7743 333.866 57.8634C334.125 57.9497 334.32 58.1196 334.451 58.3731C334.583 58.6266 334.604 58.8855 334.517 59.1498C334.458 59.3278 334.358 59.4756 334.217 59.5933C334.08 59.7093 333.924 59.7875 333.749 59.8279C333.575 59.8656 333.4 59.8552 333.225 59.7968Z" fill="white"/>
<path d="M379.545 54.2674C379.971 52.9813 379.263 51.5868 377.962 51.1527C376.661 50.7186 375.261 51.4093 374.835 52.6955C374.408 53.9816 375.117 55.3761 376.418 55.8101C377.718 56.2442 379.119 55.5535 379.545 54.2674Z" stroke="white" stroke-width="0.85" stroke-miterlimit="10"/>
<path d="M378.336 56.0162L379.389 58.3361" stroke="white" stroke-width="0.85" stroke-miterlimit="10" stroke-linecap="round"/>
<path d="M140.978 112.982C150.112 134.469 181.816 131.675 203.235 122.503C224.654 113.34 234.609 88.4849 225.466 66.9973C216.324 45.5098 184.119 18.0391 162.7 27.202C141.282 36.3648 131.835 91.4854 140.978 112.973V112.982Z" fill="#528478"/>
<path d="M163.88 29.1953C165.409 26.4088 160.569 20.7929 153.07 16.6519C145.571 12.5109 138.252 11.4128 136.723 14.1993C135.194 16.9858 140.034 22.6017 147.533 26.7427C155.033 30.8838 162.351 31.9818 163.88 29.1953Z" fill="#528478"/>
<path d="M181.227 19.2737C186.366 12.4055 188.476 5.28988 185.94 3.38054C183.404 1.47119 177.183 5.49116 172.044 12.3594C166.906 19.2276 164.796 26.3432 167.332 28.2526C169.868 30.1619 176.089 26.142 181.227 19.2737Z" fill="#528478"/>
<path d="M167.055 28.3626C169.971 27.1142 170.973 22.9007 169.294 18.9515C167.614 15.0022 163.888 12.8128 160.972 14.0613C158.055 15.3097 157.053 19.5232 158.733 23.4725C160.413 27.4217 164.139 29.6111 167.055 28.3626Z" fill="#528478"/>
<path d="M460.145 307.077C503.02 307.077 537.777 272.209 537.777 229.197C537.777 186.185 503.02 151.317 460.145 151.317C417.27 151.317 382.514 186.185 382.514 229.197C382.514 272.209 417.27 307.077 460.145 307.077Z" fill="#144162"/>
<path d="M373.569 219.354C416.444 219.354 451.2 184.486 451.2 141.474C451.2 98.4618 416.444 63.5938 373.569 63.5938C330.694 63.5938 295.938 98.4618 295.938 141.474C295.938 184.486 330.694 219.354 373.569 219.354Z" fill="#144162"/>
<path d="M269.678 182.299C312.553 182.299 347.31 147.431 347.31 104.419C347.31 61.4072 312.553 26.5392 269.678 26.5392C226.804 26.5392 192.047 61.4072 192.047 104.419C192.047 147.431 226.804 182.299 269.678 182.299Z" fill="#144162"/>
<path d="M269.678 364.079C363.277 364.079 439.155 316.451 439.155 257.698C439.155 198.946 363.277 151.317 269.678 151.317C176.079 151.317 100.201 198.946 100.201 257.698C100.201 316.451 176.079 364.079 269.678 364.079Z" fill="#144162"/>
<path d="M79.2116 320.101C122.086 320.101 156.843 285.232 156.843 242.221C156.843 199.209 122.086 164.341 79.2116 164.341C36.3369 164.341 1.58008 199.209 1.58008 242.221C1.58008 285.232 36.3369 320.101 79.2116 320.101Z" fill="#144162"/>
<path d="M187.093 227.685C228.894 218.119 256.861 184.334 249.56 152.223C242.258 120.113 202.453 101.837 160.652 111.402C118.851 120.968 90.8838 154.754 98.1853 186.864C105.487 218.975 145.292 237.251 187.093 227.685Z" fill="#144162"/>
<path d="M311.99 177.229C318.32 193.2 341.685 191.722 357.613 185.371C373.533 179.021 381.309 160.919 374.97 144.949C368.631 128.979 345.444 108.181 329.525 114.54C313.606 120.9 305.66 161.268 311.999 177.238L311.99 177.229Z" fill="#528478"/>
<path d="M336.983 104.584C337.436 98.4022 335.954 93.2545 333.673 93.086C331.391 92.9175 329.173 97.792 328.72 103.974C328.266 110.155 329.748 115.303 332.03 115.471C334.312 115.64 336.529 110.765 336.983 104.584Z" fill="#528478"/>
<path d="M331.23 115.797C332.893 114.22 331.495 110.027 328.108 106.433C324.72 102.838 320.626 101.202 318.964 102.779C317.301 104.356 318.699 108.548 322.087 112.143C325.474 115.737 329.568 117.373 331.23 115.797Z" fill="#528478"/>
<path d="M473.082 331.744C472.663 347.956 441.566 354.02 417.763 353.402C393.96 352.784 375.005 339.134 375.425 322.931C375.844 306.728 395.826 280.887 419.629 281.514C443.432 282.132 473.511 315.541 473.091 331.753L473.082 331.744Z" fill="#528478"/>
<path d="M421.89 285.863C423.681 285.047 422.627 278.847 419.534 272.014C416.442 265.181 412.482 260.303 410.691 261.119C408.9 261.935 409.954 268.136 413.047 274.969C416.139 281.802 420.098 286.679 421.89 285.863Z" fill="#528478"/>
<path d="M429.826 279.928C434.064 275.892 436.272 271.324 434.758 269.723C433.244 268.123 428.581 270.098 424.343 274.134C420.105 278.169 417.897 282.738 419.411 284.338C420.926 285.938 425.588 283.964 429.826 279.928Z" fill="#528478"/>
<path d="M425.571 278.685C427.064 269.115 426.514 261.081 424.341 260.74C422.169 260.399 419.196 267.879 417.703 277.449C416.209 287.018 416.759 295.052 418.932 295.393C421.105 295.734 424.077 288.254 425.571 278.685Z" fill="#528478"/>
<path d="M257.161 77.638L239.246 90.3539C228.937 97.6709 226.493 111.986 233.786 122.328C241.08 132.67 255.35 135.122 265.659 127.805L283.574 115.089C293.883 107.772 296.327 93.4569 289.033 83.115C281.74 72.7731 267.47 70.321 257.161 77.638Z" fill="#68B0BC"/>
<path d="M274.517 135.392L282.4 107.518L261.678 109.435L274.517 135.392Z" fill="#68B0BC"/>
<path d="M242.555 106.748L272.902 85.2067" stroke="#298089" stroke-width="2.06" stroke-miterlimit="10" stroke-linecap="round"/>
<path d="M246.955 112.991L277.302 91.4586" stroke="#298089" stroke-width="2.06" stroke-miterlimit="10" stroke-linecap="round"/>
<path d="M251.367 119.243L274.92 102.529" stroke="#298089" stroke-width="2.06" stroke-miterlimit="10" stroke-linecap="round"/>
<path d="M88.1583 272.531L71.4535 279.911C70.7392 280.225 69.9089 279.902 69.5964 279.186L65.1858 269.136C64.8733 268.419 65.1948 267.586 65.909 267.273L83.1317 259.669C83.6227 259.454 84.1763 259.471 84.6584 259.713L98.1669 266.574C98.4794 267.291 88.8726 272.226 88.1672 272.54L88.1583 272.531Z" fill="#298089"/>
<path d="M82.7836 309.236L67.1859 273.704C66.5699 272.298 67.4002 270.578 69.0341 269.852L121.881 246.511C123.514 245.785 125.345 246.341 125.961 247.747L141.594 283.368C142.184 284.703 141.398 286.333 139.844 287.023L86.8639 310.481C85.23 311.206 83.3997 310.651 82.7836 309.245V309.236Z" fill="#298089"/>
<path d="M86.9973 310.597L71.3996 275.065C70.7835 273.659 71.471 271.993 72.9441 271.348L120.336 250.407C121.8 249.762 123.496 250.371 124.112 251.777L139.746 287.399C140.335 288.733 139.674 290.31 138.281 290.928L90.7739 311.968C89.3097 312.612 87.6133 312.003 86.9973 310.597Z" fill="#9ECDD6"/>
<path d="M84.0512 312.12L69.6945 279.409C69.1231 278.12 69.9981 276.48 71.632 275.755L124.479 252.413C126.112 251.688 127.907 252.154 128.469 253.443L142.862 286.235C143.398 287.462 142.576 289.011 141.023 289.701L88.0422 313.15C86.4083 313.875 84.6137 313.41 84.0512 312.12Z" fill="#68B0BC"/>
<path d="M460.486 331.422C466.2 354.065 497.949 356.224 520.52 350.482C543.091 344.75 556.76 321.74 551.037 299.088C545.323 276.445 517.734 244.308 495.155 250.04C472.584 255.772 454.763 308.77 460.477 331.413L460.486 331.422Z" fill="#528478"/>
<path d="M496.013 252.181C497.953 249.665 494.036 243.366 487.265 238.112C480.494 232.858 473.433 230.639 471.493 233.155C469.553 235.671 473.47 241.969 480.241 247.223C487.012 252.477 494.074 254.697 496.013 252.181Z" fill="#528478"/>
<path d="M514.716 245.138C520.851 239.15 524.033 232.447 521.822 230.167C519.612 227.887 512.845 230.893 506.709 236.881C500.574 242.869 497.392 249.572 499.603 251.852C501.814 254.132 508.58 251.126 514.716 245.138Z" fill="#528478"/>
<path d="M499.28 251.925C502.354 251.145 503.994 247.137 502.943 242.975C501.892 238.813 498.549 236.071 495.475 236.852C492.402 237.633 490.762 241.64 491.813 245.803C492.863 249.965 496.207 252.706 499.28 251.925Z" fill="#528478"/>
<path d="M159.419 152.695L148.13 208.414C147.661 210.726 149.15 212.982 151.455 213.452L246.657 232.865C248.961 233.335 251.21 231.842 251.678 229.53L262.968 173.811C263.437 171.498 261.948 169.243 259.643 168.773L164.441 149.359C162.136 148.889 159.888 150.383 159.419 152.695Z" fill="#68B0BC"/>
<path d="M162.266 156.344L151.469 209.631C151.094 211.478 152.283 213.28 154.125 213.655L244.129 232.009C245.97 232.384 247.766 231.192 248.14 229.345L258.938 176.057C259.312 174.21 258.123 172.409 256.282 172.033L166.277 153.679C164.436 153.304 162.64 154.497 162.266 156.344Z" fill="#A7D4DF"/>
<path d="M255.617 237.652L141.371 214.347C138.755 213.809 137.068 211.257 137.594 208.632L137.907 207.083L261.626 232.323L261.314 233.873C260.778 236.497 258.233 238.19 255.617 237.661V237.652Z" fill="#68B0BC"/>
<path d="M189.469 217.574L210.108 221.783C209.897 222.827 208.886 223.498 207.845 223.286L190.967 219.844C189.926 219.632 189.257 218.618 189.469 217.574Z" fill="#298089"/>
<g style="mix-blend-mode:multiply">
<mask id="mask3_333_1102" style="mask-type:luminance" maskUnits="userSpaceOnUse" x="151" y="153" width="109" height="77">
<path d="M259.65 172.715L162.979 153.001L151.465 209.826L248.136 229.54L259.65 172.715Z" fill="white"/>
</mask>
<g mask="url(#mask3_333_1102)">
<path d="M149.291 211.794L137.229 211.051L243.984 151.729L256.037 152.473L149.291 211.794Z" fill="#E1FBFF"/>
<path d="M160.576 230.917L126.193 228.803L249.663 160.193L284.037 162.307L160.576 230.917Z" fill="#E1FBFF"/>
</g>
</g>
<path d="M248.842 269.602C262.747 269.602 274.02 258.293 274.02 244.343C274.02 230.394 262.747 219.085 248.842 219.085C234.937 219.085 223.664 230.394 223.664 244.343C223.664 258.293 234.937 269.602 248.842 269.602Z" fill="#144162"/>
<path d="M213.744 274.635C227.649 274.635 238.922 263.327 238.922 249.377C238.922 235.427 227.649 224.119 213.744 224.119C199.839 224.119 188.566 235.427 188.566 249.377C188.566 263.327 199.839 274.635 213.744 274.635Z" fill="#144162"/>
<path d="M212.848 256.169C217.237 242.932 204.914 226.902 185.323 220.364C165.733 213.826 146.294 219.257 141.904 232.493C137.515 245.73 149.838 261.76 169.429 268.298C189.019 274.836 208.458 269.405 212.848 256.169Z" fill="#144162"/>
<path d="M426.025 163.796L414.013 209.277C413.224 212.265 414.999 215.33 417.978 216.122L434.911 220.623C437.89 221.415 440.945 219.634 441.734 216.645L453.746 171.164C454.536 168.176 452.761 165.111 449.782 164.319L432.849 159.818C429.87 159.026 426.815 160.807 426.025 163.796Z" fill="#095E58"/>
<path d="M434.407 219.569C433.969 219.569 433.541 219.515 433.112 219.398L416.184 214.902C413.497 214.185 411.899 211.418 412.604 208.722L424.612 163.239C425.193 161.026 427.193 159.477 429.478 159.477C429.916 159.477 430.344 159.531 430.773 159.647L447.701 164.143C449.005 164.493 450.085 165.326 450.763 166.49C451.442 167.655 451.621 169.016 451.281 170.324L439.273 215.798C438.692 218.01 436.692 219.56 434.407 219.56V219.569Z" fill="#A7D4DF"/>
<path d="M429.478 160.041C429.862 160.041 430.255 160.095 430.63 160.193L447.558 164.69C449.951 165.326 451.379 167.798 450.746 170.189L438.737 215.672C438.219 217.643 436.433 219.022 434.407 219.022C434.023 219.022 433.63 218.968 433.255 218.87L416.327 214.374C413.934 213.738 412.506 211.265 413.14 208.874L425.148 163.391C425.666 161.421 427.452 160.041 429.478 160.041ZM429.478 158.939C427.005 158.939 424.746 160.596 424.086 163.104L412.077 208.587C411.291 211.579 413.059 214.642 416.041 215.43L432.969 219.927C433.451 220.052 433.934 220.115 434.407 220.115C436.88 220.115 439.139 218.458 439.799 215.95L451.808 170.467C452.594 167.475 450.826 164.412 447.844 163.624L430.916 159.128C430.434 159.002 429.952 158.939 429.478 158.939Z" fill="#297571"/>
<path d="M441.28 165.322L435.765 163.856C435.165 163.697 434.549 164.056 434.39 164.658L434.387 164.667C434.228 165.269 434.586 165.887 435.187 166.047L440.702 167.513C441.302 167.672 441.918 167.313 442.077 166.711L442.079 166.702C442.238 166.1 441.881 165.482 441.28 165.322Z" fill="#297571"/>
<path d="M432.339 215.932L418.564 212.271C418.417 212.232 418.266 212.318 418.227 212.464C418.189 212.61 418.277 212.76 418.425 212.799L432.199 216.46C432.347 216.5 432.498 216.413 432.536 216.267C432.575 216.121 432.486 215.971 432.339 215.932Z" fill="#297571"/>
<g style="mix-blend-mode:multiply">
<mask id="mask4_333_1102" style="mask-type:luminance" maskUnits="userSpaceOnUse" x="411" y="158" width="42" height="63">
<path d="M447.849 163.607L430.916 159.106C427.936 158.314 424.882 160.095 424.092 163.084L412.08 208.565C411.291 211.553 413.066 214.618 416.045 215.41L432.978 219.911C435.957 220.703 439.012 218.922 439.801 215.933L451.813 170.452C452.603 167.464 450.828 164.399 447.849 163.607Z" fill="white"/>
</mask>
<g mask="url(#mask4_333_1102)">
<path d="M453.257 164.209L411.293 188.672L413.688 192.807L455.652 168.345L453.257 164.209Z" fill="#E1FBFF"/>
<path d="M451.817 173.671L403.283 201.963L410.106 213.742L458.639 185.45L451.817 173.671Z" fill="#E1FBFF"/>
</g>
</g>
<path d="M434.746 230.424C442.004 230.424 447.888 224.521 447.888 217.24C447.888 209.958 442.004 204.055 434.746 204.055C427.488 204.055 421.604 209.958 421.604 217.24C421.604 224.521 427.488 230.424 434.746 230.424Z" fill="#144162"/>
<path d="M413.381 223.957C420.639 223.957 426.523 218.054 426.523 210.773C426.523 203.491 420.639 197.588 413.381 197.588C406.122 197.588 400.238 203.491 400.238 210.773C400.238 218.054 406.122 223.957 413.381 223.957Z" fill="#144162"/>
<path d="M217.913 259.144L200.98 263.645C198.001 264.437 196.226 267.502 197.015 270.49L209.027 315.971C209.817 318.96 212.871 320.741 215.851 319.949L232.784 315.448C235.763 314.656 237.538 311.592 236.748 308.603L224.736 263.122C223.947 260.133 220.892 258.353 217.913 259.144Z" fill="#095E58"/>
<path d="M216.349 318.909C214.072 318.909 212.072 317.36 211.483 315.147L199.474 269.664C198.76 266.968 200.367 264.201 203.055 263.484L219.983 258.988C220.402 258.871 220.84 258.818 221.277 258.818C223.554 258.818 225.554 260.367 226.143 262.58L238.152 308.054C238.5 309.361 238.312 310.723 237.634 311.887C236.955 313.051 235.866 313.884 234.571 314.234L217.643 318.73C217.224 318.847 216.786 318.9 216.349 318.9V318.909Z" fill="#A7D4DF"/>
<path d="M221.269 259.382C223.296 259.382 225.082 260.761 225.599 262.732L237.608 308.215C238.242 310.615 236.813 313.087 234.421 313.714L217.493 318.211C217.118 318.309 216.725 318.363 216.341 318.363C214.314 318.363 212.528 316.984 212.011 315.013L200.002 269.53C199.368 267.13 200.797 264.658 203.189 264.031L220.117 259.534C220.492 259.436 220.885 259.382 221.269 259.382ZM221.269 258.28C220.796 258.28 220.314 258.343 219.832 258.468L202.904 262.965C199.922 263.753 198.145 266.825 198.94 269.808L210.948 315.291C211.609 317.799 213.868 319.456 216.341 319.456C216.814 319.456 217.296 319.393 217.778 319.268L234.706 314.771C237.688 313.983 239.465 310.911 238.67 307.928L226.662 262.445C226.001 259.937 223.742 258.28 221.269 258.28Z" fill="#297571"/>
<path d="M210.042 266.849L215.557 265.383C216.158 265.223 216.516 264.605 216.356 264.003L216.354 263.994C216.195 263.392 215.579 263.033 214.979 263.192L209.464 264.658C208.863 264.818 208.505 265.436 208.664 266.038L208.667 266.047C208.826 266.649 209.442 267.008 210.042 266.849Z" fill="#297571"/>
<path d="M218.548 315.806L232.322 312.145C232.47 312.106 232.559 311.956 232.52 311.81C232.482 311.664 232.331 311.578 232.183 311.617L218.409 315.278C218.261 315.317 218.172 315.468 218.211 315.613C218.249 315.759 218.4 315.846 218.548 315.806Z" fill="#297571"/>
<g style="mix-blend-mode:multiply">
<mask id="mask5_333_1102" style="mask-type:luminance" maskUnits="userSpaceOnUse" x="198" y="258" width="41" height="62">
<path d="M217.763 319.252L234.696 314.751C237.675 313.959 239.45 310.894 238.661 307.906L226.649 262.425C225.859 259.436 222.804 257.655 219.825 258.447L202.892 262.948C199.913 263.74 198.138 266.805 198.927 269.793L210.94 315.274C211.729 318.263 214.784 320.044 217.763 319.252Z" fill="white"/>
</mask>
<g mask="url(#mask5_333_1102)">
<path d="M197.503 263.539L195.107 267.675L237.071 292.137L239.467 288.002L197.503 263.539Z" fill="#E1FBFF"/>
<path d="M198.924 273.004L192.102 284.783L240.635 313.075L247.458 301.296L198.924 273.004Z" fill="#E1FBFF"/>
</g>
</g>
<path d="M216.002 329.774C223.26 329.774 229.144 323.871 229.144 316.59C229.144 309.308 223.26 303.405 216.002 303.405C208.743 303.405 202.859 309.308 202.859 316.59C202.859 323.871 208.743 329.774 216.002 329.774Z" fill="#144162"/>
<path d="M237.367 323.298C244.625 323.298 250.509 317.395 250.509 310.114C250.509 302.832 244.625 296.929 237.367 296.929C230.109 296.929 224.225 302.832 224.225 310.114C224.225 317.395 230.109 323.298 237.367 323.298Z" fill="#144162"/>
<path d="M327.839 213.336C340.621 206.391 347.204 193.761 342.543 185.127C337.882 176.493 323.741 175.123 310.959 182.068C298.176 189.013 291.593 201.643 296.255 210.277C300.916 218.911 315.057 220.281 327.839 213.336Z" fill="#144162"/>
<path d="M376.792 193.522C385.84 193.522 393.175 186.164 393.175 177.086C393.175 168.009 385.84 160.65 376.792 160.65C367.743 160.65 360.408 168.009 360.408 177.086C360.408 186.164 367.743 193.522 376.792 193.522Z" fill="#144162"/>
<path d="M352.704 207.477C361.752 207.477 369.087 200.118 369.087 191.041C369.087 181.964 361.752 174.605 352.704 174.605C343.655 174.605 336.32 181.964 336.32 191.041C336.32 200.118 343.655 207.477 352.704 207.477Z" fill="#144162"/>
<path d="M248.26 150.287C255.518 150.287 261.402 144.384 261.402 137.103C261.402 129.821 255.518 123.918 248.26 123.918C241.001 123.918 235.117 129.821 235.117 137.103C235.117 144.384 241.001 150.287 248.26 150.287Z" fill="#144162"/>
<path d="M226.894 143.82C234.153 143.82 240.037 137.918 240.037 130.636C240.037 123.354 234.153 117.451 226.894 117.451C219.636 117.451 213.752 123.354 213.752 130.636C213.752 137.918 219.636 143.82 226.894 143.82Z" fill="#144162"/>
<path d="M29.2125 342.824C35.5426 358.794 58.908 357.316 74.8361 350.966C90.7552 344.616 98.5317 326.514 92.1927 310.544C85.8536 294.574 62.6668 273.776 46.7477 280.135C30.8285 286.494 22.8823 326.863 29.2214 342.833L29.2125 342.824Z" fill="#528478"/>
<path d="M54.2055 270.186C54.659 264.004 53.177 258.856 50.8952 258.688C48.6134 258.519 46.3959 263.394 45.9424 269.575C45.4888 275.757 46.9708 280.905 49.2526 281.073C51.5344 281.242 53.7519 276.367 54.2055 270.186Z" fill="#528478"/>
<path d="M48.4687 281.396C50.1313 279.819 48.7332 275.627 45.3458 272.032C41.9584 268.438 37.8646 266.802 36.2019 268.378C34.5393 269.955 35.9374 274.148 39.3248 277.742C42.7122 281.337 46.806 282.973 48.4687 281.396Z" fill="#528478"/>
<path d="M82.2734 332.506C83.7644 346.559 106.04 353.734 122.701 354.665C139.361 355.597 151.664 344.956 150.182 330.903C148.7 316.849 132.772 293.257 116.103 292.325C99.4425 291.394 80.7823 318.444 82.2734 332.506Z" fill="#528478"/>
<path d="M125.759 287.797C127.944 283.406 128.06 279.018 126.017 277.995C123.974 276.972 120.547 279.701 118.362 284.092C116.177 288.482 116.062 292.871 118.105 293.894C120.147 294.917 123.574 292.187 125.759 287.797Z" fill="#528478"/>
<path d="M109.808 287.945C111.978 291.806 115.353 294.457 117.353 293.884C119.353 293.311 119.21 289.71 117.04 285.85C114.871 281.989 111.496 279.338 109.496 279.911C107.496 280.484 107.639 284.085 109.808 287.945Z" fill="#528478"/>
<path d="M328.819 307.901C327.944 307.901 327.087 307.722 326.283 307.373L274.133 284.613C272.571 283.933 271.365 282.679 270.74 281.093C270.115 279.508 270.151 277.77 270.83 276.203L288.624 235.154C289.632 232.816 291.936 231.311 294.472 231.311C295.347 231.311 296.204 231.49 297.007 231.839L349.157 254.599C350.72 255.28 351.925 256.534 352.55 258.119C353.175 259.704 353.139 261.442 352.461 263.009L334.667 304.059C333.658 306.396 331.354 307.901 328.819 307.901Z" fill="#68B0BC"/>
<path d="M294.481 232.431C295.205 232.431 295.901 232.574 296.571 232.87L348.721 255.629C351.372 256.784 352.596 259.892 351.444 262.562L333.65 303.611C332.82 305.537 330.927 306.782 328.829 306.782C328.105 306.782 327.409 306.638 326.739 306.343L274.589 283.583C271.937 282.428 270.714 279.32 271.866 276.651L289.66 235.601C290.49 233.676 292.383 232.431 294.481 232.431ZM294.481 230.174C291.589 230.174 288.83 231.866 287.598 234.697L269.804 275.746C268.152 279.553 269.893 283.986 273.687 285.643L325.838 308.403C326.811 308.824 327.829 309.03 328.829 309.03C331.721 309.03 334.48 307.337 335.712 304.507L353.506 263.457C355.158 259.651 353.417 255.217 349.623 253.56L297.472 230.801C296.499 230.38 295.481 230.174 294.481 230.174Z" fill="#298089"/>
<path d="M318.829 270.507L308.74 259.024C307.65 257.788 305.65 258.101 304.99 259.615L299.829 271.528C299.168 273.041 300.311 274.734 301.954 274.68L317.204 274.25C319.114 274.197 320.087 271.94 318.829 270.507Z" fill="#298089"/>
<path d="M346.518 262.701L338.142 259.046L334.499 267.448L342.874 271.103L346.518 262.701Z" fill="#298089"/>
<path d="M340.262 277.114L331.887 273.459L328.243 281.861L336.618 285.516L340.262 277.114Z" fill="#298089"/>
<path d="M334.014 291.528L325.638 287.873L321.995 296.275L330.37 299.93L334.014 291.528Z" fill="#298089"/>
<path d="M301.26 242.959L292.885 239.304L289.241 247.706L297.617 251.361L301.26 242.959Z" fill="#298089"/>
<path d="M295.008 257.364L286.633 253.709L282.989 262.111L291.365 265.766L295.008 257.364Z" fill="#298089"/>
<path d="M288.768 271.772L280.393 268.117L276.749 276.519L285.125 280.174L288.768 271.772Z" fill="#298089"/>
<path d="M299.113 297.119C300.259 287.367 289.484 278.079 275.047 276.372C260.611 274.666 247.979 281.188 246.834 290.939C245.688 300.691 256.463 309.98 270.9 311.687C285.336 313.393 297.968 306.871 299.113 297.119Z" fill="#144162"/>
<path d="M331.704 326.773C340.752 326.773 348.087 319.415 348.087 310.337C348.087 301.26 340.752 293.902 331.704 293.902C322.655 293.902 315.32 301.26 315.32 310.337C315.32 319.415 322.655 326.773 331.704 326.773Z" fill="#144162"/>
<path d="M303.999 324.274C313.047 324.274 320.382 316.916 320.382 307.838C320.382 298.761 313.047 291.403 303.999 291.403C294.95 291.403 287.615 298.761 287.615 307.838C287.615 316.916 294.95 324.274 303.999 324.274Z" fill="#144162"/>
</g>
<defs>
<clipPath id="clip0_333_1102">
<rect width="570" height="390" fill="white"/>
</clipPath>
</defs>
</svg>
