<?xml version="1.0" encoding="UTF-8"?>
<svg id="Layer_1" data-name="Layer 1" xmlns="http://www.w3.org/2000/svg" viewBox="0 0 100 67.43">
  <path d="M3.12.06l93.15-.06c2.54.23,3.52,1.78,3.73,4.19v59.06c-.2,2.37-1.45,4.1-3.96,4.18H4.18C1.51,67.4.22,65.77,0,63.24V4.19C.17,2.03.9.61,3.12.06ZM91.4,4.76H8.6l41.51,38.4L91.4,4.76ZM4.98,58.82l26.22-26.32L4.98,8.15v50.67ZM95.02,58.82V8.15l-26.22,24.35,26.22,26.32ZM91.85,62.67l-26.81-26.91-13.13,12.21c-1.63,1.24-2.39,1.13-3.96-.11l-13-12.1-26.81,26.91h83.7Z"/>
</svg>