<?xml version="1.0" encoding="UTF-8"?>
<svg id="Layer_1" data-name="Layer 1" xmlns="http://www.w3.org/2000/svg" viewBox="0 0 55.87 100">
  <g>
    <path d="M26.37,95.44c-.75.64-4.78.63-5.79.39-1.9-.45-1.96-3.15-.08-3.44.82-.13,4.39-.14,5.16.03,1.28.29,1.62,2.25.71,3.02Z"/>
    <path d="M32.42,95.44c-.98.83-3.86.68-4.1-.89-.33-2.12,1.54-2.43,3.21-2.16,1.43.23,1.87,2.22.89,3.05Z"/>
  </g>
  <g>
    <path d="M47.49,49.01v9.59s.56,0,.83.1c7.35,2.89,5.16,13.92-2.82,13.67s-9.31-11.79-1.55-13.77v-9.59h-9.38v31.59l11.16,16.78c.6,1.07.43,2.14-.73,2.63l-34.41-.02c-.86-.59-1.07-1.37-.72-2.38l11.35-17v-31.59H1.1c-.41,0-1.02-.99-1.1-1.4C1.59,32.2,3.7,16.8,5.39,1.38,5.52.5,6.26-.04,7.14,0h41.51c1.77-.06,1.74,1.78,1.94,3.06,2.23,14.5,3.02,29.26,5.25,43.77.2.58-.56,2.18-1.15,2.18h-7.19ZM3.71,45.47h48.37L47.07,3.35H8.83S3.71,45.47,3.71,45.47ZM24.77,49.01v30.44h6.26v-30.44h-6.26ZM49.35,65.33c0-1.97-1.6-3.56-3.56-3.56s-3.56,1.6-3.56,3.56,1.6,3.56,3.56,3.56,3.56-1.6,3.56-3.56ZM14.76,96.76h26.27l-9.01-13.72-7.99-.06-.33.15-8.95,13.63Z"/>
    <path d="M12.62,6.31c1.76-.25,1.99,1.16,1.92,2.56-.26,5.15-1.8,10.79-2.13,16.01-.67,2.2-3.55,1.53-3.5-.56,1.17-5.1.96-11.22,2.15-16.22.22-.92.53-1.63,1.57-1.78Z"/>
    <path d="M9.7,30.49c.7-.06,1.53.7,1.68,1.36.14.6-.47,5.32-.68,6.11-.48,1.78-3.02,1.75-3.4.05-.15-.67.49-5.73.77-6.44.24-.59,1.02-1.04,1.63-1.09Z"/>
  </g>
</svg>