<?xml version="1.0" encoding="UTF-8"?>
<svg id="Layer_1" data-name="Layer 1" xmlns="http://www.w3.org/2000/svg" viewBox="0 0 66.69 100">
  <path d="M51.1,48.91c.26,0,.47.14.65.32,4.58,4.38,9.44,8.46,14.17,12.67l.71,1.24.06,34.8c-.09.96-.22,1.75-1.29,1.95l-63.33.1c-.85-.08-1.68-.19-1.9-1.13-.3-11.95-.11-23.98-.1-35.95l.6-.92c4.96-4.35,9.96-8.67,14.7-13.24-1.2-2.68-2.71-5.12-3.38-8.03C7.73,22.13,27.24,7.38,43.97,16.55c11.77,6.46,14.53,21.42,7.14,32.36ZM41.36,62.77c1.79-9.83,11.38-17.62,10.83-28.04-.81-15.56-19.23-23.55-31.15-13.39-7.08,6.04-8.25,15.26-4.25,23.46,2.88,5.9,7.28,11.42,8.55,17.96h6.49v-15.15c-1.48.4-4.28,2.3-5.51.86-1.06-1.24.25-2.16,1.29-2.59,3.28-1.38,6.99-2.17,10.27-3.58,1.61-.42,2.98,1.17,1.65,2.52-.81.82-3.52,1.21-4.67,1.72v16.23h6.49ZM17.12,51.51l-13.2,11.79,17.42,15.42c.1,0,1.33-1.2,1.42-1.34.41-.7-.2-2.33-.24-3.25-.19-4.09.51-8.49-.53-12.46-.96-3.65-3.45-6.71-4.87-10.17ZM43.79,77.44c.06.11,1.4.93,1.57,1.3l17.42-15.44-13.09-11.79c-1.75,3.62-4.41,7.02-5.2,11.03-.7,3.6-.14,7.48-.31,11.16-.03.73-.63,3.33-.39,3.73ZM40.93,65.8h-15.15v4.54h4.87c.8,0,1.59-2.56,3.65-1.49.38.2,1.43,1.49,1.54,1.49h5.09v-4.54ZM3.06,95.01l15.8-14.18-15.8-14.18v28.35ZM63.44,94.8v-27.92l-15.58,13.96,15.58,13.96ZM61.06,96.96l-27.78-24.64-27.63,24.64h55.41Z"/>
  <path d="M32.87.04c1.23-.25,1.87.66,2.01,1.8s.17,5.72-.05,6.67c-.25,1.08-1.76,1.36-2.54.69s-.41-4.46-.43-5.63c-.02-1.09-.75-3.17,1.02-3.52Z"/>
  <path d="M3.22,17.78c.66-.12,1.54.48,2.15.8,1,.51,4.86,2.69,5.01,3.65-.65,4.3-5.87-1.14-7.96-1.78-.78-.8-.32-2.47.8-2.67Z"/>
  <path d="M62.74,17.79c1.47-.25,2.36,1.43,1.14,2.68-.44.45-5.03,3.09-5.63,3.25-1.78.47-2.55-1.28-1.51-2.6,1.65-.56,4.46-3.06,6-3.33Z"/>
  <path d="M15.53,5.04c.53-.03,1.04.3,1.38.69.49.56,2.59,4.31,2.92,5.09.83,2.02-1.27,3.15-2.49,1.84-.28-.3-2.93-4.93-3.07-5.36-.37-1.12-.02-2.19,1.27-2.26Z"/>
  <path d="M50.81,5.04c1.02-.06,1.73.94,1.5,1.88-.14.57-2.71,5.03-3.16,5.52-1.44,1.56-3.24.25-2.72-1.41.14-.44,2.82-4.95,3.15-5.29s.71-.67,1.22-.69Z"/>
  <path d="M38.06,35.55c2.05-.29,2.88,1.87.78,2.95-1.52.79-9,3.39-10.63,3.65-2.16.35-3.03-1.84-1.29-2.81,1.14-.63,9.86-3.62,11.14-3.8Z"/>
</svg>