<?xml version="1.0" encoding="UTF-8"?>
<svg id="Layer_1" data-name="Layer 1" xmlns="http://www.w3.org/2000/svg" viewBox="0 0 92.13 100">
  <path d="M27.79.08c26.01-1.81,41.76,28.31,25.46,48.59l6.79,7.81c.47.3,2.06-.68,3.24-.33.33.1,1.53,1.41,1.89,1.77,9.12,9.5,17.27,20.63,26.3,30.29,3.6,6.06-8.19,16-13.26,9.84-8.02-10.09-17.76-19.34-25.72-29.4-.37-.47-1.18-1.4-1.22-1.96-.08-1.15,1.12-2.39.79-3.21l-6.66-7.53c-.46-.23-2.59,1.13-3.24,1.4-14.57,6-30.91.92-38.5-13.05C-6.74,25.19,6.23,1.58,27.79.08ZM56.68,29.84c0-14.76-11.97-26.73-26.73-26.73S3.21,15.07,3.21,29.84s11.97,26.73,26.73,26.73,26.73-11.97,26.73-26.73ZM51.07,50.93l-3.33,2.89,6.29,7.26,3.33-2.89-6.29-7.26ZM61.43,59.57c-1.24.25-3.92,2.27-4.82,3.24-.66.71-2.25,2.5-1.73,3.43l26.38,30.22c2.36,1.91,8.96-3.58,7.57-6.59l-26.22-30.12c-.36-.32-.76-.27-1.18-.18Z"/>
  <g>
    <path d="M53.85,29.83c0,13.2-10.7,23.9-23.9,23.9S6.05,43.03,6.05,29.83,16.75,5.93,29.95,5.93s23.9,10.7,23.9,23.9ZM50.62,29.83c0-11.44-9.27-20.72-20.72-20.72S9.19,18.38,9.19,29.83s9.27,20.72,20.72,20.72,20.72-9.27,20.72-20.72Z"/>
    <path d="M42.04,25.07c-.26-.24-1.02-2.46-1.4-3.11-1.29-2.25-3.66-3.62-6.12-4.37-1.39-.43-4.39-.4-4.7-1.9-.76-3.7,6.71-.95,8.26-.19,2.69,1.31,6.68,5.18,6.81,8.32.06,1.53-1.79,2.26-2.86,1.26Z"/>
  </g>
</svg>