<?xml version="1.0" encoding="UTF-8"?>
<svg id="Layer_1" data-name="Layer 1" xmlns="http://www.w3.org/2000/svg" viewBox="0 0 108.65 100">
  <path d="M71.85,9.22c1.15-.03,2.21-.58,3.37-.68,8.41-.77,15.6,5.43,15.26,13.98,5.75.18,10.86,4.48,12.23,10.02s-.29,10.37-4.43,13.97c-.83.72-2.59,1.28-2.22,2.44.07.23,1.92.36,2.35.47,15.14,4.02,12.85,25.83-2.57,26.92,3.41,11.7-9.1,21.68-19.88,15.56-1.14-.65-1.99-1.55-3.08-2.24-.22.02-1.5,2.1-1.86,2.52-3.11,3.64-8.51,5.42-13.18,4.55-3-.56-5.56-1.92-7.67-4.09-4.79,9.78-18.94,9.73-24.14.26-8.02,3.25-17.34-1.86-18.71-10.42-.21-1.34-.01-2.48,0-3.71s-1.36-1.47-2.23-2.22c-9.17-7.79-5.24-21.89,6.3-24.22-.27-5.26,1.54-10.2,5.95-13.22-1.71-7.8,3.36-15.21,11.14-16.65-1.2-10.47,8.44-18.12,18.42-14.9,5.07-10.85,21.41-9.84,24.97,1.63ZM96.45,29.12c-1.68-1.68-4.02-2.54-6.36-2.85-.98-.13-2.11.26-2.9-.36-1.26-.99-.44-2.73-.46-3.94-.11-6.27-6.11-10.65-12.11-9.37-1.54.33-3.26,1.87-4.66,1.42s-1.16-2.02-1.55-3.11c-3.04-8.63-13.52-9.61-18.1-1.65-.53.92-.72,2.65-1.95,2.94s-2.68-.93-4.01-1.24c-5.87-1.34-12.12,3.17-12.15,9.33,0,1.63,1.79,5.33-.61,5.89s-3.48.08-5.96,1.49c-6.05,3.44-6.36,11.96-.84,16.13.91.69,3.17,1.46,3.53,2.29.51,1.18-.34,3.05-.3,4.49.15,6.07,5.59,10.18,11.49,9.37,1.82-.25,3.76-1.99,5.32-1.47.92.31,1.45,2.27,1.98,3.14,3.93,6.35,13.42,6.07,16.92-.52.96-1.81.71-5.17,3.52-4.54.98.22,1.62,2.04,2.27,2.86,6.55,8.21,19.85,1.73,17.04-8.65-.41-1.53-1.97-3.12-.7-4.59,1.05-1.22,2.19-.34,3.34-.36,8.9-.17,13.48-10.5,7.26-16.72ZM43.14,63.09c-5.94,1.97-11.72,1.05-15.81-3.88-1.86-2.25-3.1-5.2-3.26-8.15-.04-.74.3-2.56.12-2.91-.24-.49-1.81-.96-2.23-1.51l-3.36-3.61c-1.94,1.73-3.38,4.7-3.37,7.31,0,1.42,1.08,3.72.41,4.89s-2.82.89-3.99,1.13c-7.85,1.63-10.46,11.34-4.58,16.81.98.91,4.02,2.15,4.27,2.94.44,1.43-.38,2.76-.34,4.31.16,6.56,6.69,11,12.88,9.13,1.3-.39,2.48-1.71,3.92-1.23.78.26,1.79,2.93,2.45,3.84,4.55,6.28,14.15,4.86,16.99-2.32.52-1.31.24-3.2,2.16-3.45,1.82-.24,2.75,2.78,3.9,3.92,6.89,6.82,18.59.38,16.36-9.37-.35-1.51-1.77-3.13-1.06-4.47.94-1.78,3.59-.64,5.39-.9,4.53-.66,8.04-4.88,8.33-9.38-5.23,1.88-11.24.75-15.03-3.38-5.08,9.6-18.97,9.9-24.15.26ZM92.11,49.54c-2.7-.53-1.16,2.23-1.15,3.85.02,3.21-1.34,6.37-3.29,8.85-.37.46-1.45,1.26-1.58,1.69-.22.72.22,1.24.19,1.81-.35,7.53-5.32,12.95-12.8,13.88.46,3.49.02,5.47,2.9,7.9,7.45,6.27,18.64-.92,15.71-10.35-.46-1.47-2.18-3.23-.34-4.56.89-.64,3.32-.12,4.64-.26,8.45-.88,11.47-12.39,4.65-17.41-2.75-2.02-4.1-1.74-7.17-1.91-1.87-.1-1.9-2.05-1.76-3.49Z"/>
  <path d="M69.92,36.08c0,5.23-4.24,9.48-9.48,9.48s-9.48-4.24-9.48-9.48,4.24-9.48,9.48-9.48,9.48,4.24,9.48,9.48ZM66.03,36.09c0-3.08-2.5-5.58-5.58-5.58s-5.58,2.5-5.58,5.58,2.5,5.58,5.58,5.58,5.58-2.5,5.58-5.58Z"/>
  <path d="M36.5,29.35c3.28-3.28,8.79-3.77,12.48-.88,1.83,1.44,2.35,4.09-.37,4.22-1.33.07-3-2.47-5.76-2.24-7.35.59-6.57,12.23,1.35,11.15,1.96-.27,4.19-3.24,5.73-1.5,2.4,2.71-3.39,5.23-5.51,5.46-9,.97-14.23-9.91-7.93-16.2Z"/>
  <path d="M77.89,46.28c1.24.08,2.47-.36,3.37.71s.52,2.75-.79,3.15c-.81.25-6.36.24-7.34.09-1.72-.27-2.03-1.88-1.16-3.23s4.83-4.94,5-5.96c.09-.55-1.24-.53-1.48-.38-.45.3-.3,2.08-1.68,2.35-3.23.64-2.91-3.44-1.16-5.12,2.62-2.51,8.12-.97,8.29,2.91.11,2.55-1.72,3.63-3.04,5.48Z"/>
  <path d="M24.27,67.75c1.36,5.51,8.06,7.47,13.03,8.29,1.4.23,5.62.29,6.35,1.11,1.17,1.32.32,3.29-1.51,3.34-1.61.05-4.55-.45-6.22-.73-6.34-1.07-14.76-4.48-15.34-11.81l3.7-.2Z"/>
</svg>