<?xml version="1.0" encoding="UTF-8"?>
<svg id="Layer_1" data-name="Layer 1" xmlns="http://www.w3.org/2000/svg" viewBox="0 0 94.21 100">
  <path d="M45.1,22.44c17.65-1.32,30.94,15.72,25.54,32.56-1.46,4.55-5,8.79-7.22,13.01-3.37,6.43-1.49,11.65-2.08,18.36-.18,2.02-1.39,3.24-3.05,4.19-.32.19-.82.1-1.11.38-.18.17-1.12,3.38-1.56,4.19-3.53,6.56-13.72,6.47-17.19-.13-.4-.76-1.27-3.85-1.48-4.06-.28-.27-.87-.24-1.26-.44-1.51-.79-2.7-2.16-2.9-3.92-.36-3.2.18-7.13,0-10.44-.39-7.84-4.65-11.35-7.92-17.84-7.94-15.71,2.79-34.55,20.22-35.85ZM61.68,32.88c-13.28-13.37-36.02-2.87-34.64,16.01.57,7.85,6.8,13.62,9.41,20.72h21.44c2.94-7.51,9.01-13.16,9.61-21.58.39-5.39-2.04-11.35-5.82-15.15ZM37.26,74.33v3.62h19.8v-3.62h-19.8ZM56.85,82.42h-19.59v4.27h19.59v-4.27ZM52.38,91.15h-10.65c1.04,5.9,9.74,5.96,10.65,0Z"/>
  <path d="M21.24,70.33c2.05-.39,3.51,1.59,2.36,3.43-.62.99-5.61,5.92-6.68,6.74-2.34,1.8-4.81-.6-3.48-2.84.48-.81,5.65-5.93,6.56-6.64.34-.26.81-.62,1.23-.7Z"/>
  <path d="M71.7,70.33c.91-.21,1.58.07,2.3.6.96.7,5.87,5.57,6.5,6.49,1.44,2.1-.42,4.51-2.68,3.53-1.85-.8-5.2-5.62-7.12-6.94-1.18-1.11-.52-3.34,1-3.68Z"/>
  <path d="M1.86,45c1.33-.24,8.63-.26,9.91,0,2.4.49,2.35,4.04.04,4.41-1.4.22-8.86.25-10.2,0-2.09-.38-2.27-3.96.25-4.41Z"/>
  <path d="M82.56,45c1.33-.24,8.63-.26,9.91,0,2.39.48,2.24,4.06.04,4.41-3.02.48-7.23-.29-10.38-.03-2.1-.85-1.86-3.96.43-4.38Z"/>
  <g>
    <path d="M46.58.06c1.95-.38,2.69,1.16,2.83,2.82.16,1.91.24,6.9-.06,8.69-.47,2.82-4.28,2.84-4.63-.37-.21-1.88-.23-7.08.02-8.93.14-1.04.76-2,1.84-2.21Z"/>
    <path d="M15.06,13.25c.79-.11,1.48.37,2.07.82.97.74,5.81,5.5,6.38,6.39,1.49,2.31-.94,4.66-3.07,3.28-.68-.45-6.48-6.24-6.92-6.92-.98-1.51-.26-3.33,1.54-3.57Z"/>
    <path d="M78.52,13.26c1.96-.22,3.17,1.89,2.06,3.57-.48.73-6.2,6.45-6.92,6.92-2.13,1.38-4.55-.97-3.07-3.28.47-.73,5.82-6.07,6.59-6.61.35-.25.92-.55,1.34-.6Z"/>
  </g>
</svg>