<?xml version="1.0" encoding="UTF-8"?>
<svg id="Layer_1" data-name="Layer 1" xmlns="http://www.w3.org/2000/svg" viewBox="0 0 100 66.85">
  <path d="M100,6.84v53.32c-1.04,3.56-3.61,6.04-7.33,6.64-28.86-.19-57.8.38-86.62-.29-3.3-.98-5.75-3.76-6.06-7.22V7.14C.55,3.32,3.72.43,7.52,0h85.15c3.78.56,6.42,3.2,7.33,6.84ZM19.93,2.35h-8.4l8.4,6.44V2.35ZM27.94,2.35h-5.66v11.52H2.35v5.86h19.92v12.5h5.66v-12.5h20.9v-5.86h-20.9V2.35ZM39.07,2.35h-8.79v6.64l8.79-6.64ZM49.03,2.35h-5.76l-12.4,9.18h6.93c1.31-1.29,10.93-7.23,11.19-8.15.1-.33.03-.7.04-1.03ZM2.35,34.57v25.1c0,2.05,3.43,4.93,5.56,4.79h84.19c2.86-.31,5.1-2.31,5.56-5.18V7.91c.07-2.55-2.87-5.56-5.37-5.56h-40.91l-.2,32.22H2.35ZM19.34,11.53L7.33,2.53c-1.53.21-3.21,1.1-3.99,2.46l9.07,6.54h6.93ZM48.83,11.53v-4.88l-6.84,4.88h6.84ZM8.21,11.53L2.35,7.23v4.3h5.86ZM8.02,22.08H2.35v4.1l5.66-4.1ZM18.95,22.08h-6.74c-.57,0-8.25,5.77-9.25,6.58-.21.17-.61.23-.61.26v3.32h3.22l13.38-10.16ZM48.83,32.23c-.09-.66.22-1.74-.2-2.24l-11.42-7.91h-6.35l13.18,10.16h4.78ZM48.83,22.08h-7.23l7.23,5.08v-5.08ZM19.93,24.61l-10.35,7.62h10.35v-7.62ZM40.04,32.23l-9.76-7.42v7.42h9.76Z"/>
  <path d="M85.65,25.98c.24-.02,1.47-.28,1.57-.39.46-.54,1.04-3.64,1.46-4.5.51-.06.31,0,.39.29.21.69.97,3.67,1.26,4.01.08.1,1.6.39,1.76.39h3.22c.12.46-.11.33-.25.45-.47.4-3.39,2.39-3.44,2.6.07.49,1.88,4.99,1.05,4.96l-3.74-2.7c-.61-.06-3.26,2.3-3.97,2.7-.3-.41,1.41-3.85,1.14-4.74-.19-.64-3.3-2.19-3.68-3.07,1.04-.07,2.2.1,3.22,0Z"/>
  <path d="M77.93,11.53h4.88l-3.89,2.96c-.16.28,1.49,4.14,1.25,4.86-.83-.27-3.28-2.75-3.87-2.7l-3.84,2.69,1.38-4.75-3.92-3.06h4.78c.85-1.44.83-3.56,1.85-4.88l1.37,4.88Z"/>
  <path d="M66.21,28.13h4.88c-1.04,1.26-2.63,1.97-3.8,3.12-.24.62,1.43,3.78,1.16,4.7l-3.74-2.7c-.56-.05-3.21,2.37-3.97,2.69l1.38-4.75c-1.14-.88-2.4-1.65-3.48-2.61-.13-.12-.37.01-.25-.45h4.59c.76-1.25.89-3.07,1.45-4.4.08-.2.13-.45.4-.48l1.37,4.88Z"/>
  <path d="M74.42,53.52c.26-.59,1.22-4.81,1.47-4.88.39-.12.27.21.34.43.49,1.46.86,2.98,1.32,4.45h4.88l-3.88,3.06c.27,1.58,1.19,3.17,1.24,4.75l-3.91-2.89-3.8,2.89c.22-1.63.95-3.18,1.38-4.77l-3.92-3.04h4.88Z"/>
</svg>