<?xml version="1.0" encoding="UTF-8"?>
<svg id="Layer_1" data-name="Layer 1" xmlns="http://www.w3.org/2000/svg" viewBox="0 0 59.51 100">
  <path d="M33.64,38.86h24.04c1.04,0,2.36,2.3,1.62,3.3-11.32,16.95-22.15,34.22-33.43,51.19-.76,1.14-3.71,5.94-4.55,6.37-1.7.87-3.5-.5-3.39-2.34l7.93-36.27H1.82c-.06,0-.92-.52-1.05-.63-.83-.72-.94-1.65-.57-2.67L37.64.55c1.8-1.32,3.89-.12,3.78,2.08l-7.78,36.23ZM52.95,43.48h-22.78c-.86,0-1.95-1.79-1.65-2.7,1.31-8.4,4.25-17.04,5.48-25.39.04-.24.18-.75-.05-.89L6.55,56.5h22.57c.9,0,2.05,1.67,1.79,2.61-1.53,8.57-4.1,17.18-5.58,25.73-.04.23-.24.71,0,.85l27.61-42.21Z"/>
</svg>