<?xml version="1.0" encoding="UTF-8"?>
<svg id="Layer_1" data-name="Layer 1" xmlns="http://www.w3.org/2000/svg" viewBox="0 0 127.31 100">
  <g>
    <path d="M86.62,26.19c4.68.39,10.2-.52,14.78,0,1.38.16,2.32,1,3.49,1.3,1.57.41,3.49.34,5.17.69,4.23.87,11.05,2.54,12.9,6.8,2.61,6.02-3.17,8.82-4.3,14.25,4.19,5.03,7.4,11.23,8.16,17.84.56,4.91.9,19.63-.59,23.9s-6.2,8.38-10.98,8.73h-63.14c-2.72-1.34-3.73-.22-6.1,0-10.12.94-21.69-.73-31.97,0C2.43,96.26-1.28,79.02.37,68.44c.3-1.9.49-4.53,3-4.16,3,.45,1.11,4.76.95,6.78-.36,4.76.28,9.59,1.93,14.04,1.14,3.07,4.47,9.5,7.91,10.2l31.05.13c3.4-.23,5.89-4.27,7.36-7.02,6.47-12.14,3.82-28.35-6.84-37.19-1.58-1.31-5.48-3.78-7.45-4-3.13-.35-13.5-.44-16.5.02-1.24.19-3.9,1.7-5.03,2.43-2.12,1.37-3.53,3.16-5.58,4.54-2.26.8-3.68-1.44-2.33-3.39s4.58-4.06,6.66-5.2c-1.17-2.1-3.12-1.33-4.91-1.61-2.35-.36-2.36-3.86,0-4.23,3.36-.52,5.65.55,8.1,2.65.43-.54-3.25-10.62-2.48-13.53,1.43-5.37,7.92-2.91,11.66-2.7,1.8.1,4.35.12,6.13-.02,3.23-.24,5.28-1.73,8.48.05.38.21.88.93,1.11.95.19.02,2.13-.91,2.93-.99,4.61-.5,10.08.38,14.78,0v-4.13c0-2.83,2.96-5.92,5.59-6.66s12.11-.7,14.72.19c2.19.74,4.99,3.83,4.99,6.2v4.39ZM82.36,26.19v-3.86c0-.11-.54-1.25-.68-1.45-.81-1.19-2.07-1.5-3.44-1.62-2.22-.19-7.12-.23-9.26.08-.92.13-3.13,1.19-3.13,2.19v4.66h16.51ZM23.26,42.94l14.1-.09,2.85-11.54c.07-.41.19-1.07-.05-1.41-.47-.66-4.81.48-5.87.56-2.09.15-5.11.12-7.21,0-1.13-.07-6.02-1.04-6.53-.69-.37.28-.24.63-.2,1.01.44,3.84,2.36,8.25,2.9,12.16ZM102.77,31.34c-.3-.3-.86-.51-1.23-.77l-54.47-.12c-4.07.47-4.33,6.16.54,6.65h52.2c3.18.23,5.32-3.41,2.96-5.77ZM115.11,46.7c.16-.89.61-2.05,1.02-2.84.84-1.62,3.37-4.49,3.26-6.07-.16-2.24-2.51-3.05-4.28-3.73-.92-.35-6.8-2.12-7.18-1.73.85,4.11-2.12,8.44-6.39,8.79.63,1.15,1.23,2.36,1.06,3.73,4.24.18,8.63-.06,12.52,1.86ZM46.14,41.11c-1.21-.01-2.44-.5-3.33-1.33-.41,0-.97,3.4-1.19,3.97l3.46,1.61c-.06-1.48.38-2.96,1.07-4.26ZM53.06,95.43h42.48c.82,0,2.97-2.25,2.8-3.32-.15-16.08.27-32.23-.21-48.27-.6-1.35-1.85-2.45-3.38-2.48h-41.57c-1.91,0-3.56,1.48-3.83,3.37-.1.72-.15,3.31.03,3.92.16.54,2.2,2.21,2.75,2.85,8.27,9.74,10.47,23.26,5.93,35.23-1.2,3.15-2.97,6.04-5,8.72ZM101.8,95.43h13.18c3.39,0,7.08-4.14,7.52-7.39.62-4.61.43-15.09.08-19.92-.38-5.25-4.56-15.31-9.5-17.67-3.26-1.56-6.75-.91-10.22-1.37.11.93-.1,1.88-.12,2.8-.19,12.58.93,26.19.13,38.63-.11,1.69-.43,3.36-1.08,4.92Z"/>
    <circle cx="5.91" cy="59.06" r="2.12"/>
    <path d="M84.15,51.28c1.07-.23,2.01.11,2.54,1.08.47,10.45.05,21.01.21,31.5-.28,2.2-4,2.66-4.29-.53-.87-9.55.68-20.42,0-30.11.02-.88.66-1.75,1.53-1.94Z"/>
    <path d="M62.31,51.28c1.58-.36,2.54.39,2.75,1.93v30.65c-.3,2.3-3.95,2.76-4.28-.8-.87-9.37.68-20.07,0-29.58.12-.9.54-1.97,1.53-2.2Z"/>
    <path d="M73.23,51.28c1.07-.23,2.01.11,2.54,1.08.47,10.45.05,21.01.21,31.5-.33,2.54-4.51,2.19-4.29-.53.8-9.45-1.03-20.59.01-29.84.11-.98.43-1.97,1.53-2.21Z"/>
    <g>
      <path d="M29.28.15c1.6-.48,2.82.33,3.01,1.93.58,4.91-.43,10.94-.02,15.97-.64,2.67-3.93,2.46-4.25-.25-.57-4.84.44-10.76,0-15.72-.02-.67.63-1.75,1.26-1.93Z"/>
      <path d="M18.91,9.73c1.04-.15,1.97.29,2.31,1.29.24.71.3,6.79.09,7.52-.47,1.64-3.27,1.96-4,.12-.31-.78-.37-6.26-.19-7.24.16-.88.92-1.56,1.79-1.69Z"/>
      <path d="M40.75,9.73c1.53-.18,2.3.79,2.47,2.21.14,1.14.16,5.32-.06,6.34-.45,2.01-3.34,2.2-4.07.45-.26-.62-.27-6.69-.08-7.53s.93-1.38,1.74-1.47Z"/>
      <circle cx="19.24" cy="2.16" r="2.15"/>
      <circle cx="41.06" cy="2.15" r="2.15"/>
    </g>
  </g>
  <g>
    <path d="M109.18,9.72c3.47-.72,3.03,6.21,2.62,8.22-.6,2.86-4.04,2.66-4.41-.68-.21-1.88-.55-7.06,1.79-7.54Z"/>
    <circle cx="98.75" cy="11.7" r="2.17"/>
    <circle cx="98.74" cy="2.16" r="2.15"/>
    <circle cx="109.66" cy="2.16" r="2.15"/>
  </g>
</svg>