<?xml version="1.0" encoding="UTF-8"?>
<svg id="Layer_1" data-name="Layer 1" xmlns="http://www.w3.org/2000/svg" viewBox="0 0 95.6 100">
  <path d="M43.64.09c10.92-.46,22.95.86,33.24,4.53,8.18,2.92,17.66,8.11,18.33,17.8,1.24,17.77-.96,36.95,0,54.86-.81,12.91-17.23,18.53-27.94,20.75-11.66,2.42-24.46,2.6-36.19.56-11.07-1.92-29.77-7.61-30.71-21.06.91-18.04-1.17-37.21,0-55.12C1.48,5.35,30.4.65,43.64.09ZM45.43,5.47c-8.35.22-17.07,1.45-24.94,4.28-10.79,3.87-22.22,12.47-7.79,21.64,16.74,10.64,53.43,10.64,70.17,0,14.77-9.38,2.44-18.07-8.37-21.82-8.96-3.11-19.59-4.34-29.07-4.09ZM89.56,33.33c-1.15.77-2.19,1.66-3.35,2.41-18.54,12.02-57.34,12.16-76.07.51-1.44-.89-2.74-1.96-4.12-2.93v9.1c0,2.07,4.38,5.9,6.07,7,16.71,10.89,52.27,10.9,69.45,1.11,2.17-1.24,8.03-5.41,8.03-8.12v-9.1ZM89.56,51.78c-5.22,4.06-11.25,6.65-17.63,8.38-15,4.08-33.29,4.08-48.29,0-6.36-1.73-12.43-4.31-17.63-8.38v8.84c0,3.03,6.57,7.58,9.05,8.89,16.92,8.91,48.91,8.87,65.75-.21,2.39-1.29,8.74-5.73,8.74-8.68v-8.84ZM89.56,69.97c-4.45,3.92-10.05,6.32-15.69,8.01-16.09,4.82-36.28,4.84-52.35-.06-5.58-1.7-11.12-4.05-15.5-7.95v9.1c0,2.87,6.13,7.19,8.45,8.46,16.91,9.26,50.58,9.33,67.32-.35,2.12-1.22,7.77-5.52,7.77-8.12v-9.1Z"/>
</svg>