<?xml version="1.0" encoding="UTF-8"?>
<svg id="Layer_1" data-name="Layer 1" xmlns="http://www.w3.org/2000/svg" viewBox="0 0 89.14 100">
  <path d="M26.85,89.21c.45,2.96,3.78,4.04.13,6.3-2.62,1.62-5.9,2.84-8.59,4.42-1.35.42-1.94-1.09-2.5-2.07-5.61-9.72-10.22-20.34-15.82-30.11-.34-.89.46-1.67,1.13-2.13,1.51-1.04,6.8-3.77,8.54-4.45,2.62-1.02,3.05,2.24,4.09,3.98,4.9-2.02,9.61-5.42,14.46-7.52,4.12-1.78,7.94-.84,12.27-.7,4.02.13,9.27-.13,13.12.52,2.57.44,4.7,2.79,5.08,5.32l21.14-13.52c6.32-4.17,12.79,4.38,6.92,9.3l-37.4,27.14c-4.77,2.58-11.23-.22-16.4.49-1.76.24-4.35,2.51-6.18,3.03ZM25.11,86.59c2.49-1.14,5.39-3.34,8.14-3.66,3.98-.47,11.09,1.61,14.39.1,12.67-9.18,25.52-18.18,37.89-27.73,1.16-1.63-.19-3.88-2.09-4-.68-.04-1.16.3-1.74.61-8,4.24-15.76,10.77-23.75,15.23-2.71,4.36-8.1,2.89-12.37,2.77-2.82-.07-6.37.1-9.1-.21-2.16-.24-2.61-2.34-.65-3.24,4.55.09,9.09.32,13.65.42,1.02.02,1.83.34,3,.2,2.9-.34,4.38-3.72,2.09-5.72-1.59-1.39-5.62-.86-7.7-.96-4.14-.2-8.4-.58-12.54-.67-3.45-.07-4.59.83-7.49,2.28-3.79,1.89-7.55,4.06-11.24,6.09l9.52,18.5ZM10.07,64.53l-6.37,3.35,14.98,28.48,6.37-3.35-14.98-28.48Z"/>
  <g>
    <path d="M79.98,27.43c0,15.15-12.28,27.43-27.43,27.43s-27.43-12.28-27.43-27.43S37.4,0,52.55,0s27.43,12.28,27.43,27.43ZM76.79,27.43c0-13.38-10.85-24.23-24.23-24.23s-24.23,10.85-24.23,24.23,10.85,24.23,24.23,24.23,24.23-10.85,24.23-24.23Z"/>
    <path d="M73.95,27.44c0,11.82-9.58,21.4-21.4,21.4s-21.4-9.58-21.4-21.4S40.74,6.04,52.56,6.04s21.4,9.58,21.4,21.4ZM70.75,27.44c0-10.05-8.15-18.2-18.2-18.2s-18.2,8.15-18.2,18.2,8.15,18.2,18.2,18.2,18.2-8.15,18.2-18.2Z"/>
    <path d="M54.14,15.76c.05.06,1.18.15,1.56.29,4.76,1.71,5.9,7.93,2.16,11.31,3.31,3.16,2.9,8.92-1.33,11.06-.51.26-2.29.68-2.36.78-.22.27.1,2.24-1.63,2.14s-1.43-1.93-1.65-2.15c-.55-.54-5.31,1.1-5.8-1.25-.36-1.75,1.34-1.61,1.48-2.33v-16.66c-1.7-.1-2.17-2.73-.5-3.12.8-.18,4.64.11,4.82-.06.2-.2,0-2.79,2.24-2.11,1.25.38.95,2.02,1.03,2.12ZM53.59,18.81c-1.24-.15-2.73.11-4.01,0v7.15h3.79c.66,0,1.87-.62,2.39-1.08,2.44-2.17.82-5.7-2.17-6.07ZM54.02,28.98c-1.29-.22-3.09.16-4.44,0v6.93h4.87c.33,0,1.72-1.16,1.94-1.52,1.28-2.08-.06-5.02-2.37-5.41Z"/>
  </g>
</svg>