<svg width="309" height="297" viewBox="0 0 309 297" fill="none" xmlns="http://www.w3.org/2000/svg">
<path d="M77.2501 19.4622C90.8151 11.9092 111.627 23.04 126.176 20.0519C140.725 17.0639 155.608 -1.21023 170.625 0.330309C185.642 1.87084 195.924 22.6143 209.846 28.5818C223.769 34.5493 246.399 27.8289 257.85 37.7805C268.895 47.3786 264.51 69.7944 272.346 82.8835C280.182 95.9727 302.504 103.519 305.6 117.542C308.697 131.566 291.443 147.768 289.859 162.234C288.275 176.7 301.798 195.689 295.618 209.117C289.438 222.545 265.994 225.339 255.683 236.38C245.373 247.422 245.328 269.977 231.75 277.538C218.172 285.098 197.374 273.96 182.824 276.948C168.275 279.936 153.392 298.21 138.375 296.67C123.358 295.129 113.077 274.386 99.1537 268.418C85.3715 262.509 62.6009 269.171 51.1501 259.22C40.1053 249.621 44.4899 227.206 36.6539 214.116C28.818 201.027 6.49638 193.481 3.39978 179.458C0.30318 165.434 17.5568 149.232 19.1412 134.766C20.7257 120.3 7.20254 101.311 13.3822 87.8828C19.5619 74.4547 43.0059 71.6611 53.3168 60.6196C63.6276 49.5782 63.6718 27.0226 77.2501 19.4622Z" fill="#A7E4CB"/>
<path d="M209 120.75C209 114.746 204.05 109.833 198 109.833H110C103.95 109.833 99 114.746 99 120.75V186.25C99 192.254 103.95 197.167 110 197.167H198C204.05 197.167 209 192.254 209 186.25V120.75ZM198 120.75L154 148.042L110 120.75H198ZM198 186.25H110V131.667L154 158.958L198 131.667V186.25Z" fill="#28948C"/>
</svg>
