<svg width="316" height="448" viewBox="0 0 316 448" fill="none" xmlns="http://www.w3.org/2000/svg">
<path d="M25.2248 448H290.706C304.428 448 315.595 438.578 315.595 427V21C315.595 9.422 304.428 0 290.706 0H25.2248C11.5028 0 0.335938 9.422 0.335938 21V427C0.335938 438.578 11.5028 448 25.2248 448ZM16.9285 21C16.9285 19.1435 17.8026 17.363 19.3585 16.0503C20.9143 14.7375 23.0245 14 25.2248 14H290.706C292.907 14 295.017 14.7375 296.573 16.0503C298.129 17.363 299.003 19.1435 299.003 21V427C299.003 428.857 298.129 430.637 296.573 431.95C295.017 433.263 292.907 434 290.706 434H25.2248C23.0245 434 20.9143 433.263 19.3585 431.95C17.8026 430.637 16.9285 428.857 16.9285 427V21Z" fill="black"/>
<path d="M41.8197 378H274.116C276.316 378 278.427 377.263 279.982 375.95C281.538 374.637 282.412 372.857 282.412 371V77C282.412 75.1435 281.538 73.363 279.982 72.0503C278.427 70.7375 276.316 70 274.116 70H41.8197C39.6194 70 37.5092 70.7375 35.9534 72.0503C34.3975 73.363 33.5234 75.1435 33.5234 77V371C33.5234 372.857 34.3975 374.637 35.9534 375.95C37.5092 377.263 39.6194 378 41.8197 378ZM50.116 84H265.82V364H50.116V84Z" fill="black"/>
<path d="M166.264 420C175.428 420 182.857 413.732 182.857 406C182.857 398.268 175.428 392 166.264 392C157.101 392 149.672 398.268 149.672 406C149.672 413.732 157.101 420 166.264 420Z" fill="black"/>
<path d="M124.781 56H191.151C193.351 56 195.462 55.2625 197.017 53.9497C198.573 52.637 199.447 50.8565 199.447 49C199.447 47.1435 198.573 45.363 197.017 44.0503C195.462 42.7375 193.351 42 191.151 42H124.781C122.58 42 120.47 42.7375 118.914 44.0503C117.358 45.363 116.484 47.1435 116.484 49C116.484 50.8565 117.358 52.637 118.914 53.9497C120.47 55.2625 122.58 56 124.781 56Z" fill="black"/>
<path d="M223.821 182.244C223.765 181.438 223.365 180.678 222.695 180.108C222.024 179.537 221.131 179.196 220.185 179.149C195.164 177.915 175.073 184.391 166.44 196.522C160.735 204.541 160.745 214.281 166.362 223.572C163.164 226.811 160.828 230.601 159.512 234.682L151.647 227.962C155.428 221.243 155.282 214.24 151.164 208.422C144.783 199.456 130.053 194.649 111.766 195.563C110.82 195.61 109.927 195.951 109.257 196.522C108.586 197.092 108.186 197.852 108.13 198.657C107.052 214.223 112.704 226.761 123.237 232.192C126.713 234 130.707 234.957 134.781 234.957C138.735 234.916 142.627 234.118 146.17 232.624L158.255 242.911V254.708C158.255 255.581 158.663 256.419 159.388 257.036C160.113 257.653 161.097 258 162.123 258C163.148 258 164.132 257.653 164.857 257.036C165.583 256.419 165.99 255.581 165.99 254.708V242.574C165.972 237.337 168.066 232.253 171.922 228.172C176.896 230.385 182.412 231.569 188.024 231.629C193.45 231.644 198.775 230.382 203.411 227.983C217.662 220.642 225.29 203.541 223.821 182.244ZM127.225 226.563C119.81 222.741 115.614 213.693 115.715 202.04C129.405 201.941 140.036 205.525 144.527 211.837C146.871 215.129 147.253 218.968 145.716 222.922L133.916 212.878C133.185 212.287 132.211 211.962 131.202 211.973C130.194 211.984 129.231 212.33 128.517 212.937C127.804 213.544 127.398 214.364 127.385 215.222C127.372 216.08 127.754 216.909 128.448 217.532L140.248 227.576C135.603 228.884 131.097 228.559 127.225 226.563ZM199.403 222.358C192.926 225.695 185.312 225.95 177.577 223.181L203.532 201.085C204.226 200.463 204.608 199.634 204.595 198.776C204.582 197.917 204.176 197.097 203.463 196.49C202.75 195.883 201.786 195.537 200.778 195.526C199.769 195.515 198.796 195.84 198.064 196.431L172.105 218.499C168.837 211.915 169.132 205.43 173.072 199.92C179.811 190.457 195.792 185.181 216.255 185.589C216.719 203.002 210.532 216.622 199.403 222.358Z" fill="#2E6E3C"/>
</svg>
