<svg width="308" height="297" viewBox="0 0 308 297" fill="none" xmlns="http://www.w3.org/2000/svg">
<path d="M77 19.4622C90.5212 11.9092 111.265 23.04 125.767 20.0519C140.27 17.0639 155.104 -1.21023 170.073 0.33031C185.042 1.87085 195.289 22.6143 209.167 28.5818C223.045 34.5493 245.602 27.8289 257.016 37.7805C268.025 47.3786 263.654 69.7944 271.465 82.8835C279.275 95.9727 301.525 103.519 304.611 117.542C307.698 131.566 290.5 147.768 288.921 162.234C287.342 176.7 300.821 195.689 294.661 209.117C288.502 222.545 265.133 225.339 254.856 236.38C244.578 247.422 244.534 269.977 231 277.538C217.466 285.098 196.735 273.96 182.233 276.948C167.73 279.936 152.896 298.21 137.927 296.67C122.958 295.129 112.711 274.386 98.8328 268.418C85.0952 262.509 62.3983 269.171 50.9846 259.22C39.9754 249.621 44.3458 227.206 36.5352 214.116C28.7246 201.027 6.4753 193.481 3.38872 179.458C0.30214 165.434 17.4999 149.232 19.0792 134.766C20.6585 120.3 7.17917 101.311 13.3388 87.8828C19.4985 74.4547 42.8667 71.6611 53.1442 60.6196C63.4216 49.5782 63.4657 27.0226 77 19.4622Z" fill="#A7E4CB"/>
<path d="M178.59 87.1264C178.099 87.0092 177.637 86.7995 177.231 86.5093C176.825 86.2191 176.482 85.8541 176.223 85.4354C175.963 85.0167 175.792 84.5526 175.719 84.0697C175.646 83.5868 175.672 83.0947 175.797 82.6218C175.922 82.1488 176.142 81.7044 176.445 81.314C176.749 80.9235 177.129 80.5949 177.564 80.3469C178 80.099 178.481 79.9366 178.982 79.8692C179.483 79.8018 179.992 79.8307 180.481 79.9541C181.67 80.2459 182.826 80.5978 183.95 81.01C191.242 83.668 197.304 88.7632 201.037 95.3704C204.769 101.978 205.924 109.659 204.292 117.019C204.06 117.961 203.456 118.777 202.608 119.294C201.761 119.811 200.738 119.986 199.758 119.783C198.778 119.58 197.92 119.014 197.367 118.207C196.814 117.4 196.611 116.416 196.8 115.466C198.148 109.384 197.004 103.035 193.609 97.7517C190.213 92.468 184.831 88.6598 178.59 87.1264ZM174.807 101.471C174.317 101.354 173.855 101.144 173.449 100.854C173.043 100.564 172.7 100.199 172.44 99.78C172.181 99.3613 172.01 98.8972 171.937 98.4143C171.863 97.9314 171.89 97.4393 172.015 96.9664C172.139 96.4934 172.36 96.0489 172.663 95.6585C172.966 95.2681 173.347 94.9395 173.782 94.6915C174.217 94.4436 174.699 94.2812 175.2 94.2138C175.7 94.1464 176.21 94.1752 176.699 94.2987C180.887 95.327 184.522 97.8364 186.885 101.33C189.248 104.824 190.166 109.047 189.457 113.164C189.29 114.133 188.731 114.997 187.903 115.567C187.076 116.138 186.047 116.367 185.045 116.205C184.042 116.044 183.147 115.504 182.557 114.705C181.966 113.906 181.729 112.913 181.896 111.945C182.288 109.659 181.777 107.314 180.464 105.375C179.152 103.435 177.133 102.042 174.807 101.471ZM128.651 209.348C129.141 209.465 129.603 209.675 130.009 209.965C130.415 210.256 130.758 210.621 131.018 211.039C131.277 211.458 131.448 211.922 131.521 212.405C131.594 212.888 131.568 213.38 131.443 213.853C131.318 214.326 131.098 214.77 130.795 215.161C130.492 215.551 130.111 215.88 129.676 216.128C129.241 216.376 128.759 216.538 128.258 216.605C127.758 216.673 127.248 216.644 126.759 216.521C118.597 214.515 111.558 209.534 107.118 202.623C102.679 195.712 101.184 187.409 102.949 179.456C103.045 178.972 103.241 178.512 103.524 178.102C103.807 177.692 104.172 177.341 104.598 177.069C105.023 176.797 105.5 176.61 106.002 176.519C106.503 176.428 107.018 176.434 107.517 176.537C108.016 176.641 108.488 176.839 108.906 177.121C109.324 177.403 109.68 177.763 109.952 178.18C110.224 178.596 110.408 179.061 110.492 179.547C110.575 180.033 110.558 180.53 110.44 181.009C109.092 187.091 110.236 193.439 113.631 198.723C117.027 204.007 122.41 207.815 128.651 209.348ZM132.433 195.004C132.923 195.121 133.385 195.331 133.791 195.621C134.198 195.911 134.54 196.276 134.8 196.695C135.059 197.113 135.231 197.578 135.304 198.06C135.377 198.543 135.35 199.035 135.225 199.508C135.101 199.981 134.88 200.426 134.577 200.816C134.274 201.207 133.894 201.535 133.458 201.783C133.023 202.031 132.541 202.194 132.041 202.261C131.54 202.328 131.031 202.299 130.542 202.176C126.353 201.148 122.718 198.638 120.355 195.145C117.992 191.651 117.074 187.427 117.783 183.31C117.95 182.342 118.51 181.478 119.337 180.908C120.165 180.337 121.193 180.108 122.196 180.269C123.198 180.431 124.093 180.971 124.684 181.77C125.274 182.569 125.512 183.562 125.344 184.53C124.952 186.816 125.463 189.161 126.776 191.1C128.089 193.04 130.107 194.433 132.433 195.004ZM140.515 98.5241C142.216 97.5438 144.101 96.8994 146.061 96.6284C148.021 96.3574 150.017 96.4653 151.933 96.9457C153.85 97.4261 155.648 98.2694 157.224 99.4268C158.8 100.584 160.122 102.032 161.113 103.687L197.19 162.873C201.499 169.928 199.184 179.169 191.901 183.386L166.781 197.951C165.081 198.93 163.196 199.573 161.237 199.844C159.277 200.114 157.282 200.005 155.366 199.525C153.451 199.044 151.653 198.201 150.078 197.044C148.503 195.887 147.181 194.44 146.19 192.786L110.111 133.592C105.809 126.535 108.125 117.295 115.405 113.07L140.515 98.5241ZM160.389 180.06C160.635 180.481 160.965 180.849 161.361 181.144C161.757 181.439 162.21 181.653 162.693 181.776C163.176 181.898 163.68 181.926 164.175 181.856C164.67 181.787 165.145 181.623 165.573 181.373L177.711 174.336C178.584 173.824 179.217 173.004 179.475 172.05C179.734 171.096 179.597 170.082 179.095 169.223C178.85 168.803 178.519 168.434 178.124 168.14C177.728 167.845 177.275 167.63 176.791 167.508C176.308 167.385 175.804 167.358 175.309 167.427C174.815 167.497 174.339 167.661 173.912 167.911L161.779 174.939C160.902 175.45 160.267 176.271 160.007 177.227C159.748 178.184 159.885 179.2 160.389 180.06Z" fill="#28948C"/>
</svg>
