<svg width="308" height="297" viewBox="0 0 308 297" fill="none" xmlns="http://www.w3.org/2000/svg">
<path d="M77 19.4622C90.5212 11.9092 111.265 23.04 125.767 20.0519C140.27 17.0639 155.104 -1.21023 170.073 0.33031C185.042 1.87085 195.289 22.6143 209.167 28.5818C223.045 34.5493 245.602 27.8289 257.016 37.7805C268.025 47.3786 263.654 69.7944 271.465 82.8835C279.275 95.9727 301.525 103.519 304.611 117.542C307.698 131.566 290.5 147.768 288.921 162.234C287.342 176.7 300.821 195.689 294.661 209.117C288.502 222.545 265.133 225.339 254.856 236.38C244.578 247.422 244.534 269.977 231 277.538C217.466 285.098 196.735 273.96 182.233 276.948C167.73 279.936 152.896 298.21 137.927 296.67C122.958 295.129 112.711 274.386 98.8328 268.418C85.0952 262.509 62.3983 269.171 50.9846 259.22C39.9754 249.621 44.3458 227.206 36.5352 214.116C28.7246 201.027 6.4753 193.481 3.38872 179.458C0.30214 165.434 17.4999 149.232 19.0792 134.766C20.6585 120.3 7.17917 101.311 13.3388 87.8828C19.4985 74.4547 42.8667 71.6611 53.1442 60.6196C63.4216 49.5782 63.4657 27.0226 77 19.4622Z" fill="#A7E4CB"/>
<path d="M228.359 183.037H205.998L201.191 210.875L185.661 183.037H126.803V167.119H187.291V117.137H228.359V183.037ZM182.197 96.1252V162.026H123.342L107.809 189.873L102.999 162.026H80.6406V96.1252H182.197ZM116.527 140.55C116.527 137.323 112.625 135.707 110.343 137.989C108.061 140.271 109.677 144.173 112.905 144.173C114.906 144.173 116.528 142.551 116.528 140.55H116.527ZM135.93 140.55C135.908 137.329 132.008 135.736 129.737 138.022C127.467 140.307 129.085 144.198 132.307 144.198C134.317 144.198 135.943 142.561 135.93 140.55ZM155.332 140.55C155.332 137.323 151.43 135.707 149.148 137.989C146.866 140.271 148.482 144.173 151.71 144.173C153.71 144.173 155.332 142.551 155.332 140.55Z" fill="#28948C"/>
</svg>
