<?xml version="1.0" encoding="UTF-8"?>
<svg id="Layer_1" data-name="Layer 1" xmlns="http://www.w3.org/2000/svg" viewBox="0 0 100 78.32">
  <path d="M5.85.07l87.77-.07c3.58.28,6.17,3.02,6.38,6.6v65.13c-.3,3.79-2.8,6.3-6.6,6.6H6.64c-3.03-.24-5.32-1.85-6.27-4.76C-.38,51.24.27,28.76.05,6.38.24,3.18,2.68.51,5.85.07ZM97.61,14.07V5.96c0-1.23-1.66-3.12-2.91-3.36-29.73-.34-59.63-.34-89.36,0-1.1.15-2.91,2.15-2.91,3.15v8.33h95.18ZM97.61,16.45H2.43v56.13c0,1.28,2.55,3.58,3.99,3.36,29.42-.16,58.89.27,88.28-.21,1.18-.39,2.91-2.08,2.91-3.36V16.45Z"/>
  <path d="M87.39,4.15c.97-.15,1.84,1.43,2.58,1.9.53.09,2.35-3.01,3.64-1.49s-.76,2.59-1.61,3.56c4.03,2.61,1.04,5.83-1.84,1.84-2.79,3.82-5.72,1.13-2.07-1.87.09-.49-1.57-1.39-1.71-2.14-.16-.8.14-1.66,1.02-1.8Z"/>
  <path d="M13.24,8.07c0,2.14-1.74,3.88-3.88,3.88s-3.88-1.74-3.88-3.88,1.74-3.88,3.88-3.88,3.88,1.74,3.88,3.88ZM10.89,8.06c0-.85-.69-1.53-1.53-1.53s-1.53.69-1.53,1.53.69,1.53,1.53,1.53,1.53-.69,1.53-1.53Z"/>
  <path d="M32.74,8.06c0,2.14-1.74,3.88-3.88,3.88s-3.88-1.74-3.88-3.88,1.74-3.88,3.88-3.88,3.88,1.74,3.88,3.88ZM30.39,8.08c0-.85-.69-1.54-1.54-1.54s-1.54.69-1.54,1.54.69,1.54,1.54,1.54,1.54-.69,1.54-1.54Z"/>
  <path d="M22.98,8.07c0,2.14-1.73,3.87-3.87,3.87s-3.87-1.73-3.87-3.87,1.73-3.87,3.87-3.87,3.87,1.73,3.87,3.87ZM20.62,8.06c0-.85-.69-1.53-1.53-1.53s-1.53.69-1.53,1.53.69,1.53,1.53,1.53,1.53-.69,1.53-1.53Z"/>
  <g>
    <path d="M90.7,34.17v18.84s-81.36,0-81.36,0v-18.84s81.36,0,81.36,0ZM69.27,36.57H11.73v14.06h57.54v-14.06ZM88.31,36.57h-16.66v14.06h16.66v-14.06Z"/>
    <path d="M82.29,44.32c.17.27,3.57,1.71,4.17,2.43.22.27.36.55.3.91-.44,2.85-4.58-1.3-5.72-1.36-.45-.02-1.6.84-2.46.99-3.88.65-6.42-3.67-4.22-6.81s7.37-2.05,7.86,1.63c.07.54-.1,1.97.05,2.22ZM80,42.99c0-1.13-.92-2.05-2.05-2.05s-2.05.92-2.05,2.05.92,2.05,2.05,2.05,2.05-.92,2.05-2.05Z"/>
  </g>
</svg>