<?xml version="1.0" encoding="UTF-8"?>
<svg id="Layer_1" data-name="Layer 1" xmlns="http://www.w3.org/2000/svg" viewBox="0 0 82.77 100">
  <path d="M.99,77.78c-.21-.06-1.1-1.03-.98-1.39V16.92s.34-1.16.34-1.16L17.62.07,57.01.01c.47-.11,1.6.52,1.6.98v10.02h11.09c.07,0,.97.9.97.97v10.23h10.88c.49,0,1.39,1.23,1.19,1.82v74.33c.04.83-.27,1.27-1.03,1.55l-55.96.07c-.53.15-1.61-.49-1.61-.98v-10.02h-11.09c-.07,0-.97-.9-.97-.97v-10.23H.99ZM55.16,3.47H20.27v14.11c0,.39-1.2,1.4-1.62,1.4H3.47v55.14h51.69V3.47ZM16.61,15.32V6.06L6.48,15.32h10.12ZM67.01,14.67h-8.4v61.49c0,.36-.8,1.62-1.18,1.62H15.53v7.54h51.48V14.67ZM79.29,25.87h-8.62v61.92c0,.22-.75.97-.97.97H27.81v7.75h51.48V25.87Z"/>
  <g>
    <path d="M12.46,50.26l33.34-.06c2.23.18,2.29,3.45,0,3.67H12.83c-2.25-.07-2.61-3.22-.37-3.62Z"/>
    <path d="M12.24,63.61l34.3.07c1.76,1.67,1.03,3.35-1.39,3.56-10.27.86-21.71-.66-32.1,0-2.34-.01-2.9-2.74-.81-3.62Z"/>
    <path d="M12.24,23.98l34.3.07c1.76,1.67,1.03,3.35-1.39,3.56-10.26.86-21.71-.66-32.1,0-2.23-.1-2.95-2.74-.82-3.62Z"/>
    <path d="M12.02,37.12l33.99-.05c2.01,0,1.94,3.39,0,3.46H12.4c-1.66-.21-1.95-2.73-.38-3.41Z"/>
    <path d="M28.83,10.63l17.17-.04c1.98.32,2.08,3.39-.2,3.65-5.23.61-11.65-.46-17.01-.02-1.94-.3-1.95-3.36.04-3.6Z"/>
  </g>
</svg>