<?xml version="1.0" encoding="UTF-8"?>
<svg id="Layer_1" data-name="Layer 1" xmlns="http://www.w3.org/2000/svg" viewBox="0 0 90.93 100">
  <path d="M79.99,13.68c.79.78,1.32,2.09,1.44,3.2.42,4.21-.35,9.02.05,13.29,2.99,3.02,6.79,5.37,9.45,8.65v57.45c-.11,1.91-1.75,3.69-3.72,3.73H3.73c-1.95-.04-3.61-1.82-3.73-3.73v-57.24s.54-1.16.54-1.16l8.48-7.24.04-14.21c.22-1.99,1.97-3.74,3.96-3.96,5.37-.58,11.67.48,17.13-.05,4.54-3.31,8.54-7.61,12.95-11.02,1.08-.84,2.04-2,3.49-1.01l14.19,12.04c5.33.5,11.46-.52,16.69.05.9.1,1.89.59,2.52,1.21ZM55.42,12.47l-9.87-8.58-10.03,8.58h19.9ZM13.29,15.91c-.47.23-.85.63-.85,1.18l.13,29.3,32.67,27.96h.47l32.3-27.65-.08-30.15-.57-.57-64.06-.07ZM81.43,43.68l5.2-4.41-5.2-4.41v8.82ZM9.06,43.23v-8.14l-4.75,4.18c.44.26,4.56,4.21,4.75,3.96ZM3.4,93.43l29.39-25.22L3.4,43v50.43ZM87.53,93.43v-50.43l-29.39,25.22,29.39,25.22ZM85.72,96.6l-30.07-25.92-.45.02-8.61,7.46c-.74.53-1.5.47-2.24,0-2.26-1.43-5.11-4.64-7.37-6.43-.29-.23-1.33-1.12-1.54-1.1l-30.23,25.98h80.51Z"/>
  <path d="M51.57,46.17c-4.72,4.38-12.93,2.49-15.1-3.56-3.24-9.02,7.02-16.58,14.54-10.69.04-2.22,3.22-2.82,3.52-.58.52,3.95-.54,9.07.05,13.07.66,4.53,4.79,1.98,5.83-1.29,4.45-13.93-13.54-25.83-25.34-15.85-12.73,10.77-1.85,31.6,14.75,26.96,1.53-.43,4.23-2.38,5.38-.96,2.23,2.73-5.45,4.6-7.16,4.84-22.64,3.25-30.68-29.11-9.48-36.84,14.75-5.38,30.65,9.44,24.65,23.97-2.28,5.52-9.33,7.26-11.65.91ZM51.18,39.22c0-3.29-2.67-5.96-5.96-5.96s-5.96,2.67-5.96,5.96,2.67,5.96,5.96,5.96,5.96-2.67,5.96-5.96Z"/>
</svg>