<?xml version="1.0" encoding="UTF-8"?>
<svg id="Layer_1" data-name="Layer 1" xmlns="http://www.w3.org/2000/svg" viewBox="0 0 98.6 100">
  <path d="M27.16.05l43.96-.05c3.17.44,6.29,2.17,8.24,4.71,4.13,5.38,2.06,12.9,2.72,19.19,3.21,2.28,6.74,4.12,9.96,6.37,4.13,2.9,5.98,5.88,6.28,11.05.87,15.1-.67,31.03-.01,46.22-.32,6.48-5.37,11.88-11.84,12.46H12.16c-6.76-.66-11.42-5.96-11.85-12.65-.97-15.17.75-31.35,0-46.63.4-4.82,2.44-7.77,6.28-10.45,3.22-2.25,6.75-4.1,9.96-6.37.61-5.32-.9-11.68,1.26-16.67C19.45,3.45,23.07.69,27.16.05ZM28.36,4.84c-3.4.32-6.18,2.83-6.71,6.24l.08,36.93,18.57,15.31c.51.13,1.99-1.19,2.59-1.53,4.13-2.35,8.89-2.35,12.99.08.68.4,1.9,1.71,2.6,1.38l18.49-15.38.04-36.42c-.44-3.74-3.39-6.35-7.08-6.66l-41.57.06ZM16.65,29.68l-8.03,5.01-1.32,1.44,9.35,7.69v-14.14ZM81.98,43.82l9.35-7.69-1.32-1.44-8.03-5.01v14.14ZM5.29,40.83v47.91c0,.33.73,2.06.95,2.43.1.16-.06.33.34.25l30.18-24.7L5.29,40.83ZM93.34,88.74v-47.91l-31.47,25.89,30.18,24.7c.34,0,1.24-2.28,1.29-2.69ZM88.16,94.81l-.29-.6c-11.93-9.48-23.28-19.78-35.57-28.77-3.39-1.23-5.81-.38-8.54,1.61-11.15,8.15-21.45,18.49-32.58,26.78l-.7.89,2.48.51h72.72s2.48-.41,2.48-.41Z"/>
  <path d="M68.71,31.35c0,10.72-8.69,19.4-19.4,19.4s-19.4-8.69-19.4-19.4,8.69-19.4,19.4-19.4,19.4,8.69,19.4,19.4ZM61.67,39.04c-2.04.07-3.8-.65-5.45-1.77-6.26,6.73-17.07,1.86-15.81-7.44.72-5.31,6.57-8.68,11.59-7.11.64.2,1.6.89,2.05.95.49.07,1.29-.54,1.95-.53.91.01,2.13.96,2.28,1.87.39,2.46-1.22,8.49,2.31,9.04,4.95.77,3.08-6.34,1.91-8.88-5.17-11.25-21.68-10.97-26.56.4-5.41,12.59,7.95,25,20.13,18.73,2.24-1.15,4.28-3.13,5.6-5.25ZM53.53,31.37c0-2.33-1.89-4.22-4.22-4.22s-4.22,1.89-4.22,4.22,1.89,4.22,4.22,4.22,4.22-1.89,4.22-4.22Z"/>
</svg>