<?xml version="1.0" encoding="UTF-8"?>
<svg id="Layer_1" data-name="Layer 1" xmlns="http://www.w3.org/2000/svg" viewBox="0 0 60.84 100">
  <path d="M32.05,22.99c2.51.57,4.44,2.03,6.06,3.98.36.44.97,1.8,1.06,1.86.39.25,4.19-.38,2.88,2.33-.46.95-2.1.29-1.62,1.62.23.63,2.75.19,2.47,2-.25,1.63-2.13,1.09-2.25,1.2-.06.05-.06,1.47,0,1.53.12.11,2.54-.33,2.25,1.59-.25,1.63-2.14,1.09-2.25,1.2-.05.05-.05,1.47,0,1.52.09.09,1.28-.18,1.79.44.6.73.66,4.99,1.04,6.52,1.26,5.12,5.46,7.6,7.46,12.36,6.27,14.89-4.26,30.87-20.19,31.25.08.45.74.42,1.03.87.44.66.41,5.58-.15,6.23-.62.72-1.86.67-2.38-.14-.44-.69-.47-5.89.03-6.39.28-.28.98-.11.96-.56-16.61-.21-27.3-17.93-19.44-32.78,2.64-4.99,6.81-6.51,7.47-12.86.13-1.23-.22-3.03.22-4.1.54-1.29,1.94-.68,2.1-.83.06-.05.06-1.47,0-1.53-.2-.19-1.9.58-2.05-1.14-.21-2.35,1.81-1.42,2.05-1.65.05-.05.06-1.47,0-1.53-.15-.14-1.83.44-2.04-.9-.38-2.51,1.96-1.49,2.26-2.3.52-1.4-2.1-.74-1.45-2.96.43-1.44,2.22-.69,2.7-.98.09-.06.7-1.42,1.06-1.86,1.71-2.07,3.55-3.28,6.1-4.11l.11-22.19c.86-.98,2.29-.9,2.67.39l.04,21.94ZM35.82,28.87c-2.71-3.98-7.71-3.98-10.42,0h10.42ZM23.63,33.19h13.97c-.14-.47-.08-1.36-.62-1.29h-12.94s-.41,1.29-.41,1.29ZM23.63,35.99v1.52h14.23v-1.52h-14.23ZM23.63,40.3v1.52h14.23v-1.52h-14.23ZM26.68,44.88h-5.34c-.11,3.58-.95,7.29-3.2,10.14-4.51,5.73-7.57,8.42-6.96,16.66,1.73,23.48,37.02,23.16,38.61,0,.83-11.98-7.35-13.59-9.32-22.68-.31-1.42-.27-2.73-.58-4.12h-4.83v17.53c3.06-.26,6.14.22,7.5,3.3,2.19,4.99-2.27,10.24-7.41,7.92-1.27-.57-3.13-2.87-3.13-4.24v-3.94h-2.54v4.19c0,.86-1.65,3.13-2.45,3.64-5.95,3.8-11.62-4.73-6.95-9.24.4-.39,2.51-1.64,2.93-1.64h3.68v-17.53ZM32.01,44.88h-2.54v17.53h2.54v-17.53ZM26.68,65.46c-1.68.13-3.54-.54-4.71,1.01-2.19,2.87,1.78,6.79,3.95,3.7.89-1.27.76-3.2.76-4.7ZM35.06,65.46v3.94c0,.25.99,1.32,1.29,1.5,2.64,1.52,4.8-1.85,3.33-4.35-1.01-1.72-2.96-.93-4.63-1.09Z"/>
  <path d="M5.03,69.09c.49-.02.83-.15,1.39-.02,1.26.28,1.65,2.01.54,2.72-.82.52-5.93.9-6.56.01-1.82-2.57,3.19-2.66,4.63-2.71Z"/>
  <path d="M54.55,69.07c.58-.13,5.18.34,5.66.58.95.48.82,2.43-.39,2.66-.81.16-4.67-.1-5.47-.36-1.39-.44-1.3-2.55.2-2.88Z"/>
  <path d="M7.56,77.69c1.59-.27,2.53,1.5,1.32,2.61-.22.2-4.49,2.34-4.75,2.38-1.28.19-2.44-1.39-1.09-2.64.38-.35,4.08-2.28,4.52-2.36Z"/>
  <path d="M52.78,77.69c.67-.12,4.41,1.73,5.02,2.24,1.52,1.28.39,2.96-.96,2.76-.26-.04-4.53-2.18-4.75-2.38-.93-.86-.63-2.39.68-2.62Z"/>
  <path d="M12.63,85.83c1.33-.4,2.28,1.02,1.72,2.24-.18.4-3.11,3.03-3.58,3.27-1.42.75-2.87-.36-2.09-1.84.22-.42,3.65-3.58,3.96-3.68Z"/>
  <path d="M47.44,85.83c.4-.12.71-.09,1.08.08.28.13,3.29,2.92,3.56,3.3,1.1,1.54-.21,2.88-1.71,2.22-.46-.2-3.39-2.8-3.64-3.23-.48-.83-.28-2.09.7-2.38Z"/>
  <path d="M2.98,59.41c.74-.22,4.41.93,5.13,1.37,1.42.86.81,2.96-.59,2.9-.45-.02-4.24-1.39-4.71-1.67-1.14-.69-1.02-2.25.16-2.6Z"/>
  <path d="M56.85,59.42c1.9-.27,2.92,1.4,1.47,2.49-.38.29-4.41,1.75-4.86,1.77-1.34.05-1.96-1.88-.74-2.8.37-.28,3.6-1.38,4.13-1.46Z"/>
  <path d="M20.77,91.16c1.13-.21,1.99.72,1.8,1.8-.04.26-1.95,4.08-2.12,4.25-1.04,1.02-2.75.03-2.56-1.27.13-.87,2-4.61,2.88-4.78Z"/>
  <path d="M39.57,91.16c.57-.1,1.06.06,1.45.48.29.32,1.9,3.63,2.01,4.11.33,1.49-1.42,2.51-2.5,1.46-.16-.16-1.98-3.76-2.06-4.05-.22-.9.13-1.82,1.09-1.99Z"/>
</svg>