<?xml version="1.0" encoding="UTF-8"?>
<svg id="Layer_1" data-name="Layer 1" xmlns="http://www.w3.org/2000/svg" viewBox="0 0 89.73 95.43">
  <g>
    <path d="M83.91,28.99v4.18h4.28c.82,0,1.24,1.18,1.31,1.88.73,8.1-.58,17.3,0,25.51.06.63-.71,1.69-1.3,1.69h-4.28v4.18h4.08c.56,0,1.59,1.02,1.5,1.69l-.09,26.41c-.16.41-.48.73-.9.9H1.23c-.58-.23-.97-.76-.99-1.4.58-8.27-.75-17.56,0-25.71.07-.77.63-1.88,1.5-1.88h4.08v-4.18H1.54c-.82,0-1.24-1.18-1.31-1.88-.73-8.1.58-17.3,0-25.51-.06-.63.71-1.69,1.3-1.69h4.28v-4.18H1.74c-.56,0-1.59-1.02-1.5-1.69L.33.9c.16-.42.48-.73.9-.9h87.27c.58.23.97.76.99,1.4-.58,8.27.75,17.56,0,25.71-.07.77-.63,1.88-1.5,1.88h-4.08ZM3.63,3.1v22.51h82.47V3.1H3.63ZM9.01,28.99v4.18h71.71v-4.18H9.01ZM3.63,36.56v22.31h82.47v-22.31H3.63ZM9.01,62.26v4.18h71.71v-4.18H9.01ZM86.1,69.83H3.63v22.51h82.47v-22.51Z"/>
    <g>
      <path d="M49.39,12.71l26.64-.05c2.32.07,2.32,3.31,0,3.39h-26.29c-2.26-.17-2.63-2.78-.35-3.34Z"/>
      <path d="M23.53,14.35c0,3.2-2.6,5.8-5.8,5.8s-5.8-2.6-5.8-5.8,2.6-5.8,5.8-5.8,5.8,2.6,5.8,5.8ZM20.18,14.36c0-1.36-1.1-2.46-2.46-2.46s-2.46,1.1-2.46,2.46,1.1,2.46,2.46,2.46,2.46-1.1,2.46-2.46Z"/>
      <path d="M36.16,14.35c0,3.2-2.6,5.8-5.8,5.8s-5.8-2.6-5.8-5.8,2.6-5.8,5.8-5.8,5.8,2.6,5.8,5.8ZM32.85,14.36c0-1.36-1.1-2.47-2.47-2.47s-2.47,1.1-2.47,2.47,1.1,2.47,2.47,2.47,2.47-1.1,2.47-2.47Z"/>
    </g>
    <g>
      <path d="M48.99,46.17l27.94.06c1.13.74,1.14,2.23,0,2.98l-27.59.11c-1.75-.17-1.97-2.55-.35-3.15Z"/>
      <path d="M23.52,47.72c0,3.2-2.6,5.8-5.8,5.8s-5.8-2.6-5.8-5.8,2.6-5.8,5.8-5.8,5.8,2.6,5.8,5.8ZM20.18,47.72c0-1.35-1.1-2.45-2.45-2.45s-2.45,1.1-2.45,2.45,1.1,2.45,2.45,2.45,2.45-1.1,2.45-2.45Z"/>
      <path d="M36.17,47.72c0,3.2-2.6,5.8-5.8,5.8s-5.8-2.6-5.8-5.8,2.6-5.8,5.8-5.8,5.8,2.6,5.8,5.8ZM32.83,47.72c0-1.36-1.1-2.46-2.46-2.46s-2.46,1.1-2.46,2.46,1.1,2.46,2.46,2.46,2.46-1.1,2.46-2.46Z"/>
    </g>
  </g>
  <g>
    <path d="M49.39,79.44l26.64-.05c2.32.07,2.32,3.31,0,3.39h-26.29c-2.26-.17-2.63-2.78-.35-3.34Z"/>
    <path d="M23.53,81.08c0,3.2-2.6,5.8-5.8,5.8s-5.8-2.6-5.8-5.8,2.6-5.8,5.8-5.8,5.8,2.6,5.8,5.8ZM20.18,81.09c0-1.36-1.1-2.46-2.46-2.46s-2.46,1.1-2.46,2.46,1.1,2.46,2.46,2.46,2.46-1.1,2.46-2.46Z"/>
    <path d="M36.16,81.08c0,3.2-2.6,5.8-5.8,5.8s-5.8-2.6-5.8-5.8,2.6-5.8,5.8-5.8,5.8,2.6,5.8,5.8ZM32.85,81.09c0-1.36-1.1-2.47-2.47-2.47s-2.47,1.1-2.47,2.47,1.1,2.47,2.47,2.47,2.47-1.1,2.47-2.47Z"/>
  </g>
</svg>