<?xml version="1.0" encoding="UTF-8"?>
<svg id="Layer_1" data-name="Layer 1" xmlns="http://www.w3.org/2000/svg" viewBox="0 0 99.55 100">
  <path d="M82.57,11c.52.3,1.41-.23,2.03-.2,1.49.08,3.45.92,4.52,1.98.5.5,1.24,2.12,1.35,2.18.14.09,2.23.25,2.84.41,9.16,2.43,8.08,15.81-2.16,16.59-9.47.72-19.83-.57-29.39,0-4.7-.13-7.79-5.01-5.17-9.14,1.5-2.36,3.53-1.93,4.34-2.72.69-.67.94-2.49,2.54-3.68.65-.48,2.5-1.08,2.62-1.19.23-.23.36-1.87.54-2.42,2.25-6.5,9.99-8.26,14.88-3.41.32.32.98,1.55,1.08,1.61ZM73.69,9.99c-1.86.34-3.79,2.55-4.09,4.38-.25,1.52.58,3.53-1.4,3.97-.86.19-1.5-.1-2.45.38-2,1.01-1.38,3.49-2.41,4.37-1.1.93-2.91-.31-4.11,1.54s.12,3.76,2.23,3.96c9.68.88,20.69-.69,30.51-.01,4.44-.66,5.97-6.39,2.38-9.15-2.42-1.86-4.31-.32-5.7-1.07-.95-.52-.82-1.76-1.5-2.75-2.03-2.94-4.27-.5-5.78-.98-.98-.31-1.37-2.12-2.13-2.96-1.39-1.54-3.54-2.03-5.55-1.66Z"/>
  <g>
    <path d="M55.97,75.44v11.86c1.65.05,3.44-.25,4.95.55,2.16,1.15,1.32,3.71,1.55,3.95.42.43,3.45-.36,3.92,2.71.34,2.21.57,4.98-2.09,5.22-9.24.84-19.74-.67-29.11,0-3.05.43-2.47-5.69-1.26-6.94.89-.92,2.99-.87,3.1-.99.15-.15-.43-2.79,1.37-3.86,1.55-.92,3.43-.61,5.14-.65v-11.86H11.78c-1.41,0-2.42-3.26-1.64-4.47,4.31-9.45,6.87-20.69,11.25-29.98,1.18-2.5,2.28-3.18,5.07-3.4,15.14.81,31.32-1.04,46.33,0,2.94.2,4.09.73,5.35,3.4,4.44,9.43,7.03,20.82,11.37,30.42.61,1.14-.54,4.03-1.77,4.03h-31.77ZM31.4,40.99h-6.07c-.68,0-2.18,4.53-2.4,5.37h6.92c.98-1.54.81-3.67,1.55-5.37ZM42.13,40.99h-7.62l-1.13,5.37h8.47l.28-5.37ZM44.96,46.35h9.6l-.58-5.35-8.29-.03c-.45.08-.48,4.62-.73,5.38ZM65.01,40.99h-7.62l.28,5.37h8.47l-1.13-5.37ZM76.59,46.35c-.22-.83-1.72-5.37-2.4-5.37h-6.07c.74,1.69.58,3.83,1.55,5.37h6.92ZM29.43,49.46h-7.91l-1.98,5.65h8.47l1.41-5.65ZM41.57,49.46h-9.04l-1.13,5.65h9.6l.56-5.65ZM54.84,49.46h-10.17l-.28,5.65h10.73l-.28-5.65ZM66.98,49.46h-9.04l.56,5.65h9.6l-1.13-5.65ZM78,49.46h-7.91l1.41,5.65h8.47l-1.98-5.65ZM27.17,58.21h-8.61l-2.12,5.37h9.6l1.13-5.37ZM40.72,58.21h-10.17l-1.13,5.37h11.01l.28-5.37ZM43.55,63.58h12.42l-.59-5.33h-11.24l-.59,5.33ZM68.96,58.21h-10.17l.28,5.37h11.01l-1.13-5.37ZM83.08,63.58l-2.12-5.37h-8.61l1.13,5.37h9.6ZM25.19,66.97h-10.17l-1.98,5.37h11.01l1.13-5.37ZM40.16,66.97h-11.44c-.94,1.54-.78,3.68-1.55,5.37h12.42l.56-5.37ZM56.25,66.97h-12.99l-.28,5.37h13.55l-.28-5.37ZM72.35,72.33c-.78-1.69-.61-3.83-1.55-5.37h-11.44c.5,1.71.22,3.6.56,5.37h12.42ZM84.49,66.97h-10.17l1.13,5.37h11.01l-1.98-5.37ZM52.58,75.44h-5.65v11.86h5.65v-11.86ZM59.36,90.69h-19.2v1.13h19.2v-1.13ZM63.31,95.21h-27.11v1.13h27.11v-1.13Z"/>
    <path d="M23.72,16.71c0,3.91-3.17,7.09-7.09,7.09s-7.09-3.17-7.09-7.09,3.17-7.09,7.09-7.09,7.09,3.17,7.09,7.09ZM20.44,16.71c0-2.12-1.72-3.84-3.84-3.84s-3.84,1.72-3.84,3.84,1.72,3.84,3.84,3.84,3.84-1.72,3.84-3.84Z"/>
    <path d="M33.02,15.65c.73.91.22,2.42-.97,2.69-1.7.38-7.33.55-5.87-2.48.61-1.27,6.1-1.13,6.84-.21Z"/>
    <path d="M1.39,15.07c1.37-.3,4.91-.38,5.7.97,1.55,2.66-4.42,2.68-5.91,2.23-1.66-.51-1.54-2.81.22-3.2Z"/>
    <path d="M8.17,22.97c1.44-.44,2.86.77,2.2,2.2-.11.23-3.3,3.42-3.53,3.53-1.44.66-3.01-.47-2.32-2.04.19-.43,3.31-3.58,3.66-3.69Z"/>
    <path d="M28.51,4.91c.5.5.42,1.48.08,2.07-.13.22-3.19,3.27-3.41,3.37-1.78.82-3.24-.84-1.84-2.68.89-1.16,3.68-4.23,5.16-2.75Z"/>
    <path d="M23.99,22.97c.6-.13.83-.09,1.36.22.23.13,3.27,3.19,3.37,3.41.75,1.61-.72,2.82-2.39,2.11-.2-.09-2.91-2.79-3.11-3.1-.7-1.04-.54-2.35.78-2.63Z"/>
    <path d="M5.34,4.61c.49-.15,1.03-.12,1.49.1.21.1,3.03,2.93,3.24,3.26,1.04,1.61-.46,3.13-2.1,2.38-.22-.1-3.02-2.93-3.24-3.26-.57-.87-.46-2.15.6-2.47Z"/>
    <path d="M17.78.39c.6.6.76,6.27-.5,6.85-2.83,1.28-2.53-4.41-2.25-5.92.22-1.2,1.92-1.75,2.75-.93Z"/>
    <path d="M16.37,26.06c.65-.13,1.35.21,1.62.81.24.55.28,4.79.09,5.44-.43,1.51-2.81,1.46-3.06-.49-.19-1.5-.48-5.4,1.35-5.76Z"/>
  </g>
</svg>