<?xml version="1.0" encoding="UTF-8"?>
<svg id="Layer_1" data-name="Layer 1" xmlns="http://www.w3.org/2000/svg" viewBox="0 0 92.22 100">
  <path d="M35.16,71.89c5.56-.59,8.15-5.33,7.19-10.54-.5-2.72-2.34-3.9.72-6.08-2.89-2.76-4.52-6.73-4.66-10.73-.03-.79.44-1.66.15-2.61-.07-.25-1.94-2.15-2.36-2.76-5.94-8.75-3.32-21.09,5.98-26.28,1.26-.7,4.56-1.59,5.13-2,.13-.09,1.01-2.41,1.3-2.94,5.79-10.55,21.7-10.5,27.73-.45.38.63,1.28,2.94,1.58,3.22.22.21,2.08.54,2.68.78,11.09,4.34,15.67,18.8,7.3,28.16-.35.39-1.13.61-1.29,1.16-.2.66.23,2.7.17,3.74-.24,4.23-2.49,8.75-5.69,11.48-4.45,3.79-11.17,4.13-16.61,2.68v19.85c2.55.52,5.2,1.93,6.78,4.03.37.49,1.14,2.24,1.25,2.32.33.25,2.27.48,3.01.78,1.46.59,2.82,1.71,3.63,3.06.29.49.57,1.59.77,1.8s1.7.81,2.25,1.21c1.53,1.12,2.57,2.8,3.08,4.62.33.22,3.68-.09,4.53.04,2.09.33,1.95,3.31.02,3.57l-88.73-.06c-.87-.51-1.18-1.06-1.06-2.08.22-2,3.06-1.34,4.47-1.45.14-2.3,1.47-4.62,3.37-5.89.49-.33,2.14-.94,2.33-1.24.19-.32.14-1,.32-1.46,1.82-4.63,5.46-6.85,10.39-6.8.43,0,.97.28,1.29.2.49-.12,2.24-2.1,3.28-1.97v-3.57h-6.36c-.74,0-3.05-.75-3.83-1.07-5.11-2.13-7.46-7.25-6.98-12.64.06-.73.89-3.34.85-3.54-.03-.14-1.47-1.81-1.75-2.25-2.82-4.51-2.54-9.91.05-14.46.31-.55,1.66-2.18,1.7-2.53.02-.22-.8-1.98-.96-2.53-1.76-6.42,1.97-13.13,8.56-14.52.02-2.24-.17-4.02.65-6.15,1.66-4.31,6.38-7.28,11.02-6.7,1.96.24,8.78,2.8,6.09,5.53-1.55,1.58-2.87-.52-4.21-1.17-3.72-1.81-8.48.04-9.58,4.1-.62,2.27-.07,4.25-.39,6.3-.29,1.86-3.02,1.56-4.51,2.18-3.82,1.61-5.42,6.88-3.7,10.52.48,1.02,1.47,1.68,1.31,2.91-.11.82-1.65,2.16-2.19,2.96-2.44,3.6-3.11,7.96-.67,11.74.59.92,2.52,2.34,2.64,2.95.23,1.21-.97,3.02-1.11,4.45-.32,3.25.2,6.81,3.14,8.68.61.38,3.08,1.47,3.66,1.47h6.58v-6.13c0-.54-6.96-6.41-7.48-7.68-.57-1.64.76-2.92,2.42-2.42.96.29,3.84,4.24,5.06,4.86v-16.84c-1.99-2.27-4.66-4.29-6.58-6.58-.85-1.01-1.87-1.93-1.05-3.29,1.86-3.08,6.03,3.55,7.63,4.4v-9.03c0-.64,1.28-1.24,1.9-1.23s1.67.71,1.67,1.23v19.07c1.83-1.16,5.43-6.7,7.47-6.7,1.38,0,2,1.53,1.57,2.7l-9.04,9.24v18.4c1.96-.15,4.2.2,6.13,0ZM73.86,10.55c-2.51-4.58-7.07-7.32-12.37-6.91s-10.53,4.83-11.2,10.43c-.2,1.66.76,6.59-1.92,6.45s-1.82-3.53-1.7-5.18c.02-.34.03-.39-.34-.34-.84.12-3.71,1.86-4.46,2.46-7.23,5.82-6.82,18.61,1.44,23.31,1.41.8,3.72,1.23,4.77,1.92.86.56.99,1.6.46,2.42-1.59,2.44-5.98-1.08-6.34-.66-.04,10.13,10.41,12.74,18.52,10.13l-.06-13.32c-3.05-3.19-6.52-5.97-9.77-8.97-1.41-1.98.52-4.15,2.53-2.75l7.29,6.65v-8.14c0-1.28,2.16-1.95,3.12-1.11.16.14.67,1.21.67,1.33v15.72l7.5-6.66c1.8-.94,3.4.76,2.55,2.55l-9.94,9.02c-.16.26-.22,5.26-.08,5.66.2.59,4.22,1.2,4.99,1.25,8.3.59,14.11-5.2,13.5-13.5-.11-1.49-1.38-5.08-.96-6.07.65-1.49,3.22-1.21,3.51.39,7.36-7.32.53-21.49-9.15-22.3-1.6-.13-5.26.35-6.44-.26-1.75-.9-.87-3.54.64-3.54h3.23ZM60.7,58.28c-3.97,1.27-8.05,1.21-12.05.11-.96-.27-1.98-1.21-2.97-.58-.72.46.4,2.86.5,3.72.74,6.63-3.7,14.14-11.02,14.14h-6.13v2.9c3.69.17,7.93,1.9,9.86,5.19.21.37.58,1.64.65,1.69.09.06,1.41.09,1.9.22.84.22,1.6.64,2.41.93,1.32-3.22,4.81-5.5,8.27-5.8.85-.07,2.66.25,3.09.17.15-.03,1.1-.93,1.49-1.16,1.28-.75,2.51-1.26,4-1.47v-20.07ZM81.22,96.42c-.36-2.07-3.55-2.22-4.37-3.11s-.22-2.46-1.44-3.47c-1.79-1.47-4.69-.56-5.68-1.45-.7-.63-.57-1.93-.96-2.83-1.32-3.08-6.69-4.42-9.56-3.01-1.22.6-1.74,1.94-2.73,2.18-1.1.26-2.99-.28-4.36-.13-2.64.3-5.14,2.62-5.42,5.31-.12,1.14,1.32,1.26,2.25,1.88,1.58,1.04,2.85,2.78,3.28,4.64h28.99ZM48.21,96.42c-.47-2.08-3.47-1.84-4.36-2.89s-.23-2.63-2.03-3.77-3.78-.3-4.88-.92c-.98-.55-.73-1.93-1.13-2.89-1.36-3.3-6.69-4.48-9.69-3.04-1.12.54-1.85,1.91-2.6,2.08-1.16.26-3.13-.35-4.62-.16-2.42.32-4.38,2.27-5.02,4.57-.25.89-.11,1.8-.58,2.54-.65,1.02-1.55.75-2.46,1.11-1.29.51-2.54,1.91-2.55,3.36h39.92Z"/>
</svg>