<?xml version="1.0" encoding="UTF-8"?>
<svg id="Layer_1" data-name="Layer 1" xmlns="http://www.w3.org/2000/svg" viewBox="0 0 99.94 100">
  <circle cx="60.94" cy="57.46" r="1.68"/>
  <g>
    <circle cx="79.21" cy="90.71" r="1.7"/>
    <circle cx="70.62" cy="90.72" r="1.69"/>
    <circle cx="79.19" cy="75.13" r="1.69"/>
    <circle cx="70.61" cy="75.12" r="1.68"/>
  </g>
  <g>
    <path d="M49.82,80.62c-1.7.25-3.42.67-5.14.84-19.62,1.89-38-10.87-43.18-29.77C-6.71,21.78,20.08-5.92,50.2,1.1c23.61,5.5,37.26,30.9,28.97,53.73,4.7.13,9.78.59,14.3,1.95,2.29.69,6.2,2.11,6.46,4.86v31.47c-.05,1.65-1.82,2.88-3.15,3.56-8.61,4.43-35.24,4.45-43.83,0-.77-.4-3.14-2.05-3.14-2.94v-13.1ZM51.92,20.56c-.18-.87,0-2.85,0-3.88,0-.08-1.37-.42-1.56-.41-.87.04-2.33.87-3.22,1s-4.43-1.24-4.85-1.97c-.45-.79.23-4.71.76-5.49.29-.42,3.5-2.85,4.03-3.1.65-.31,2.37-.33,2.5-.54.1-.16.11-1.54-.09-1.67-.51-.35-4.98-.97-5.86-1.02-4.24-.27-8.85.17-12.94,1.32-1.15.32-4,1.22-4.93,1.78-1.03.62-1.03,2.95-1.73,3.93-.5.7-2.55,1.51-2.84,1.99-.4.67.26,2.31-.52,3.26-.68.82-3.06,1.23-3.77,1.89-1.38,1.27-1.82,5.77-1.43,7.49.25,1.13,2.14,2.29,2.05,3.6-.05.76-1.44,2.57-1.82,3.42-.16.36-.83,2.04-.84,2.29-.03.83,1.26,2.43,1.4,3.33.29,1.85-.31,4.37.26,6.24.13.44,1.73,1.27,2.1,2.09.67,1.49.3,4.13.85,5.86.42,1.32,2.27,3.39,2.42,4.52s-1.79,3.36-2.31,4.52c-.22.49-.99,2.59-1.01,3-.02.56,1.01,1.84,1.26,2.48.38.95.48,2.08.92,3.06.27.59,2.54,4.21,2.9,4.54.62.56,4.54,1.99,5.55,2.31,1.79.57,7.97,2.11,9.49,1.64.33-.1,3.93-2.18,4.25-2.45,1.91-1.59-.53-2.4-.87-3.89s.38-3.18,0-4.41c-.81-2.6-2.61-2.72-4.14-4.46-.37-.43-1.48-2.4-1.61-2.47-.37-.22-2.93.07-3.9-.19-1.04-.27-2.06-1.38-3.04-1.78-1.58-.66-5-.59-5.37-2.59-.1-.56-.14-3.23-.25-3.41-.21-.33-2.58-.82-2.86-2.07-.46-2.07.24-5.12-.27-7.49-.32-1.45-2.2-4.42-2.04-5.62.09-.72,3.2-4.66,3.93-4.89s4.08-.19,4.92-.08c1.07.14,2.96,1.29,3.78,1.23,1.33-.09,3.05-2.46,4.49-.49.82,1.13,1.91,5.06,2.65,5.73,1.2,1.09,1.34-1.4,1.37-2.19.07-1.87-.61-3.43-.64-5.05-.05-2.07,2.83-2.1,3.93-3.09.82-.74,2.01-3.82,3.15-4.07.73-.16,3.57-.16,4.34-.04.51.08,1.43.81,1.59.73.18-.08,1.24-1.67,1.22-1.87-.04-.41-1.32-1.98-1.43-2.55ZM76.02,28.21c-.07-.05-1.17.48-1.78.43-.67-.05-1.01-.49-1.52-.6-.59-.12-1.21.04-1.8-.09-.3-.07-2.77-1.61-2.97-1.85-.59-.73-.64-2.94-.52-3.85.2-1.43,2.64-4.12,1.98-5.57-.14-.3-3.56-3.64-4.09-4.1-3.52-3.1-7.76-5.43-12.16-7.02.58,5-2.39,3.2-4.9,4.43-.93.45-2.91,2.03-2.62,3.21.34,1.39,4.17-.57,5.08-.5.46.03,3.71,1.36,4.02,1.66.98.98.28,3.91.56,5.31s1.99,2.39,1.59,4.2c-.14.61-2.99,4.77-3.57,5.02-1.54.66-2.54-1.1-3.62-1.3-.33-.06-1.76-.09-2.04-.01s-1.9,2.97-2.47,3.45-1.78.86-2.49,1.19c-.12.17.61,3.07.61,3.65,0,.86-.48,3.62-.68,4.55-.17.77-.33,1.69-1.19,1.95-.74.23-4.48-.16-5.13-.56-.89-.55-2.43-5.58-2.95-5.62-.14,0-1.03.63-1.36.72-1.68.44-3.42-1.05-4.98-1.32-.66-.11-2.88-.19-3.3.16-.1.08-1.22,1.57-1.26,1.69-.32.92,1.32,3.47,1.55,4.72.11.57.2,1.85.24,2.49.08,1.38-.07,2.79-.02,4.17.05.21,2.11.9,2.5,1.52.55.88.34,3.73.69,4.03,1.01.27,2.3.44,3.25.83.83.34,2.02,1.49,2.73,1.67,1.26.32,3.19-.28,4.4.21,1.04.42,2.06,2.96,2.85,3.75.88.89,2.42,1.33,3.25,2.52.29.42,1.58,2.96,1.67,3.37.28,1.37-.43,3.02-.12,4.1.16.55,1.5,1.75,1.81,2.38.89,1.79-.92,3.21-1.65,4.69l4.17-.86.12-16.13c.38-1.58,3.44-3.38,4.93-3.67,2.12-.41,2.94,2.06,1.25,3.14-.44.28-2.75,1.15-2.91,1.39-.34.49,1.37,1.22,1.68,1.35,8.38,3.63,30.9,3.53,39.4.21.3-.12,2.24-1.05,2.31-1.15.46-.67-2.89-1.83-3.36-1.98-5.8-1.86-12.12-1.8-18.12-2.22-2.55-.22-5.96.67-8.4.43-1.43-.14-2.37-1.45-1.46-2.73s5.61-.57,5.95-.87c.1-.08.78-2.32.64-2.48-.39-.44-1.68.14-2.6-1.9-1.11-2.44-2.81-7.68-1.25-10.05.3-.46.96-.79,1.19-1.32.61-1.37.11-2.51,1.41-3.83,1.91-1.93,2.46-1.08,4.7-1.38.74-.1,1.44-.61,2.22-.61-.25-.67-1.16-4.8-1.47-5.03ZM17.51,13.72c.18-.28-.07-1.61.03-2.07-6.95,5.47-11.96,13.67-13.53,22.43-2.34,13.13,2.52,27.17,13,35.44.27-2.03-2.11-3.67-2-5.55.04-.69,1.04-3.57,1.37-4.3.3-.66,1.79-2.59,1.78-3.04-.02-.5-1.73-2.7-1.99-3.45-.51-1.49-.16-4.26-.77-5.52-.33-.66-1.33-1.05-1.84-1.73-1.29-1.73-.31-5.19-.64-7.32-.19-1.19-1.67-2.7-1.67-4,0-.58,1.07-3.16,1.37-3.88.21-.51,1.08-1.66,1.08-2,0-.52-1.4-1.63-1.56-2.35-.15-.65-.3-5.28-.16-5.94.13-.62,1.85-4.75,2.21-5.13.62-.66,3.23-1.44,3.33-1.6ZM74.56,25.06c.25-.24-1.97-4.22-2.51-4.61.05.81-.84,1.33-1.01,2.03-.64,2.77,1.81,1.9,3.52,2.58ZM77.91,36.6c-1.4.75-2.73.44-4.1.62s-1.12,2.37-1.61,3.42c-.26.55-1.1,1.18-1.2,1.73-.31,1.64.33,4.88,1.21,6.33.58.95,2.54.86,2.89,1.93.32.98.15,3.05-.33,3.99.27-.03.68.14.86-.12.4-.58,1.17-3.39,1.39-4.23,1.13-4.45,1.43-9.12.9-13.67ZM96.57,65.95c-3.32,1.47-7,2.26-10.61,2.7-6.45.79-13.42.86-19.89.23-4.38-.42-8.87-1.15-12.89-2.93v11.43c0,1.23,8.09,2.82,9.36,3.01,8.54,1.31,19.6,1.25,28.04-.63.83-.18,6-1.59,6-2.38v-11.43ZM96.57,81.46c-3.79,1.49-7.83,2.26-11.87,2.7-6.29.68-13.36.68-19.65,0-4.05-.44-8.08-1.21-11.87-2.7v11.43c0,.3,1.94,1.11,2.31,1.25,8.73,3.32,30.59,3.44,39.19-.2.66-.28,1.22-.72,1.89-.94v-11.53Z"/>
    <path d="M41.09,54.97c-.26-.22-2.6-2.89-2.69-3.07-.7-1.54,1.89-5.55,3.3-6.13.68-.28,4.61-.26,5.45-.11,1.02.18,2.16,1.31,3.29,1.54.97.2,2.08-.05,3,.36,1.72.77.84,4.96,1.42,6.55,0,.51-.42,1.4-.89,1.62-1.11.52-5.48-.2-6.97-.27s-4.85.41-5.91-.48ZM51.06,50.67c-.08-.07-1.55-.17-2.07-.34-.83-.27-1.91-1.15-2.67-1.31-.87-.18-2.85-.22-3.53.36-1.44,1.22-.69,1.97.64,2.73l7.74.22c.3-.04-.05-1.6-.11-1.66Z"/>
  </g>
</svg>