<?xml version="1.0" encoding="UTF-8"?>
<svg id="Layer_1" data-name="Layer 1" xmlns="http://www.w3.org/2000/svg" viewBox="0 0 100.13 100">
  <path d="M88.74,54.57c-11.35,2.6-23.19-2.3-29.36-12.07-6.05-9.57-5.64-21.89.99-31.04.95-1.31,2.34-2.48,3.19-3.7.13-.18.3-.21.21-.54-4.08-1.57-8.31-2.85-12.7-3.23,3.48,11.45-6.13,22.11-17.87,20.11-4.52,10.46-17.64,13.81-26.69,6.79-.2,1.34-.86,2.54-1.23,3.83-1.24,4.28-1.83,8.96-1.57,13.39,1.63-.76,3.23-1.7,4.96-2.25,17.29-5.53,33.53,10.72,28.39,27.95,5.77,2.76,9.14,9.35,7.34,15.63.99-.16,1.95.22,2.9.23,1.5.02,4.26-1.04,4.43,1.39.1,1.45-.75,1.9-2.06,2.04-5.76.64-13.89-.84-19.32-2.85C2.08,79.77-9.08,45.03,8.28,20.06c1.84-2.64,6.38-8.05,9.01-9.72,1.66-1.05,3.63.29,2.84,2.2-.3.73-3.23,2.94-4.01,3.74-3.17,3.22-6.05,7.14-7.9,11.25,6.55,5.99,17.23,3.92,21.19-3.98.68-1.35.84-3.73,2.79-3.62.65.04,1.4.48,2.02.58,9.55,1.58,17.15-8.36,12.62-16.93-4.23.15-8.31.66-12.39,1.76-1.62.44-5.45,2.76-5.94-.22-.35-2.13,4.79-3.24,6.37-3.65,25.94-6.66,52.45,10.11,57.42,36.31.96,5.09,1.33,14.74-.44,19.59-.4,1.09-.96,1.44-2.16,1.31-2.43-.26-.79-3.93-.96-4.1ZM89.36,50.66c1.34-15-5.19-29.78-17.34-38.68-.57-.42-4.24-2.88-4.59-2.73-9.77,8.01-11.53,22.13-4.26,32.46,4.92,6.99,13.73,10.78,22.21,9.81.51-.06,3.86-.68,3.98-.86ZM40.95,89c.98-4.18-.34-8.34-3.76-10.97-1.03-.79-3.77-1.54-4.1-2.57-.31-.98,1.03-4.44,1.19-5.93,1.61-14.52-13.16-25.57-26.55-19.45-.53.24-3.36,1.87-3.53,2.17-.67,1.15,2.23,9.67,2.93,11.29,5.86,13.67,18.94,23.82,33.82,25.46Z"/>
  <circle cx="24.17" cy="7.82" r="1.78"/>
  <g>
    <g>
      <path d="M79.27,79.32v3.44h19.69c.09,0,1.15,1.04.98,1.39-.47,4.48.58,10.1,0,14.44-.1.76-.79,1.46-1.61,1.4l-42.16-.06c-.71-.43-.95-.75-1.03-1.56-.44-4.48.37-9.67,0-14.23-.17-.35.89-1.39.98-1.39h19.69v-3.44h-19.69c-.09,0-1.15-1.04-.98-1.39.47-4.48-.58-10.1,0-14.44.1-.76.79-1.46,1.61-1.4l42.16.06c.71.43.95.75,1.03,1.56.44,4.48-.37,9.67,0,14.23.17.35-.89,1.39-.98,1.39h-19.69ZM96.49,65.54h-37.88v10.33h37.88v-10.33ZM96.49,86.21h-37.88v10.33h37.88v-10.33Z"/>
      <path d="M69.95,89.7l21.91-.04c1.54.56,1.66,2.45.32,3.33l-22.05.11c-1.6-.58-1.66-2.63-.18-3.39Z"/>
      <circle cx="63.78" cy="91.35" r="1.81"/>
    </g>
    <g>
      <path d="M92.77,69.48c.75.93.23,2.88-1.11,2.96h-21.33c-1.87-.25-1.99-3.3,0-3.46,6.78.5,14.45-.64,21.12,0,.42.04,1.04.16,1.32.51Z"/>
      <circle cx="63.78" cy="70.69" r="1.81"/>
    </g>
  </g>
</svg>